<svg width="46" height="28" viewBox="0 0 46 28" fill="none" xmlns="http://www.w3.org/2000/svg">
<rect x="0.947266" width="44.2105" height="28" rx="3" fill="#306FC8"/>
<mask id="mask0_690_22619" style="mask-type:alpha" maskUnits="userSpaceOnUse" x="0" y="0" width="46" height="28">
<rect x="0.947266" width="44.2105" height="28" rx="3" fill="url(#paint0_linear_690_22619)"/>
</mask>
<g mask="url(#mask0_690_22619)">
<path d="M20.0811 20.5058V16.4297L18.1768 18.4372L20.0811 20.5058Z" fill="white"/>
<path d="M12.1006 16.9414V17.8589L14.8235 17.8534V18.9044H12.1006V19.9109H15.1532L16.5743 18.4206L15.21 16.9414H12.1006Z" fill="white"/>
<path d="M23.668 9.21626C23.8272 9.12728 23.9238 8.94934 23.9238 8.73246C23.9238 8.51559 23.8215 8.35989 23.668 8.27647C23.5202 8.19306 23.2985 8.1875 23.0768 8.1875H21.542V9.32191H23.0598C23.2985 9.32191 23.4975 9.31079 23.668 9.21626Z" fill="white"/>
<path d="M3.23242 10.0183H4.93208L4.07941 7.99414L3.23242 10.0183Z" fill="white"/>
<path d="M22.9463 16.9414H21.3262V18.2204H22.9349C23.4067 18.2204 23.7023 17.998 23.7023 17.5587C23.6966 17.1194 23.3896 16.9414 22.9463 16.9414Z" fill="white"/>
<path d="M3.55076 12.0807H4.61945L5.10263 13.2206H9.28073V12.3532L9.6559 13.2206H11.816L12.1912 12.342V13.2206H22.5711V11.3633H22.7757C22.9235 11.3633 22.9633 11.38 22.9633 11.608V13.2206H28.3295V12.7813C28.7558 13.0093 29.4266 13.2206 30.3247 13.2206H32.5814L33.0703 12.0807H34.139L34.6222 13.2206H38.9594V12.1418L39.6245 13.2206H43.1091V6.125H39.6643V6.95913L39.1698 6.125H35.6283V6.95913L35.1963 6.125H30.41C29.6028 6.125 28.8922 6.23066 28.3295 6.53094V6.125H25.0324V6.53094C24.6459 6.2251 24.1627 6.125 23.617 6.125H11.5488L10.7303 7.95452L9.91171 6.125H6.11447V6.95913L5.68245 6.125H2.44229L0.947266 9.48932V13.2206H3.06758L3.55076 12.0807ZM28.5625 7.72096C28.9604 7.31502 29.5971 7.12595 30.4554 7.12595H31.6435V8.21588H30.4782C30.0177 8.21588 29.7619 8.28261 29.5175 8.52173C29.3015 8.73304 29.1537 9.13898 29.1537 9.67282C29.1537 10.2178 29.2617 10.6015 29.5061 10.8684C29.688 11.0686 30.0348 11.1298 30.3702 11.1298H30.9273L32.6781 7.12595H34.5312L36.6402 11.9417V7.12595H38.5388L40.7216 10.6682V7.12595H42.0006V12.2197H40.2271L37.8794 8.40495V12.2197H35.3498L34.8723 11.0797H32.2859L31.8084 12.2197H30.3645C29.7563 12.2197 28.9889 12.0807 28.5568 11.6525C28.1191 11.2187 27.8974 10.6349 27.8974 9.71175C27.8974 8.95547 28.0339 8.26593 28.5625 7.72096ZM26.0159 7.12595H27.2892V12.2197H26.0159V7.12595ZM20.303 7.12595H23.1679C23.7989 7.12595 24.265 7.1482 24.663 7.37063C25.0609 7.59863 25.3053 7.93228 25.3053 8.49948C25.3053 9.30581 24.7482 9.72287 24.4185 9.85077C24.6914 9.95087 24.9244 10.1344 25.0324 10.2845C25.2087 10.5292 25.2371 10.7628 25.2371 11.2076V12.2197H23.9865V11.5746C23.9865 11.2743 24.0149 10.8295 23.7819 10.5904C23.6056 10.4069 23.3328 10.3679 22.878 10.3679H21.5422V12.2197H20.2973V7.12595H20.303ZM15.2892 7.12595H19.4389V8.18808H16.5285V9.10562H19.365V10.1511H16.5285V11.1576L19.4389 11.152V12.2141H15.2892V7.12595ZM2.31154 12.2197H0.958635L3.18127 7.12595H5.03441L7.14336 11.9417V7.12595H9.17841L10.7985 10.5792L12.2935 7.12595H14.3627V12.2197H13.0893V8.23256L11.2874 12.2197H10.1959L8.38826 8.227V12.2197H5.85298L5.37548 11.0797H2.78904L2.31154 12.2197Z" fill="white"/>
<path d="M33.5765 7.99414L32.7295 10.0183H34.4235L33.5765 7.99414Z" fill="white"/>
<path d="M42.4044 17.0577C42.2736 17.1411 42.2168 17.2635 42.2168 17.4247C42.2168 17.6138 42.3305 17.7473 42.4897 17.8029C42.6147 17.8474 42.7568 17.8585 42.9671 17.8585L43.6322 17.8752C44.3201 17.8919 44.7748 18.0031 45.0534 18.2867C45.0931 18.3256 45.1273 18.3645 45.1557 18.4034V16.9688H42.8989C42.6772 16.9688 42.5238 16.9799 42.4044 17.0577Z" fill="white"/>
<path d="M43.4787 20.9661H41.0798V19.8762H43.4673C43.7004 19.8762 43.8652 19.8428 43.9675 19.7538C44.0528 19.676 44.1153 19.5648 44.1153 19.4202C44.1153 19.27 44.0528 19.1532 43.9618 19.081C43.8709 19.0031 43.7401 18.9697 43.5298 18.9697C42.3702 18.9364 40.9093 19.0087 40.9093 17.3905C40.9093 16.662 41.3811 15.8779 42.6885 15.8779H45.1613V14.877H42.859C42.1712 14.877 41.6539 15.0327 41.3015 15.2829V14.877H37.9079C37.3678 14.877 36.7198 15.0049 36.4185 15.2829V14.877H30.3418V15.2829C29.8586 14.9492 29.0457 14.877 28.6592 14.877H24.6516V15.2829C24.2708 14.9214 23.4295 14.877 22.9122 14.877H18.4214L17.3925 15.9669L16.4375 14.877H9.74121V21.9726H16.3182L17.3698 20.866L18.3703 21.967L22.4176 21.9726V20.2988H22.8212C23.3556 20.2988 23.9922 20.2877 24.5436 20.0541V21.9726H27.8975V20.1153H28.0623C28.267 20.1153 28.284 20.132 28.284 20.321V21.9726H38.4308C39.0675 21.9726 39.7553 21.8113 40.1305 21.5222V21.9726H43.3479C44.013 21.9726 44.6724 21.8781 45.1726 21.6445V20.3266C44.8486 20.7603 44.2802 20.9661 43.4787 20.9661ZM22.8667 19.2645H21.3205V20.9661H18.8989L17.3755 19.2923L15.7838 20.9716H10.8554V15.8779H15.8577L17.3812 17.5517L18.9671 15.8779H22.9463C23.924 15.8779 25.0325 16.1559 25.0325 17.5628C25.0268 18.9697 23.9524 19.2645 22.8667 19.2645ZM30.3475 19.0365C30.5237 19.2811 30.5521 19.5147 30.5578 19.9596V20.9661H29.3072V20.321C29.3072 20.0207 29.3356 19.5759 29.1026 19.3368C28.9207 19.1532 28.6535 19.1143 28.1987 19.1143H26.8629V20.9661H25.618V15.8723H28.483C29.114 15.8723 29.5744 15.8946 29.978 16.1226C30.3759 16.3506 30.6203 16.6842 30.6203 17.2514C30.6203 18.0578 30.0633 18.4748 29.7392 18.6027C30.0121 18.7028 30.2452 18.8863 30.3475 19.0365ZM35.4578 16.94H32.5531V17.8576H35.3953V18.9086H32.5531V19.9151H35.4635V20.9716H31.3139V15.8779H35.4635V16.94H35.4578ZM38.6184 20.9661H36.1968V19.8762H38.607C38.8401 19.8762 39.005 19.8428 39.1073 19.7538C39.1926 19.676 39.2551 19.5648 39.2551 19.4202C39.2551 19.27 39.1926 19.1532 39.1016 19.081C39.0106 19.0031 38.8799 18.9697 38.6696 18.9697C37.5099 18.9364 36.049 19.0087 36.049 17.3905C36.049 16.6564 36.5208 15.8779 37.8283 15.8779H40.3181V16.9678H38.0386C37.8112 16.9678 37.6634 16.9734 37.5384 17.0512C37.4076 17.1347 37.3565 17.257 37.3565 17.4183C37.3565 17.6073 37.4701 17.7408 37.6293 17.7964C37.7601 17.8409 37.8965 17.852 38.1068 17.852L38.7719 17.8687C39.4597 17.8854 39.9145 17.9966 40.193 18.2802C40.4375 18.536 40.5682 18.8307 40.5682 19.359C40.5739 20.4489 39.8804 20.9661 38.6184 20.9661Z" fill="white"/>
<path d="M28.9893 17.0248C28.8415 16.947 28.6141 16.9414 28.3981 16.9414H26.8633V18.0758H28.381C28.6198 18.0758 28.8244 18.0703 28.9893 17.9757C29.1484 17.8868 29.2451 17.7088 29.2451 17.4919C29.2394 17.2695 29.1428 17.1138 28.9893 17.0248Z" fill="white"/>
</g>
<defs>
<linearGradient id="paint0_linear_690_22619" x1="23.0525" y1="0" x2="23.0525" y2="28" gradientUnits="userSpaceOnUse">
<stop stop-color="#1B8ABA"/>
<stop offset="1" stop-color="#005D9C"/>
</linearGradient>
</defs>
</svg>
