<svg width="40" height="40" viewBox="0 0 40 40" fill="none" xmlns="http://www.w3.org/2000/svg">
<path d="M19.9987 37.9154C10.1154 37.9154 2.08203 29.882 2.08203 19.9987C2.08203 10.1154 10.1154 2.08203 19.9987 2.08203C29.882 2.08203 37.9154 10.1154 37.9154 19.9987C37.9154 29.882 29.882 37.9154 19.9987 37.9154ZM19.9987 4.58203C11.4987 4.58203 4.58203 11.4987 4.58203 19.9987C4.58203 28.4987 11.4987 35.4154 19.9987 35.4154C28.4987 35.4154 35.4154 28.4987 35.4154 19.9987C35.4154 11.4987 28.4987 4.58203 19.9987 4.58203Z" fill="#00D2B4"/>
<path d="M15.2849 25.9682C14.9682 25.9682 14.6516 25.8516 14.4016 25.6016C13.9182 25.1182 13.9182 24.3182 14.4016 23.8349L23.8349 14.4016C24.3182 13.9182 25.1182 13.9182 25.6016 14.4016C26.0849 14.8849 26.0849 15.6849 25.6016 16.1682L16.1682 25.6016C15.9349 25.8516 15.6016 25.9682 15.2849 25.9682Z" fill="#00D2B4"/>
<path d="M24.7182 25.9682C24.4016 25.9682 24.0849 25.8516 23.8349 25.6016L14.4016 16.1682C13.9182 15.6849 13.9182 14.8849 14.4016 14.4016C14.8849 13.9182 15.6849 13.9182 16.1682 14.4016L25.6016 23.8349C26.0849 24.3182 26.0849 25.1182 25.6016 25.6016C25.3516 25.8516 25.0349 25.9682 24.7182 25.9682Z" fill="#00D2B4"/>
</svg>
