<svg width="121" height="120" viewBox="0 0 121 120" fill="none" xmlns="http://www.w3.org/2000/svg">
<g clip-path="url(#clip0_586_19345)">
<path d="M111.125 18.75V33.75H2.375V18.75H17.375V20.625C17.375 24.7688 20.7313 28.125 24.875 28.125C29.0187 28.125 32.375 24.7688 32.375 20.625V18.75H49.25V20.625C49.25 24.7688 52.6063 28.125 56.75 28.125C60.8937 28.125 64.25 24.7688 64.25 20.625V18.75H81.125V20.625C81.125 24.7688 84.4812 28.125 88.625 28.125C92.7688 28.125 96.125 24.7688 96.125 20.625V18.75H111.125Z" fill="#00D2B4"/>
<path d="M49.25 16.875H32.375V20.625H49.25V16.875ZM111.125 16.875H96.125V20.625H109.25V31.875H4.25V20.625H17.375V16.875H2.375C1.34375 16.875 0.5 17.7188 0.5 18.75V33.75C0.5 34.7812 1.34375 35.625 2.375 35.625H111.125C112.156 35.625 113 34.7812 113 33.75V18.75C113 17.7188 112.156 16.875 111.125 16.875ZM81.125 16.875H64.25V20.625H81.125V16.875Z" fill="#00D2B4"/>
<path d="M111.125 31.875H2.375C1.34375 31.875 0.5 32.7188 0.5 33.75V97.5C0.5 104.738 6.3875 110.625 13.625 110.625H99.875C107.113 110.625 113 104.738 113 97.5V92.625C111.819 93.6938 110.562 94.6688 109.25 95.5312V97.5C109.25 102.675 105.05 106.875 99.875 106.875H13.625C8.45 106.875 4.25 102.675 4.25 97.5V35.625H109.25V39.4687C110.562 40.3312 111.819 41.3063 113 42.375V33.75C113 32.7188 112.156 31.875 111.125 31.875Z" fill="#00D2B4"/>
<path d="M62.375 15C62.375 11.8934 59.8566 9.375 56.75 9.375C53.6434 9.375 51.125 11.8934 51.125 15V20.625C51.125 23.7316 53.6434 26.25 56.75 26.25C59.8566 26.25 62.375 23.7316 62.375 20.625V15Z" fill="#00D2B4"/>
<path d="M30.5 15C30.5 11.8934 27.9816 9.375 24.875 9.375C21.7684 9.375 19.25 11.8934 19.25 15V20.625C19.25 23.7316 21.7684 26.25 24.875 26.25C27.9816 26.25 30.5 23.7316 30.5 20.625V15Z" fill="#00D2B4"/>
<path d="M94.25 15C94.25 11.8934 91.7316 9.375 88.625 9.375C85.5184 9.375 83 11.8934 83 15V20.625C83 23.7316 85.5184 26.25 88.625 26.25C91.7316 26.25 94.25 23.7316 94.25 20.625V15Z" fill="#00D2B4"/>
<path d="M39.875 46.875H51.125V58.125H39.875V46.875Z" fill="#00D2B4"/>
<path d="M17.375 65.625H28.625V76.875H17.375V65.625Z" fill="#00D2B4"/>
<path d="M39.875 65.625H51.125V76.875H39.875V65.625Z" fill="#00D2B4"/>
<path d="M17.375 84.375H28.625V95.625H17.375V84.375Z" fill="#00D2B4"/>
<path d="M39.875 84.375H51.125V95.625H39.875V84.375Z" fill="#00D2B4"/>
<path d="M64.2498 99.375C63.8186 99.375 63.4061 99.225 63.0686 98.9625C62.5061 98.5125 62.2623 97.7625 62.4311 97.0688L65.5623 84.15C62.2623 79.2 60.5186 73.4625 60.5186 67.5C60.5186 50.9625 73.9811 37.5 90.5186 37.5C107.056 37.5 120.519 50.9625 120.519 67.5C120.519 84.0375 107.056 97.5 90.5186 97.5C85.5311 97.5 80.6186 96.2625 76.2498 93.9L65.0748 99.2062C64.8123 99.3187 64.5498 99.3937 64.2686 99.3937L64.2498 99.375ZM90.4998 41.25C76.0248 41.25 64.2498 53.025 64.2498 67.5C64.2498 72.975 65.9186 78.225 69.1061 82.6875C69.4248 83.1375 69.5186 83.6813 69.4061 84.2062L67.0061 94.1062L75.5186 90.075C76.0811 89.8125 76.7373 89.8313 77.2623 90.15C81.2748 92.4938 85.8498 93.7313 90.4998 93.7313C104.975 93.7313 116.75 81.9563 116.75 67.4813C116.75 53.0063 104.975 41.2312 90.4998 41.2312V41.25Z" fill="#00D2B4"/>
<path d="M99.875 54.375L84.875 69.375L79.25 63.75L73.625 69.375L79.25 75L84.875 80.625L90.5 75L105.5 60L99.875 54.375Z" fill="#00D2B4"/>
</g>
<defs>
<clipPath id="clip0_586_19345">
<rect width="120" height="120" fill="white" transform="translate(0.5)"/>
</clipPath>
</defs>
</svg>
