<svg width="30" height="30" viewBox="0 0 30 30" fill="none" xmlns="http://www.w3.org/2000/svg">
<g clip-path="url(#clip0_1473_48268)">
<path d="M22.0898 14.1797C17.7281 14.1797 14.1797 17.7281 14.1797 22.0898C14.1797 26.4516 17.7281 30 22.0898 30C26.4516 30 30 26.4516 30 22.0898C30 17.7281 26.4516 14.1797 22.0898 14.1797ZM24.2977 24.6961L21.2695 22.6775V19.5703H23.0273V21.7365L25.2727 23.2336L24.2977 24.6961Z" fill="#00D2B4"/>
<path d="M0 3.51562H3.51562V7.03125H0V3.51562Z" fill="#00D2B4"/>
<path d="M22.0898 12.4219C23.6244 12.4219 25.077 12.7811 26.3672 13.4203V8.78906H0V26.3672H13.4203C12.7811 25.077 12.4219 23.6244 12.4219 22.0898C12.4219 16.759 16.759 12.4219 22.0898 12.4219ZM5.27344 12.3047H15.8203V14.0625H5.27344V12.3047ZM10.5469 21.0938H5.27344V19.3359H10.5469V21.0938ZM12.3047 17.5781H5.27344V15.8203H12.3047V17.5781Z" fill="#00D2B4"/>
<path d="M5.27344 2.63672C5.27344 2.15215 5.66777 1.75781 6.15234 1.75781C6.63691 1.75781 7.03125 2.15215 7.03125 2.63672V3.51562H5.27344V7.03125H10.5469V3.51562H8.78906V2.63672C8.78906 1.18301 7.60605 0 6.15234 0C4.69863 0 3.51562 1.18301 3.51562 2.63672V3.51562H5.27344V2.63672Z" fill="#00D2B4"/>
<path d="M12.3047 2.63672C12.3047 2.15215 12.699 1.75781 13.1836 1.75781C13.6682 1.75781 14.0625 2.15215 14.0625 2.63672V3.51562H12.3047V7.03125H17.5781V3.51562H15.8203V2.63672C15.8203 1.18301 14.6373 0 13.1836 0C11.7299 0 10.5469 1.18301 10.5469 2.63672V3.51562H12.3047V2.63672Z" fill="#00D2B4"/>
<path d="M19.3359 2.63672C19.3359 2.15215 19.7303 1.75781 20.2148 1.75781C20.6994 1.75781 21.0938 2.15215 21.0938 2.63672V3.51562H19.3359V7.03125H26.3672V3.51562H22.8516V2.63672C22.8516 1.18301 21.6686 0 20.2148 0C18.7611 0 17.5781 1.18301 17.5781 2.63672V3.51562H19.3359V2.63672Z" fill="#00D2B4"/>
</g>
<defs>
<clipPath id="clip0_1473_48268">
<rect width="30" height="30" fill="white"/>
</clipPath>
</defs>
</svg>
