<svg width="32" height="32" viewBox="0 0 32 32" fill="none" xmlns="http://www.w3.org/2000/svg">
<path d="M28.651 17.3188C29.5061 15.4783 29.9656 13.479 30 11.4498C30.0023 9.82318 29.5531 8.2278 28.7023 6.84135C27.8516 5.45489 26.6328 4.33176 25.1815 3.597C23.7302 2.86225 22.1035 2.54472 20.4825 2.67975C18.8615 2.81479 17.3097 3.39709 16 4.36183C14.6903 3.39709 13.1386 2.81479 11.5175 2.67975C9.89648 2.54472 8.26977 2.86225 6.81851 3.597C5.36725 4.33176 4.1484 5.45489 3.29767 6.84135C2.44694 8.2278 1.99771 9.82318 2.00001 11.4498C2.00001 21.0908 13.342 29.3498 16 29.3498C16.7193 29.3006 17.4148 29.072 18.023 28.6848L18.03 28.6898C19.2459 29.3876 20.6238 29.7533 22.0257 29.7502C23.4275 29.7471 24.8039 29.3753 26.0166 28.6722C27.2294 27.969 28.2358 26.9593 28.935 25.7443C29.6342 24.5292 30.0015 23.1517 30 21.7498C30.0055 20.1756 29.5387 18.636 28.66 17.3298L28.651 17.3188ZM22 27.7498C20.8263 27.7533 19.6779 27.4088 18.7 26.7598C17.9737 26.2852 17.359 25.6588 16.8982 24.9236C16.4374 24.1885 16.1415 23.3622 16.031 22.5017C15.9204 21.6411 15.9978 20.7668 16.2578 19.9391C16.5178 19.1114 16.9542 18.3499 17.5369 17.7071C18.1197 17.0643 18.8349 16.5556 19.6333 16.2159C20.4316 15.8763 21.2941 15.7138 22.1614 15.7398C23.0286 15.7657 23.8799 15.9794 24.6565 16.3661C25.4332 16.7528 26.1167 17.3034 26.66 17.9798C26.7165 18.0449 26.7667 18.1153 26.81 18.1898C27.5874 19.2134 28.0056 20.4646 28 21.7498C28 23.3411 27.3679 24.8673 26.2427 25.9925C25.1174 27.1177 23.5913 27.7498 22 27.7498Z" fill="#00D2B4"/>
<path d="M24.5 20.75H23V19.25C23 18.9848 22.8946 18.7304 22.7071 18.5429C22.5196 18.3554 22.2652 18.25 22 18.25C21.7348 18.25 21.4804 18.3554 21.2929 18.5429C21.1054 18.7304 21 18.9848 21 19.25V20.75H19.5C19.2348 20.75 18.9804 20.8554 18.7929 21.0429C18.6054 21.2304 18.5 21.4848 18.5 21.75C18.5 22.0152 18.6054 22.2696 18.7929 22.4571C18.9804 22.6446 19.2348 22.75 19.5 22.75H21V24.25C20.9984 24.2738 21.0018 24.2976 21.01 24.32C21.0248 24.5722 21.1357 24.8091 21.3198 24.9821C21.504 25.1551 21.7474 25.2509 22 25.25C22.2652 25.25 22.5196 25.1446 22.7071 24.9571C22.8946 24.7696 23 24.5152 23 24.25V22.75H24.5C24.7652 22.75 25.0196 22.6446 25.2071 22.4571C25.3946 22.2696 25.5 22.0152 25.5 21.75C25.5 21.4848 25.3946 21.2304 25.2071 21.0429C25.0196 20.8554 24.7652 20.75 24.5 20.75Z" fill="#00D2B4"/>
</svg>
