<svg width="24" height="24" viewBox="0 0 24 24" fill="none" xmlns="http://www.w3.org/2000/svg">
<path d="M12.5196 1.47455H10.7788V0.96167C10.7789 0.431396 10.3465 0 9.8152 0H9.2039C8.67241 0 8.24016 0.431396 8.24016 0.96167V1.47455H6.49928C6.19509 1.47455 5.9476 1.72174 5.9476 2.02533V2.19489H2.65718C1.77453 2.19489 1.05664 2.91156 1.05664 3.7923V22.4026C1.05664 23.2835 1.77453 24 2.65718 24H8.71625C8.91091 24 9.0685 23.8425 9.0685 23.6484C9.0685 23.4542 8.91091 23.2969 8.71625 23.2969H2.65718C2.16311 23.2969 1.76114 22.8957 1.76114 22.4026V3.7923C1.76114 3.29919 2.16311 2.89801 2.65718 2.89801H5.9476V3.46619H2.83129C2.55499 3.46619 2.33025 3.69031 2.33025 3.96606V22.2288C2.33025 22.5046 2.55499 22.7287 2.83129 22.7287H16.1878C16.4641 22.7287 16.6889 22.5046 16.6889 22.2288V3.96606C16.6889 3.69049 16.4641 3.46619 16.1878 3.46619H13.0715V2.89801H16.3619C16.856 2.89801 17.258 3.29919 17.258 3.7923V12.0322C17.258 12.2263 17.4156 12.3838 17.6102 12.3838C17.8047 12.3838 17.9625 12.2263 17.9625 12.0322V3.7923C17.9625 2.91156 17.2444 2.19489 16.3619 2.19489H13.0715V2.02533C13.0715 1.72174 12.824 1.47455 12.5196 1.47455ZM8.94467 0.96167C8.94467 0.819214 9.06098 0.703125 9.2039 0.703125H9.8152C9.95812 0.703125 10.0743 0.819214 10.0743 0.96167V1.47455H8.94467V0.96167ZM6.6521 2.17767H12.367V3.82214C11.7096 3.82214 7.31661 3.82214 6.6521 3.82214V2.17767ZM11.06 4.52527L10.8254 5.06946C10.8213 5.0788 10.8121 5.08466 10.8021 5.08466H8.31337C8.29575 5.08466 8.27943 5.0744 8.27209 5.05811L8.02881 4.52527H11.06ZM15.9842 4.16931V22.0256H3.03493V4.16931H5.98393C6.063 4.37695 6.26389 4.52527 6.49946 4.52527H7.2546L7.63088 5.34961C7.75233 5.61584 8.02019 5.78796 8.31337 5.78796H10.8021C11.0939 5.78796 11.3572 5.61493 11.4724 5.34723L11.8271 4.52527H12.5196C12.7552 4.52527 12.9561 4.37695 13.0352 4.16931H15.9842Z" fill="#434342"/>
<path d="M4.9587 14.3896C4.76422 14.3896 4.60645 14.5471 4.60645 14.7412C4.60645 14.9355 4.76422 15.093 4.9587 15.093H14.0614C14.2559 15.093 14.4137 14.9355 14.4137 14.7412C14.4137 14.5471 14.2559 14.3896 14.0614 14.3896H4.9587Z" fill="#434342"/>
<path d="M14.0614 16.1982H4.9587C4.76422 16.1982 4.60645 16.3557 4.60645 16.5498C4.60645 16.7441 4.76422 16.9014 4.9587 16.9014H14.0614C14.2559 16.9014 14.4137 16.7441 14.4137 16.5498C14.4137 16.3557 14.2559 16.1982 14.0614 16.1982Z" fill="#434342"/>
<path d="M14.0614 18.0059H4.9587C4.76422 18.0059 4.60645 18.1633 4.60645 18.3574C4.60645 18.5515 4.76422 18.709 4.9587 18.709H14.0614C14.2559 18.709 14.4137 18.5515 14.4137 18.3574C14.4137 18.1633 14.2559 18.0059 14.0614 18.0059Z" fill="#434342"/>
<path d="M14.0614 19.8135H4.9587C4.76422 19.8135 4.60645 19.9709 4.60645 20.165C4.60645 20.3593 4.76422 20.5168 4.9587 20.5168H14.0614C14.2559 20.5168 14.4137 20.3593 14.4137 20.165C14.4137 19.9709 14.2559 19.8135 14.0614 19.8135Z" fill="#434342"/>
<path d="M20.6543 4.45312H20.3232C19.7708 4.45312 19.3213 4.90155 19.3213 5.45306V19.63C19.3213 20.1385 19.4007 20.2632 20.0707 22.2821C20.2039 22.6833 20.7738 22.6838 20.9068 22.2821C21.5973 20.2017 21.6562 20.1249 21.6562 19.6595C21.6562 19.3354 21.6562 8.24451 21.6562 8.0462H22.2296C22.2694 8.0462 22.3018 8.07843 22.3018 8.11835V13.8906C22.3018 14.0847 22.4594 14.2421 22.6541 14.2421C22.8486 14.2421 23.0063 14.0847 23.0063 13.8906V8.11835C23.0063 7.6908 22.6579 7.3429 22.2296 7.3429H21.6562V5.45306C21.6562 4.90155 21.2067 4.45312 20.6543 4.45312ZM20.026 9.27484H20.9517V18.4561H20.026V9.27484ZM20.026 8.04602H20.9517V8.57172H20.026V8.04602ZM20.3232 5.15625H20.6543C20.8184 5.15625 20.9517 5.28937 20.9517 5.45306V7.3429H20.026V5.45306C20.026 5.28937 20.1594 5.15625 20.3232 5.15625ZM20.9517 19.6595C20.9517 19.9807 20.9015 20.062 20.4889 21.3052C20.0821 20.0799 20.026 19.983 20.026 19.63V19.1592H20.9517V19.6595Z" fill="#434342"/>
<path d="M9.53865 13.4493C11.2047 13.4493 12.2974 11.7136 11.5797 10.2166L10.0613 7.04938C9.9641 6.84668 9.76394 6.7207 9.53883 6.7207H9.53865C9.31354 6.7207 9.11319 6.84668 9.01596 7.04938L7.4978 10.2166C6.7788 11.7164 7.87573 13.4493 9.53865 13.4493ZM8.13331 10.52L9.53865 7.58826L10.9442 10.52C11.4391 11.5527 10.6838 12.7462 9.53865 12.7462C8.39145 12.7462 7.63906 11.551 8.13331 10.52Z" fill="#434342"/>
<path d="M8.85829 11.4789H9.18633V11.8063C9.18633 12.0004 9.34411 12.1579 9.53858 12.1579C9.73323 12.1579 9.89083 12.0004 9.89083 11.8063V11.4789H10.219C10.4135 11.4789 10.5713 11.3215 10.5713 11.1274C10.5713 10.9331 10.4135 10.7758 10.219 10.7758H9.89083V10.4482C9.89083 10.2542 9.73323 10.0967 9.53858 10.0967C9.34411 10.0967 9.18633 10.2542 9.18633 10.4482V10.7758H8.85829C8.66364 10.7758 8.50586 10.9331 8.50586 11.1274C8.50586 11.3215 8.66364 11.4789 8.85829 11.4789Z" fill="#434342"/>
<path d="M16.3619 23.9998C17.2444 23.9998 17.9624 23.2833 17.9624 22.4024V13.6729C17.9624 13.4786 17.8047 13.3213 17.6102 13.3213C17.4155 13.3213 17.2579 13.4786 17.2579 13.6729V22.4024C17.2579 22.8955 16.856 23.2967 16.3619 23.2967H10.3602C10.1656 23.2967 10.0078 23.454 10.0078 23.6483C10.0078 23.8423 10.1656 23.9998 10.3602 23.9998H16.3619Z" fill="#434342"/>
</svg>
