<svg width="30" height="30" viewBox="0 0 30 30" fill="none" xmlns="http://www.w3.org/2000/svg">
<path d="M24.1851 2.61803H18.1371C17.7379 1.09377 16.3576 0 14.7347 0C13.1118 0 11.7316 1.09377 11.3324 2.61803H5.26283C4.01508 2.61803 3 3.63311 3 4.88086V27.7372C3 28.9849 4.01508 30 5.26283 30H24.1851C25.4329 30 26.4479 28.9849 26.4479 27.7372V4.88086C26.4479 3.63311 25.4329 2.61803 24.1851 2.61803ZM11.1339 8.33672H18.314C19.3651 8.33672 20.2203 7.48154 20.2203 6.43043V6.36803H22.698V26.25H6.75V6.36803H9.2277V6.43043C9.2277 7.4816 10.0829 8.33672 11.1339 8.33672ZM12.7655 3.7899H16.6825V4.82039H12.7655V3.7899ZM14.7347 1.17188C15.7076 1.17188 16.5498 1.76098 16.9035 2.61803H12.566C12.9196 1.76098 13.7618 1.17188 14.7347 1.17188ZM11.5936 3.7899V5.40633C11.5936 5.72988 11.8559 5.99227 12.1795 5.99227H17.2685C17.5921 5.99227 17.8544 5.72988 17.8544 5.40633V3.7899H19.0484V6.43043C19.0484 6.83537 18.7189 7.16484 18.314 7.16484H11.1339C10.729 7.16484 10.3995 6.83537 10.3995 6.43043V3.7899H11.5936ZM25.2761 27.7372C25.2761 28.3388 24.7866 28.8281 24.1851 28.8281H5.26283C4.66125 28.8281 4.17188 28.3387 4.17188 27.7372V4.88086C4.17188 4.27928 4.66131 3.7899 5.26283 3.7899H9.2277V5.19615H6.16406C5.84045 5.19615 5.57813 5.45854 5.57813 5.78209V26.8359C5.57813 27.1595 5.84045 27.4219 6.16406 27.4219H23.2839C23.6075 27.4219 23.8698 27.1595 23.8698 26.8359V5.78209C23.8698 5.45854 23.6075 5.19615 23.2839 5.19615H20.2202V3.7899H24.1851C24.7867 3.7899 25.2761 4.27934 25.2761 4.88086V27.7372Z" fill="#00D2B4"/>
<path d="M9.05936 15.1095H8.84473C8.52111 15.1095 8.25879 15.3719 8.25879 15.6954C8.25879 16.019 8.52111 16.2814 8.84473 16.2814H9.28137C9.38824 16.6002 9.53361 16.9116 9.721 17.2274C10.7209 18.9133 13.9345 20.989 14.2975 21.22C14.4258 21.3018 14.5731 21.3427 14.7203 21.3427C14.8668 21.3427 15.0134 21.3022 15.1414 21.2212C15.5048 20.9912 18.7204 18.9253 19.7273 17.2275C19.7937 17.1155 19.8548 17.0041 19.9109 16.8928L20.5991 16.8967C20.9214 16.9 21.1866 16.6378 21.1884 16.3143C21.1903 15.9906 20.9295 15.7268 20.6059 15.7249L20.3126 15.7232C20.3699 15.4237 20.3974 15.1124 20.3974 14.7803C20.3974 13.7262 20.037 12.8289 19.355 12.1858C18.7311 11.5975 17.8791 11.2734 16.956 11.2734C15.8439 11.2734 15.1412 11.7212 14.721 12.156C14.3016 11.7211 13.6 11.2734 12.4892 11.2734C11.5661 11.2734 10.7143 11.5975 10.091 12.186C9.40992 12.8291 9.04992 13.7262 9.04992 14.7803C9.0498 14.8922 9.05297 15.0019 9.05936 15.1095ZM14.7209 20.0984C13.52 19.3122 11.39 17.7443 10.7289 16.6295C10.6588 16.5114 10.5969 16.3959 10.5424 16.2814H12.1079C12.253 16.2814 12.393 16.2275 12.5007 16.1303L13.207 15.4922L14.0547 17.8458C14.1294 18.0533 14.3142 18.2012 14.5329 18.2286C14.5574 18.2317 14.5818 18.2332 14.6061 18.2332C14.7987 18.2332 14.9811 18.1381 15.0909 17.976L16.3301 16.1483L16.5387 16.5567C16.6382 16.7516 16.8381 16.8748 17.0571 16.8761L18.549 16.8847C17.744 17.9788 15.8334 19.3738 14.7209 20.0984ZM12.4891 12.4452C13.4621 12.4452 13.9208 12.92 14.1342 13.3183C14.2499 13.5344 14.4743 13.6688 14.7199 13.669H14.7204C14.9657 13.669 15.1901 13.535 15.3061 13.3192C15.5204 12.9204 15.9807 12.4451 16.9559 12.4451C18.0855 12.4451 19.2254 13.1671 19.2254 14.7802C19.2254 15.1233 19.1909 15.4261 19.1144 15.7161L17.4202 15.7062L16.9229 14.7328C16.8287 14.5483 16.644 14.4272 16.4372 14.4145C16.2304 14.4011 16.0323 14.499 15.9161 14.6705L14.767 16.3655L14.0135 14.2734C13.9473 14.0896 13.7939 13.9509 13.6045 13.9035C13.415 13.8561 13.2144 13.9062 13.0695 14.0371L11.8824 15.1095H10.2335C10.2256 15.0035 10.2217 14.8941 10.2217 14.7802C10.2217 13.1672 11.3605 12.4452 12.4891 12.4452Z" fill="#00D2B4"/>
<path d="M19.7633 22.7578H17.373C17.0494 22.7578 16.7871 23.0202 16.7871 23.3438C16.7871 23.6673 17.0494 23.9297 17.373 23.9297H19.7633C20.0869 23.9297 20.3492 23.6673 20.3492 23.3438C20.3492 23.0202 20.0869 22.7578 19.7633 22.7578Z" fill="#00D2B4"/>
<path d="M12.0748 22.7578H9.68457C9.36096 22.7578 9.09863 23.0202 9.09863 23.3438C9.09863 23.6673 9.36096 23.9297 9.68457 23.9297H12.0748C12.3985 23.9297 12.6608 23.6673 12.6608 23.3438C12.6608 23.0202 12.3985 22.7578 12.0748 22.7578Z" fill="#00D2B4"/>
<path d="M15.2758 23.12C15.1831 22.8974 14.9574 22.7503 14.7158 22.7581C14.4739 22.766 14.2582 22.927 14.18 23.1557C14.1 23.3896 14.1809 23.6586 14.3777 23.8088C14.5712 23.9565 14.8424 23.9687 15.0483 23.8388C15.2856 23.6892 15.3837 23.3788 15.2758 23.12Z" fill="#00D2B4"/>
</svg>
