<svg width="24" height="24" viewBox="0 0 24 24" fill="none" xmlns="http://www.w3.org/2000/svg">
<path d="M9.94604 7.74408H10.8667V8.49609C10.8669 8.66336 10.9335 8.82372 11.0517 8.94197C11.17 9.06023 11.3304 9.12674 11.4977 9.12689H12.5055C12.6727 9.12672 12.833 9.0602 12.9513 8.94194C13.0695 8.82367 13.136 8.66332 13.1361 8.49609V7.74408H14.0568C14.224 7.74393 14.3844 7.67743 14.5027 7.55917C14.621 7.44091 14.6875 7.28055 14.6878 7.11328V6.27063C14.6875 6.10336 14.621 5.94301 14.5027 5.82475C14.3844 5.70649 14.224 5.63999 14.0568 5.63983H13.1361V4.88763C13.136 4.72041 13.0695 4.56006 12.9513 4.44179C12.833 4.32353 12.6727 4.25701 12.5055 4.25684H11.4977C11.3304 4.25699 11.17 4.3235 11.0517 4.44175C10.9335 4.56001 10.8669 4.72037 10.8667 4.88763V5.63983H9.94604C9.77882 5.64 9.61849 5.70652 9.50025 5.82479C9.38202 5.94305 9.31555 6.1034 9.31543 6.27063V7.11328C9.31555 7.28051 9.38202 7.44086 9.50025 7.55913C9.61849 7.67739 9.77882 7.74391 9.94604 7.74408ZM10.0654 6.38983H11.2417C11.2909 6.38985 11.3397 6.38015 11.3852 6.36131C11.4307 6.34247 11.4721 6.31485 11.5069 6.28003C11.5417 6.2452 11.5693 6.20386 11.5882 6.15835C11.607 6.11285 11.6167 6.06408 11.6167 6.01483V5.00683H12.3861V6.01483C12.3861 6.06408 12.3958 6.11285 12.4146 6.15835C12.4335 6.20386 12.4611 6.2452 12.4959 6.28003C12.5307 6.31485 12.5721 6.34247 12.6176 6.36131C12.6631 6.38015 12.7119 6.38985 12.7611 6.38983H13.9378V6.99408H12.7611C12.7119 6.99407 12.6631 7.00376 12.6176 7.0226C12.5721 7.04144 12.5307 7.06906 12.4959 7.10389C12.4611 7.13871 12.4335 7.18006 12.4146 7.22556C12.3958 7.27106 12.3861 7.31983 12.3861 7.36908V8.37689H11.6167V7.36908C11.6167 7.31983 11.607 7.27106 11.5882 7.22556C11.5693 7.18006 11.5417 7.13871 11.5069 7.10389C11.4721 7.06906 11.4307 7.04144 11.3852 7.0226C11.3397 7.00376 11.2909 6.99407 11.2417 6.99408H10.0654V6.38983Z" fill="#434342"/>
<path d="M21.7313 18.8968H20.4177V8.11641C20.6072 8.11161 20.7872 8.03308 20.9196 7.89752C21.0521 7.76197 21.1264 7.5801 21.1267 7.39061V5.80035C21.1265 5.60744 21.0498 5.4225 20.9133 5.28611C20.7769 5.14973 20.592 5.07304 20.399 5.07287H15.8687C15.5494 4.30999 15.0118 3.65852 14.3233 3.20038C13.6348 2.74224 12.8262 2.49789 11.9992 2.49805C11.1723 2.4982 10.3638 2.74286 9.67547 3.20126C8.98716 3.65966 8.44974 4.31133 8.1308 5.07434H6.23255C6.13396 5.07566 6.03987 5.11576 5.97062 5.18594C5.90138 5.25612 5.86256 5.35075 5.86256 5.44935C5.86256 5.54794 5.90139 5.64257 5.97064 5.71275C6.03989 5.78293 6.13399 5.82302 6.23257 5.82434H7.89695C7.78818 6.33227 7.77735 6.85629 7.86503 7.36828C7.86503 7.36828 3.62879 7.39051 3.62254 7.39173L3.59985 5.82435H4.73255C4.832 5.82435 4.92738 5.78484 4.99771 5.71452C5.06804 5.64419 5.10755 5.54881 5.10755 5.44935C5.10755 5.34989 5.06804 5.25451 4.99771 5.18419C4.92738 5.11386 4.832 5.07435 4.73255 5.07435H3.59985C3.40701 5.07459 3.22213 5.15132 3.08578 5.2877C2.94943 5.42408 2.87275 5.60898 2.87256 5.80183V7.39173C2.87291 7.58135 2.94729 7.76332 3.07987 7.89888C3.21244 8.03444 3.39272 8.11286 3.58227 8.11743V18.8968H2.26868C2.06439 18.8976 1.86874 18.9793 1.72464 19.1242C1.58055 19.269 1.49976 19.465 1.5 19.6693V20.7342C1.50025 20.938 1.58131 21.1334 1.72541 21.2775C1.86952 21.4216 2.06489 21.5027 2.26868 21.5029H18.9302C19.0296 21.5029 19.125 21.4634 19.1953 21.3931C19.2657 21.3227 19.3052 21.2274 19.3052 21.1279C19.3052 21.0285 19.2657 20.9331 19.1953 20.8627C19.125 20.7924 19.0296 20.7529 18.9302 20.7529L2.25 20.7342L2.26868 19.6468C4.59595 19.6584 19.4246 19.625 21.75 19.6693L21.7313 20.7529H20.4302C20.3317 20.7544 20.2377 20.7945 20.1686 20.8647C20.0995 20.9349 20.0607 21.0294 20.0607 21.1279C20.0607 21.2264 20.0995 21.321 20.1686 21.3911C20.2377 21.4613 20.3317 21.5015 20.4302 21.5029H21.7313C21.9351 21.5027 22.1305 21.4216 22.2746 21.2775C22.4187 21.1334 22.4998 20.938 22.5 20.7342V19.6693C22.5002 19.465 22.4195 19.269 22.2754 19.1241C22.1313 18.9793 21.9356 18.8976 21.7313 18.8968ZM12 3.24804C12.9124 3.25186 13.7863 3.61596 14.4314 4.26108C15.0766 4.9062 15.4407 5.78008 15.4446 6.69244C15.2555 11.2614 8.7442 11.2609 8.55542 6.69242C8.55652 5.77921 8.9198 4.90374 9.56555 4.25802C10.2113 3.61231 11.0868 3.24909 12 3.24804ZM16.1027 18.8968H12.375V11.858H15.8251C15.8986 11.8581 15.9692 11.8874 16.0212 11.9394C16.0733 11.9914 16.1025 12.0619 16.1027 12.1354V18.8968ZM19.6677 18.8968H16.8527V12.1354C16.8523 11.863 16.7439 11.6019 16.5513 11.4093C16.3587 11.2167 16.0975 11.1083 15.8251 11.108C13.9105 11.1089 10.0889 11.1074 8.17493 11.108C7.90252 11.1083 7.64134 11.2167 7.4487 11.4093C7.25606 11.6019 7.14768 11.863 7.14734 12.1354V13.0056C7.14873 13.1041 7.18885 13.1981 7.25903 13.2673C7.3292 13.3365 7.42379 13.3753 7.52234 13.3753C7.62089 13.3753 7.71548 13.3365 7.78565 13.2673C7.85582 13.1981 7.89595 13.1041 7.89734 13.0056V12.1354C7.89746 12.0619 7.92675 11.9913 7.97878 11.9393C8.03082 11.8873 8.10136 11.8581 8.17493 11.858H11.625V18.8968H7.89734V14.5055C7.89588 14.407 7.85573 14.3131 7.78556 14.2439C7.71539 14.1748 7.62084 14.1361 7.52234 14.1361C7.42384 14.1361 7.32929 14.1748 7.25912 14.2439C7.18895 14.3131 7.1488 14.407 7.14734 14.5055V18.8968H4.33227V8.1192H8.06063C8.35673 8.92588 8.89335 9.62222 9.59795 10.1141C10.3026 10.606 11.1412 10.8697 12.0005 10.8696C12.8598 10.8695 13.6984 10.6055 14.4029 10.1135C15.1074 9.62144 15.6438 8.92497 15.9397 8.11821L19.6677 8.11828V18.8968ZM16.135 7.36828C16.2229 6.855 16.2117 6.32963 16.1021 5.82054L20.3767 5.80035L20.3991 7.36828H16.135Z" fill="#434342"/>
<path d="M10.9147 15.8311C11.0132 15.8297 11.1072 15.7895 11.1764 15.7194C11.2456 15.6492 11.2844 15.5546 11.2844 15.456C11.2844 15.3575 11.2456 15.2629 11.1764 15.1927C11.1072 15.1226 11.0132 15.0824 10.9146 15.0811C10.8161 15.0825 10.7221 15.1226 10.6529 15.1928C10.5837 15.2629 10.5449 15.3575 10.5449 15.4561C10.5449 15.5546 10.5837 15.6492 10.6529 15.7194C10.7221 15.7895 10.8161 15.8297 10.9147 15.8311Z" fill="#434342"/>
<path d="M13.0846 15.0811C12.986 15.0825 12.892 15.1226 12.8228 15.1928C12.7536 15.2629 12.7148 15.3575 12.7148 15.4561C12.7148 15.5546 12.7536 15.6492 12.8228 15.7194C12.892 15.7895 12.9861 15.8297 13.0846 15.8311C13.1831 15.8297 13.2772 15.7895 13.3463 15.7194C13.4155 15.6492 13.4543 15.5546 13.4543 15.456C13.4543 15.3575 13.4155 15.2629 13.3463 15.1927C13.2771 15.1226 13.1831 15.0824 13.0846 15.0811Z" fill="#434342"/>
</svg>
