<svg width="30" height="30" viewBox="0 0 30 30" fill="none" xmlns="http://www.w3.org/2000/svg">
<g clip-path="url(#clip0_687_21857)">
<path d="M28.1836 5.33203C28.669 5.33203 29.0625 4.93853 29.0625 4.45312C29.0625 3.96772 28.669 3.57422 28.1836 3.57422C27.6982 3.57422 27.3047 3.96772 27.3047 4.45312C27.3047 4.93853 27.6982 5.33203 28.1836 5.33203Z" fill="#00D2B4"/>
<path d="M3.28125 2.98828C3.60485 2.98828 3.86719 2.72595 3.86719 2.40234C3.86719 2.07874 3.60485 1.81641 3.28125 1.81641C2.95765 1.81641 2.69531 2.07874 2.69531 2.40234C2.69531 2.72595 2.95765 2.98828 3.28125 2.98828Z" fill="#00D2B4"/>
<path d="M24.9609 2.98828C25.2845 2.98828 25.5469 2.72595 25.5469 2.40234C25.5469 2.07874 25.2845 1.81641 24.9609 1.81641C24.6373 1.81641 24.375 2.07874 24.375 2.40234C24.375 2.72595 24.6373 2.98828 24.9609 2.98828Z" fill="#00D2B4"/>
<path d="M2.69531 8.26172C3.01892 8.26172 3.28125 7.99939 3.28125 7.67578C3.28125 7.35218 3.01892 7.08984 2.69531 7.08984C2.37171 7.08984 2.10938 7.35218 2.10938 7.67578C2.10938 7.99939 2.37171 8.26172 2.69531 8.26172Z" fill="#00D2B4"/>
<path d="M12.0703 8.65236H13.4375V10.0195C13.4375 10.3431 13.6998 10.6055 14.0234 10.6055H15.9765C16.3001 10.6055 16.5625 10.3431 16.5625 10.0195V8.65236H17.9297C18.2532 8.65236 18.5156 8.39004 18.5156 8.06643V6.11332C18.5156 5.78971 18.2532 5.52738 17.9297 5.52738H16.5625V4.16016C16.5625 3.83654 16.3001 3.57422 15.9766 3.57422H14.0235C13.6999 3.57422 13.4375 3.83654 13.4375 4.16016V5.52732H12.0703C11.7467 5.52732 11.4844 5.78965 11.4844 6.11326V8.06637C11.4844 8.38998 11.7467 8.65236 12.0703 8.65236ZM12.6562 6.6992H14.0234C14.347 6.6992 14.6094 6.43688 14.6094 6.11326V4.74609H15.3906V6.11326C15.3906 6.43688 15.653 6.6992 15.9765 6.6992H17.3438V7.48043H15.9766C15.653 7.48043 15.3906 7.74275 15.3906 8.06637V9.43359H14.6094V8.06643C14.6094 7.74281 14.3471 7.48049 14.0235 7.48049H12.6562V6.6992Z" fill="#00D2B4"/>
<path d="M9.14062 18.2227H11.4844C11.808 18.2227 12.0703 17.9603 12.0703 17.6367V15.293C12.0703 14.9694 11.808 14.707 11.4844 14.707H9.14062C8.81701 14.707 8.55469 14.9694 8.55469 15.293V17.6367C8.55469 17.9603 8.81701 18.2227 9.14062 18.2227Z" fill="#00D2B4"/>
<path d="M13.8281 18.2227H16.1719C16.4954 18.2227 16.7578 17.9603 16.7578 17.6367V15.293C16.7578 14.9694 16.4954 14.707 16.1719 14.707H13.8281C13.5045 14.707 13.2422 14.9694 13.2422 15.293V17.6367C13.2422 17.9603 13.5045 18.2227 13.8281 18.2227Z" fill="#00D2B4"/>
<path d="M18.5156 18.2227H20.8594C21.1829 18.2227 21.4453 17.9603 21.4453 17.6367V15.293C21.4453 14.9694 21.1829 14.707 20.8594 14.707H18.5156C18.1921 14.707 17.9297 14.9694 17.9297 15.293V17.6367C17.9297 17.9603 18.1921 18.2227 18.5156 18.2227Z" fill="#00D2B4"/>
<path d="M28.4766 11.1914H24.375V7.08984C24.375 6.76623 24.1126 6.50391 23.7891 6.50391H21.4184C21.1213 3.22354 18.3564 0.644531 15 0.644531C11.6436 0.644531 8.87865 3.22354 8.58158 6.50391H6.21094C5.88732 6.50391 5.625 6.76623 5.625 7.08984V11.1914H1.52344C1.19982 11.1914 0.9375 11.4537 0.9375 11.7773V28.7695C0.9375 29.0931 1.19982 29.3555 1.52344 29.3555H28.4766C28.8001 29.3555 29.0625 29.0931 29.0625 28.7695V11.7773C29.0625 11.4537 28.8001 11.1914 28.4766 11.1914ZM18.5156 26.4258H23.2031V28.1836H18.5156V26.4258ZM15 1.81641C17.9078 1.81641 20.2734 4.18207 20.2734 7.08984C20.2734 9.99762 17.9078 12.3633 15 12.3633C12.0922 12.3633 9.72656 9.99762 9.72656 7.08984C9.72656 4.18207 12.0922 1.81641 15 1.81641ZM6.79688 7.67578H8.58158C8.87865 10.9562 11.6436 13.5352 15 13.5352C18.3564 13.5352 21.1213 10.9562 21.4184 7.67578H23.2031V25.2539H18.5156V20.5664C18.5156 20.2429 18.2532 19.9805 17.9297 19.9805H12.0703C11.7467 19.9805 11.4844 20.2429 11.4844 20.5664V25.2539H6.79688C6.79688 24.4161 6.79688 8.50348 6.79688 7.67578ZM2.10938 25.8398H3.86719C4.1908 25.8398 4.45312 25.5775 4.45312 25.2539C4.45312 24.9304 4.1908 24.668 3.86719 24.668H2.10938V22.9102H3.86719C4.1908 22.9102 4.45312 22.6478 4.45312 22.3242C4.45312 22.0007 4.1908 21.7383 3.86719 21.7383H2.10938V19.9805H3.86719C4.1908 19.9805 4.45312 19.7181 4.45312 19.3945C4.45312 19.071 4.1908 18.8086 3.86719 18.8086H2.10938V17.0508H3.86719C4.1908 17.0508 4.45312 16.7884 4.45312 16.4648C4.45312 16.1413 4.1908 15.8789 3.86719 15.8789H2.10938V12.3633H5.625V28.1836H2.10938V25.8398ZM6.79688 26.4258H11.4844V28.1836H6.79688V26.4258ZM24.375 28.1836V12.3633H27.8906V15.8789H26.1328C25.8093 15.8789 25.5469 16.1413 25.5469 16.4648C25.5469 16.7884 25.8093 17.0508 26.1328 17.0508H27.8906V18.8086H26.1328C25.8093 18.8086 25.5469 19.071 25.5469 19.3945C25.5469 19.7181 25.8093 19.9805 26.1328 19.9805H27.8906V21.7383H26.1328C25.8093 21.7383 25.5469 22.0007 25.5469 22.3242C25.5469 22.6478 25.8093 22.9102 26.1328 22.9102H27.8906V24.668H26.1328C25.8093 24.668 25.5469 24.9304 25.5469 25.2539C25.5469 25.5775 25.8093 25.8398 26.1328 25.8398H27.8906V28.1836H24.375Z" fill="#00D2B4"/>
</g>
<defs>
<clipPath id="clip0_687_21857">
<rect width="30" height="30" fill="white"/>
</clipPath>
</defs>
</svg>
