<svg width="224" height="223" viewBox="0 0 224 223" fill="none" xmlns="http://www.w3.org/2000/svg">
<path d="M188.378 20.2026H35.6229C20.4868 20.2026 8.16602 32.5234 8.16602 47.6595V141.18C8.16602 156.323 20.4868 168.637 35.6229 168.637H53.4629C56.9264 168.637 59.7348 165.829 59.7348 162.365C59.7348 158.902 56.9264 156.093 53.4629 156.093H35.6229C27.3998 156.093 20.7098 149.403 20.7098 141.18V47.6665C20.7098 45.1229 21.4066 42.7674 22.5356 40.6768L95.3102 99.0889C100.23 103.061 106.119 105.047 112.014 105.047C117.896 105.047 123.778 103.061 128.691 99.0959L201.479 40.6699C202.594 42.7675 203.291 45.1229 203.291 47.6665V141.187C203.291 149.41 196.601 156.1 188.378 156.1H170.538C167.074 156.1 164.266 158.909 164.266 162.372C164.266 165.836 167.074 168.644 170.538 168.644H188.378C203.514 168.644 215.835 156.323 215.835 141.187V47.6665C215.835 32.5234 203.514 20.2026 188.378 20.2026ZM120.809 89.3257C115.624 93.5209 108.37 93.5348 103.171 89.3117L33.0375 33.0182C33.8807 32.8649 34.7379 32.7534 35.6229 32.7534H188.378C189.263 32.7534 190.12 32.8649 190.963 33.0182L120.809 89.3257Z" fill="#294292"/>
<path d="M112 121.925C89.707 121.925 71.5674 140.065 71.5674 162.358C71.5674 184.651 89.707 202.798 112 202.798C134.293 202.798 152.433 184.651 152.433 162.358C152.433 140.065 134.293 121.925 112 121.925ZM112 190.247C96.62 190.247 84.1111 177.738 84.1111 162.358C84.1111 146.985 96.62 134.476 112 134.476C127.38 134.476 139.889 146.985 139.889 162.358C139.889 177.738 127.38 190.247 112 190.247Z" fill="#06EAC9"/>
<path d="M119.687 151.661L107.951 161.111L105.317 157.752C103.191 155.02 99.2332 154.56 96.5154 156.692C93.7906 158.832 93.3098 162.769 95.4492 165.501L102 173.856C103.031 175.173 104.557 176.031 106.223 176.219C106.46 176.247 106.697 176.261 106.934 176.261C108.362 176.261 109.749 175.773 110.864 174.874L127.547 161.438C130.244 159.257 130.669 155.313 128.502 152.616C126.328 149.912 122.383 149.501 119.687 151.661Z" fill="#06EAC9"/>
</svg>
