<svg width="20" height="20" viewBox="0 0 20 20" fill="none" xmlns="http://www.w3.org/2000/svg">
<path d="M17.9069 10.8246C18.4413 9.67433 18.7285 8.42472 18.75 7.15651C18.7514 6.13985 18.4707 5.14274 17.939 4.27621C17.4073 3.40967 16.6455 2.70771 15.7384 2.24849C14.8314 1.78927 13.8147 1.59081 12.8016 1.67521C11.7884 1.75961 10.8186 2.12355 10 2.72651C9.18145 2.12355 8.2116 1.75961 7.19845 1.67521C6.1853 1.59081 5.16861 1.78927 4.26157 2.24849C3.35453 2.70771 2.59275 3.40967 2.06104 4.27621C1.52934 5.14274 1.24857 6.13985 1.25001 7.15651C1.25001 13.1821 8.33876 18.344 10 18.344C10.4496 18.3132 10.8843 18.1704 11.2644 17.9284L11.2688 17.9315C12.0287 18.3676 12.8899 18.5962 13.766 18.5942C14.6422 18.5923 15.5024 18.3599 16.2604 17.9205C17.0184 17.481 17.6474 16.8499 18.0844 16.0905C18.5214 15.3311 18.7509 14.4702 18.75 13.594C18.7534 12.6101 18.4617 11.6478 17.9125 10.8315L17.9069 10.8246ZM13.75 17.344C13.0165 17.3462 12.2987 17.1309 11.6875 16.7253C11.2336 16.4286 10.8494 16.0371 10.5614 15.5776C10.2734 15.1182 10.0885 14.6017 10.0194 14.0639C9.95026 13.5261 9.99863 12.9796 10.1611 12.4623C10.3236 11.945 10.5964 11.469 10.9606 11.0673C11.3248 10.6656 11.7718 10.3476 12.2708 10.1353C12.7698 9.92305 13.3088 9.82151 13.8509 9.83771C14.3929 9.85392 14.9249 9.98748 15.4103 10.2292C15.8957 10.4709 16.3229 10.815 16.6625 11.2378C16.6978 11.2785 16.7292 11.3224 16.7563 11.369C17.2421 12.0087 17.5035 12.7907 17.5 13.594C17.5 14.5886 17.1049 15.5424 16.4017 16.2457C15.6984 16.9489 14.7446 17.344 13.75 17.344Z" fill="white"/>
<path d="M15.3125 12.9688H14.375V12.0312C14.375 11.8655 14.3092 11.7065 14.1919 11.5893C14.0747 11.4721 13.9158 11.4062 13.75 11.4062C13.5842 11.4062 13.4253 11.4721 13.3081 11.5893C13.1908 11.7065 13.125 11.8655 13.125 12.0312V12.9688H12.1875C12.0217 12.9688 11.8628 13.0346 11.7456 13.1518C11.6283 13.269 11.5625 13.428 11.5625 13.5938C11.5625 13.7595 11.6283 13.9185 11.7456 14.0357C11.8628 14.1529 12.0217 14.2188 12.1875 14.2188H13.125V15.1562C13.124 15.1711 13.1261 15.186 13.1313 15.2C13.1405 15.3576 13.2098 15.5057 13.3249 15.6138C13.44 15.7219 13.5921 15.7818 13.75 15.7812C13.9158 15.7812 14.0747 15.7154 14.1919 15.5982C14.3092 15.481 14.375 15.322 14.375 15.1562V14.2188H15.3125C15.4783 14.2188 15.6372 14.1529 15.7544 14.0357C15.8717 13.9185 15.9375 13.7595 15.9375 13.5938C15.9375 13.428 15.8717 13.269 15.7544 13.1518C15.6372 13.0346 15.4783 12.9688 15.3125 12.9688Z" fill="white"/>
</svg>
