<svg width="30" height="30" viewBox="0 0 30 30" fill="none" xmlns="http://www.w3.org/2000/svg">
<path d="M23.4998 7.63281H2.80436C1.25555 7.63281 0 8.88836 0 10.4371V13.5225C0 13.7026 0.146016 13.8486 0.326074 13.8486H25.978C26.1581 13.8486 26.3041 13.7026 26.3041 13.5225V10.4371C26.3041 8.88836 25.0485 7.63281 23.4998 7.63281Z" fill="#00D2B4"/>
<path d="M25.9781 15.8047H0.326074C0.146016 15.8047 0 15.9507 0 16.1308V23.2584C0 24.8072 1.25555 26.0628 2.80436 26.0628H23.4998C25.0486 26.0628 26.3041 24.8072 26.3041 23.2584V16.1308C26.3041 15.9506 26.1581 15.8047 25.9781 15.8047ZM6.36891 23.0195H4.02176C3.48152 23.0195 3.04348 22.5815 3.04348 22.0412C3.04348 21.501 3.48146 21.0629 4.02176 21.0629H6.36891C6.90914 21.0629 7.34719 21.5009 7.34719 22.0412C7.34719 22.5815 6.9092 23.0195 6.36891 23.0195ZM15.1044 23.0195H9.71367C9.17344 23.0195 8.73539 22.5815 8.73539 22.0412C8.73539 21.501 9.17338 21.0629 9.71367 21.0629H15.1044C15.6446 21.0629 16.0827 21.5009 16.0827 22.0412C16.0827 22.5815 15.6446 23.0195 15.1044 23.0195Z" fill="#00D2B4"/>
<path d="M27.1955 3.9375H6.49991C5.53663 3.9375 4.68555 4.42582 4.18059 5.16791C4.03364 5.38377 4.19032 5.67633 4.45141 5.67633H23.4997C26.129 5.67633 28.2605 7.80785 28.2605 10.4372V21.6122C28.2605 21.8734 28.5531 22.03 28.7689 21.8831C29.5113 21.3782 29.9999 20.5269 29.9999 19.5635V6.74186C29.9999 5.19311 28.7443 3.9375 27.1955 3.9375Z" fill="#00D2B4"/>
</svg>
