<svg width="24" height="24" viewBox="0 0 24 24" fill="none" xmlns="http://www.w3.org/2000/svg">
<path d="M22.3125 20.25H20.9062V3.28124C20.9062 2.50583 20.2754 1.87499 19.5 1.87499H18.0937V1.40624C18.0937 0.630841 17.4629 0 16.6875 0H16.6874C15.912 0 15.2812 0.630841 15.2812 1.40624V1.87499H12.4688H12.4687V1.40624C12.4687 0.630841 11.8379 0 11.0625 0H11.0625C10.2871 0 9.65622 0.630841 9.65622 1.40624V1.87499H6.84377H6.84373V1.40624C6.84373 0.630841 6.21293 0 5.43753 0C4.66213 0 4.03124 0.630841 4.03124 1.40624V1.87499H2.62499C1.84959 1.87499 1.21875 2.50583 1.21875 3.28124V21.6563C1.21875 22.9486 2.27015 24 3.56249 24H20.4375C21.7299 24 22.7813 22.9486 22.7813 21.6563V20.7188C22.7813 20.4599 22.5714 20.25 22.3125 20.25ZM16.2187 1.40624C16.2187 1.14778 16.429 0.937496 16.6875 0.937496C16.946 0.937496 17.1562 1.14778 17.1562 1.40624V3.28124C17.1562 3.53971 16.9459 3.74999 16.6874 3.74999C16.429 3.74999 16.2187 3.53971 16.2187 3.28124V1.40624ZM10.5937 1.40624C10.5937 1.14778 10.804 0.937496 11.0625 0.937496C11.321 0.937496 11.5312 1.14778 11.5312 1.40624V3.28124C11.5312 3.53971 11.3209 3.74999 11.0625 3.74999C10.804 3.74999 10.5937 3.53971 10.5937 3.28124V1.40624ZM4.96874 1.40624C4.96874 1.14778 5.17902 0.937496 5.43753 0.937496C5.696 0.937496 5.90623 1.14778 5.90623 1.40624V3.28124C5.90623 3.53971 5.69595 3.74999 5.43748 3.74999C5.17902 3.74999 4.96874 3.53971 4.96874 3.28124V1.40624ZM4.96874 20.7188V21.6563C4.96874 22.4317 4.33789 23.0625 3.56249 23.0625C2.78709 23.0625 2.15625 22.4317 2.15625 21.6563V6.56252H2.62504C2.88388 6.56252 3.09379 6.35262 3.09379 6.09377C3.09379 5.83493 2.88388 5.62502 2.62504 5.62502H2.15625V3.28124C2.15625 3.02277 2.36653 2.81249 2.62499 2.81249H4.03124V3.28124C4.03124 4.05664 4.66208 4.68748 5.43753 4.68748C6.21293 4.68748 6.84373 4.05664 6.84373 3.28124V2.81249H6.84377H9.65622V3.28124C9.65622 4.05664 10.2871 4.68748 11.0625 4.68748C11.8379 4.68748 12.4687 4.05664 12.4687 3.28124V2.81249H12.4688H15.2812V3.28124C15.2812 4.05664 15.912 4.68748 16.6875 4.68748C17.4629 4.68748 18.0937 4.05664 18.0937 3.28124V2.81249H19.5C19.7584 2.81249 19.9687 3.02277 19.9687 3.28124V5.62502H6.84377C6.58493 5.62502 6.37503 5.83493 6.37503 6.09377C6.37503 6.35262 6.58493 6.56252 6.84377 6.56252H19.9687V20.25H5.43748C5.17864 20.25 4.96874 20.4599 4.96874 20.7188ZM21.8438 21.6563C21.8438 22.4317 21.2129 23.0625 20.4375 23.0625H5.43641C5.73125 22.6705 5.90623 22.1834 5.90623 21.6563V21.1875H21.8438V21.6563Z" fill="#434342"/>
<path d="M8.7187 14.9297H9.53906V15.75C9.53906 16.2669 9.95962 16.6875 10.4765 16.6875H11.6484C12.1654 16.6875 12.5859 16.2669 12.5859 15.75V14.9297H13.4062C13.9231 14.9297 14.3437 14.5091 14.3437 13.9922V12.8203C14.3437 12.3034 13.9231 11.8828 13.4062 11.8828H12.5859V11.0625C12.5859 10.5456 12.1654 10.125 11.6484 10.125H10.4765C9.95962 10.125 9.53906 10.5456 9.53906 11.0625V11.8828H8.7187C8.20181 11.8828 7.78125 12.3034 7.78125 12.8203V13.9922C7.78125 14.5091 8.20181 14.9297 8.7187 14.9297ZM10.0078 12.8203C10.2667 12.8203 10.4766 12.6104 10.4766 12.3516L10.4765 11.0625H11.6484V12.3516C11.6484 12.6104 11.8583 12.8203 12.1172 12.8203H13.4062L13.4062 13.9922H12.1172C11.8583 13.9922 11.6484 14.2021 11.6484 14.4609V15.75H10.4766V14.4609C10.4766 14.2021 10.2667 13.9922 10.0078 13.9922L8.71875 13.9923L8.7187 12.8203H10.0078Z" fill="#434342"/>
<path d="M11.0625 19.0313C14.1641 19.0313 16.6875 16.5079 16.6875 13.4063C16.6875 10.3046 14.1641 7.78125 11.0625 7.78125C7.96088 7.78125 5.4375 10.3046 5.4375 13.4063C5.4375 16.5079 7.96088 19.0313 11.0625 19.0313ZM11.0625 8.71875C13.6472 8.71875 15.75 10.8215 15.75 13.4063C15.75 15.991 13.6472 18.0938 11.0625 18.0938C8.47777 18.0938 6.375 15.991 6.375 13.4063C6.375 10.8215 8.47777 8.71875 11.0625 8.71875Z" fill="#434342"/>
<path d="M4.73452 5.625H4.73419C4.47534 5.625 4.26562 5.83491 4.26562 6.09375C4.26562 6.35259 4.47562 6.5625 4.73452 6.5625C4.99341 6.5625 5.20327 6.35259 5.20327 6.09375C5.20327 5.83491 4.99336 5.625 4.73452 5.625Z" fill="#434342"/>
</svg>
