<svg width="25" height="26" viewBox="0 0 25 26" fill="none" xmlns="http://www.w3.org/2000/svg">
<g clip-path="url(#clip0_1064_19195)">
<path fill-rule="evenodd" clip-rule="evenodd" d="M12.36 25.6238C19.1862 25.6238 24.72 20.09 24.72 13.2638C24.72 6.43757 19.1862 0.903809 12.36 0.903809C5.53376 0.903809 0 6.43757 0 13.2638C0 20.09 5.53376 25.6238 12.36 25.6238ZM7.06988 10.6733H9.57988V18.7333H7.06988V10.6733ZM8.32988 6.67334C8.61667 6.67334 8.89701 6.75838 9.13546 6.91771C9.37391 7.07704 9.55976 7.3035 9.66951 7.56845C9.77925 7.8334 9.80797 8.12495 9.75202 8.40622C9.69607 8.68749 9.55797 8.94586 9.35519 9.14865C9.1524 9.35143 8.89404 9.48953 8.61276 9.54548C8.33149 9.60143 8.03994 9.57271 7.77499 9.46297C7.51004 9.35322 7.28358 9.16737 7.12425 8.92892C6.96492 8.69046 6.87988 8.41012 6.87988 8.12334C6.87988 7.73878 7.03265 7.36996 7.30458 7.09803C7.57651 6.82611 7.94532 6.67334 8.32988 6.67334ZM13.5602 10.6733H11.1602V18.7533H13.6602V14.7533C13.6602 13.6833 13.8602 12.6833 15.1602 12.6833C16.4602 12.6833 16.4602 13.8833 16.4602 14.8233V18.7333H19.0002V14.3133C19.0002 12.1433 18.5402 10.4733 16.0002 10.4733C15.5119 10.4431 15.0248 10.5497 14.5938 10.7811C14.1627 11.0125 13.8048 11.3596 13.5602 11.7833V10.6733Z" fill="white"/>
</g>
<defs>
<clipPath id="clip0_1064_19195">
<rect width="24.72" height="24.72" fill="white" transform="translate(0 0.903809)"/>
</clipPath>
</defs>
</svg>
