<svg width="26" height="26" viewBox="0 0 26 26" fill="none" xmlns="http://www.w3.org/2000/svg">
<g clip-path="url(#clip0_1064_19200)">
<path fill-rule="evenodd" clip-rule="evenodd" d="M15.0625 1.0625C21.8 2.15977 26.3723 8.51108 25.275 15.2486C24.1777 21.986 17.8264 26.5583 11.089 25.4611C4.35149 24.3638 -0.220802 18.0125 0.876465 11.275C1.97373 4.53752 8.32504 -0.0347667 15.0625 1.0625ZM16.2599 8.67392H14.7199C14.0499 8.69392 13.5999 8.90392 13.5499 9.70392V11.5539H16.1299C16.0099 12.4539 15.8999 13.3139 15.7899 14.1839H13.5699V20.8239H10.8499V14.2639H8.62988V11.6539H10.8799V11.4539V9.87392C10.8817 9.53906 10.9084 9.2048 10.9599 8.87392C11.0093 8.47868 11.1384 8.0976 11.3395 7.7538C11.5407 7.41 11.8096 7.11065 12.1299 6.87392C12.7171 6.46799 13.4161 6.25481 14.1299 6.26392C14.4365 6.23059 14.7432 6.2417 15.0499 6.25281C15.2032 6.25837 15.3565 6.26392 15.5099 6.26392C15.6246 6.26851 15.7415 6.28363 15.8575 6.29865C15.9943 6.31636 16.13 6.33392 16.2599 6.33392V8.67392Z" fill="white"/>
</g>
<defs>
<clipPath id="clip0_1064_19200">
<rect width="24.72" height="24.72" fill="white" transform="translate(0.719727 0.903809)"/>
</clipPath>
</defs>
</svg>
