<svg width="30" height="30" viewBox="0 0 30 30" fill="none" xmlns="http://www.w3.org/2000/svg">
<path d="M16.9727 23.2621C16.9728 21.94 17.3215 20.6412 17.9834 19.4967C18.6454 18.3522 19.5973 17.4024 20.7432 16.743C21.8891 16.0835 23.1886 15.7377 24.5108 15.7403C25.8329 15.743 27.131 16.0941 28.2742 16.7582C28.4629 16.4512 28.6398 16.1373 28.8051 15.8166C29.3699 14.8012 29.7496 13.2596 29.7473 13.2602C29.9381 12.4237 30.017 11.5656 29.9816 10.7084C29.7396 5.87677 25.5285 1.47169 21.1697 1.22032C19.4875 1.14064 17.9523 1.70548 16.6551 2.72736L14.9998 4.13829L13.3445 2.72911C12.869 2.35135 12.3484 2.03408 11.7947 1.78458C10.865 1.36543 9.84913 1.17266 8.83047 1.22208C4.47227 1.47345 0.260549 5.87853 0.0179705 10.7102C-0.0173487 11.5674 0.0614669 12.4255 0.252346 13.2619C0.545314 14.4408 1.19395 15.8172 1.19453 15.8184C2.48945 18.3432 4.60176 20.4502 6.48379 22.1647C8.45254 23.9559 10.0023 25.1371 12.5055 27.0121L14.9998 28.7863L17.4947 27.0121L17.8328 26.7578C17.2659 25.68 16.9706 24.48 16.9727 23.2621Z" fill="#00D2B4"/>
<path d="M24.4742 17.7344C23.3814 17.7344 22.313 18.0584 21.4043 18.6655C20.4956 19.2727 19.7874 20.1356 19.3691 21.1452C18.9508 22.1549 18.8412 23.2659 19.0543 24.3378C19.2674 25.4097 19.7935 26.3943 20.5661 27.1672C21.3388 27.9401 22.3233 28.4665 23.3951 28.6799C24.4669 28.8934 25.5779 28.7842 26.5877 28.3662C27.5975 27.9482 28.4606 27.2402 29.068 26.3317C29.6755 25.4232 29.9999 24.355 30.0002 23.2621C30.0004 22.5363 29.8577 21.8175 29.5801 21.1469C29.3025 20.4762 28.8955 19.8668 28.3823 19.3535C27.8691 18.8402 27.2599 18.433 26.5893 18.1552C25.9188 17.8774 25.2001 17.7344 24.4742 17.7344ZM28.0291 24.0238C27.9523 24.3232 27.6459 24.5723 27.3424 24.6127C27.2527 24.6291 26.4805 24.652 25.9074 24.6713C25.8898 25.2449 25.867 26.0189 25.8488 26.1068C25.8084 26.4104 25.5594 26.7168 25.26 26.7936C24.7572 26.9131 24.2334 26.9131 23.7307 26.7936C23.4313 26.7168 23.1816 26.4104 23.1447 26.1068C23.1283 26.0172 23.1055 25.2449 23.0861 24.6713C22.5131 24.6543 21.6957 24.6314 21.6055 24.6127C21.302 24.5723 20.9955 24.3232 20.9193 24.0238C20.799 23.5212 20.799 22.9972 20.9193 22.4945C20.9955 22.1951 21.302 21.9455 21.6055 21.9057C21.6957 21.8893 22.5131 21.8664 23.0861 21.8471C23.1037 21.2734 23.1266 20.4994 23.1447 20.4115C23.1846 20.1086 23.4342 19.8021 23.7307 19.7254C24.2334 19.6059 24.7572 19.6059 25.26 19.7254C25.5594 19.8021 25.8084 20.1086 25.8488 20.4115C25.8652 20.5018 25.8881 21.2734 25.9074 21.8471C26.4805 21.8646 27.2551 21.8875 27.3424 21.9057C27.6459 21.9455 27.9523 22.1951 28.0291 22.4945C28.1486 22.9973 28.1486 23.5211 28.0291 24.0238Z" fill="#00D2B4"/>
</svg>
