<svg width="16" height="22" viewBox="0 0 16 22" fill="none" xmlns="http://www.w3.org/2000/svg">
<path d="M0 0V22H16V0H12.11C11.8355 0.3045 11.4415 0.5 11 0.5H5C4.5585 0.5 4.165 0.3045 3.89 0H0ZM4.4 17.8L2.9 19.8C2.813 19.916 2.68 19.9885 2.5355 19.9985C2.524 19.9995 2.512 20 2.5 20C2.368 20 2.2405 19.948 2.1465 19.8535L1.6465 19.3535C1.451 19.158 1.451 18.842 1.6465 18.6465C1.842 18.451 2.158 18.451 2.3535 18.6465L2.446 18.739L3.6005 17.2005C3.7665 16.9795 4.0795 16.935 4.3005 17.1005C4.5215 17.266 4.566 17.5795 4.4005 17.8H4.4ZM4.4 13.8L2.9 15.8C2.813 15.916 2.68 15.9885 2.5355 15.9985C2.524 15.9995 2.512 16 2.5 16C2.368 16 2.2405 15.948 2.1465 15.8535L1.6465 15.3535C1.451 15.158 1.451 14.842 1.6465 14.6465C1.842 14.451 2.158 14.451 2.3535 14.6465L2.446 14.739L3.6005 13.2005C3.7665 12.9795 4.0795 12.935 4.3005 13.1005C4.5215 13.266 4.566 13.5795 4.4005 13.8H4.4ZM14 19H6C5.724 19 5.5 18.7765 5.5 18.5C5.5 18.2235 5.724 18 6 18H14C14.2765 18 14.5 18.2235 14.5 18.5C14.5 18.7765 14.2765 19 14 19ZM14 15H6C5.724 15 5.5 14.7765 5.5 14.5C5.5 14.2235 5.724 14 6 14H14C14.2765 14 14.5 14.2235 14.5 14.5C14.5 14.7765 14.2765 15 14 15ZM14 10C14.2765 10 14.5 10.2235 14.5 10.5C14.5 10.7765 14.2765 11 14 11H6C5.724 11 5.5 10.7765 5.5 10.5C5.5 10.2235 5.724 10 6 10H14ZM5 4.5C5 3.9485 5.4485 3.5 6 3.5H6.5V3C6.5 2.4485 6.9485 2 7.5 2H8.5C9.0515 2 9.5 2.4485 9.5 3V3.5H10C10.5515 3.5 11 3.9485 11 4.5V5.5C11 6.0515 10.5515 6.5 10 6.5H9.5V7C9.5 7.5515 9.0515 8 8.5 8H7.5C6.9485 8 6.5 7.5515 6.5 7V6.5H6C5.4485 6.5 5 6.0515 5 5.5V4.5ZM4.3 9.1C4.521 9.2655 4.5655 9.579 4.4 9.7995L2.9 11.7995C2.813 11.9155 2.68 11.988 2.5355 11.998C2.524 11.999 2.512 11.9995 2.5 11.9995C2.368 11.9995 2.2405 11.9475 2.1465 11.853L1.6465 11.353C1.451 11.1575 1.451 10.8415 1.6465 10.646C1.842 10.4505 2.158 10.4505 2.3535 10.646L2.446 10.7385L3.6005 9.2C3.7665 8.9795 4.079 8.9345 4.3 9.1Z" fill="#00D2B4"/>
</svg>
