<svg width="28" height="28" viewBox="0 0 28 28" fill="none" xmlns="http://www.w3.org/2000/svg">
<path d="M28 9.45081C28.0023 7.82415 27.5531 6.22878 26.7023 4.84232C25.8516 3.45586 24.6328 2.33273 23.1815 1.59798C21.7302 0.863229 20.1035 0.545692 18.4825 0.680727C16.8615 0.815762 15.3097 1.39807 14 2.36281C12.6903 1.39807 11.1386 0.815762 9.51752 0.680727C7.89648 0.545692 6.26977 0.863229 4.81851 1.59798C3.36725 2.33273 2.1484 3.45586 1.29767 4.84232C0.446937 6.22878 -0.00228917 7.82415 8.77201e-06 9.45081C8.77201e-06 19.0918 11.342 27.3508 14 27.3508C14.7204 27.3015 15.4169 27.0725 16.026 26.6848C17.589 27.5828 19.4097 27.926 21.1923 27.6588C22.975 27.3915 24.6149 26.5294 25.8459 25.2125C27.0768 23.8957 27.8264 22.2014 27.9729 20.4047C28.1194 18.6081 27.6543 16.8147 26.653 15.3158C27.5065 13.4763 27.9654 11.4784 28 9.45081ZM2.00001 9.45081C1.99787 8.13736 2.37678 6.85149 3.09081 5.74908C3.80484 4.64667 4.82332 3.77505 6.02279 3.23988C7.22227 2.70471 8.55123 2.52897 9.84859 2.73396C11.1459 2.93896 12.356 3.51589 13.332 4.39481C13.5155 4.55953 13.7534 4.65065 14 4.65065C14.2466 4.65065 14.4845 4.55953 14.668 4.39481C15.644 3.51589 16.8541 2.93896 18.1514 2.73396C19.4488 2.52897 20.7777 2.70471 21.9772 3.23988C23.1767 3.77505 24.1952 4.64667 24.9092 5.74908C25.6232 6.85149 26.0021 8.13736 26 9.45081C25.983 10.8944 25.7066 12.3231 25.184 13.6688C23.6241 12.3324 21.6094 11.6482 19.5582 11.7581C17.5071 11.868 15.577 12.7636 14.1688 14.2591C12.7607 15.7545 11.9825 17.7348 11.9959 19.7889C12.0094 21.8429 12.8134 23.8129 14.241 25.2898C14.1628 25.3176 14.0821 25.3381 14 25.3508C12.2 25.2688 2.00001 17.8618 2.00001 9.45081ZM20 25.7508C18.9792 25.7526 17.9747 25.4939 17.0817 24.9992C16.1888 24.5045 15.4368 23.7902 14.8969 22.9237C14.3571 22.0573 14.0472 21.0675 13.9967 20.0478C13.9462 19.0282 14.1566 18.0126 14.6081 17.097C15.0596 16.1815 15.7373 15.3962 16.577 14.8157C17.4167 14.2351 18.3906 13.8783 19.4066 13.7792C20.4226 13.68 21.4472 13.8418 22.3833 14.2491C23.3193 14.6564 24.136 15.2958 24.756 16.1068C25.439 16.994 25.8597 18.0548 25.9703 19.169C26.0809 20.2832 25.8771 21.406 25.3819 22.4102C24.8866 23.4143 24.1199 24.2596 23.1686 24.8501C22.2174 25.4406 21.1196 25.7526 20 25.7508ZM23.5 19.7508C23.5 20.016 23.3947 20.2704 23.2071 20.4579C23.0196 20.6455 22.7652 20.7508 22.5 20.7508H21V22.2508C21 22.516 20.8947 22.7704 20.7071 22.9579C20.5196 23.1455 20.2652 23.2508 20 23.2508C19.7348 23.2508 19.4804 23.1455 19.2929 22.9579C19.1054 22.7704 19 22.516 19 22.2508V20.7508H17.5C17.2348 20.7508 16.9804 20.6455 16.7929 20.4579C16.6054 20.2704 16.5 20.016 16.5 19.7508C16.5 19.4856 16.6054 19.2312 16.7929 19.0437C16.9804 18.8562 17.2348 18.7508 17.5 18.7508H19V17.2508C19 16.9856 19.1054 16.7312 19.2929 16.5437C19.4804 16.3562 19.7348 16.2508 20 16.2508C20.2652 16.2508 20.5196 16.3562 20.7071 16.5437C20.8947 16.7312 21 16.9856 21 17.2508V18.7508H22.5C22.7652 18.7508 23.0196 18.8562 23.2071 19.0437C23.3947 19.2312 23.5 19.4856 23.5 19.7508Z" fill="#00D2B4"/>
</svg>
