<svg width="121" height="120" viewBox="0 0 121 120" fill="none" xmlns="http://www.w3.org/2000/svg">
<path d="M117.401 49.4102L95.6401 10.9095C93.8792 7.79437 90.5626 5.85938 86.9844 5.85938C83.4062 5.85938 80.0895 7.79437 78.3284 10.9097L74.8456 17.0716C73.1623 16.2574 71.4223 15.574 69.6406 15.0237V11.0156C69.6406 4.92609 64.7155 0 58.625 0C52.5509 0 47.6094 4.94156 47.6094 11.0156V15.0216C32.4216 19.7304 21.3594 33.9098 21.3594 50.625V75.3445C21.3594 80.9142 18.5945 86.2132 13.8521 89.3728C11.5564 90.9007 10.1094 93.5067 10.1094 96.3656C10.1094 100.997 13.8777 104.766 18.5094 104.766H40.4063C41.9605 113.415 49.5355 120 58.625 120C67.7145 120 75.2895 113.415 76.8437 104.766H98.7406C103.372 104.766 107.141 100.997 107.141 96.3656C107.141 93.5588 105.737 90.9298 103.4 89.3735C98.6977 86.2404 95.8906 80.9958 95.8906 75.3445V63.5156H109.171C114.384 63.5156 118.625 59.2748 118.625 54.0621C118.625 52.4353 118.202 50.8266 117.401 49.4102ZM54.6406 11.0156C54.6406 8.81859 56.428 7.03125 58.625 7.03125C60.8286 7.03125 62.6094 8.8118 62.6094 11.0156V13.5741C59.9839 13.293 57.3512 13.2832 54.6406 13.5727V11.0156ZM58.625 112.969C53.4327 112.969 49.0362 109.504 47.6209 104.766H69.6291C68.2137 109.504 63.8173 112.969 58.625 112.969ZM99.5019 95.2256C99.8898 95.4844 100.109 95.914 100.109 96.3656C100.109 97.1203 99.4953 97.7344 98.7406 97.7344H18.5094C17.4666 97.7344 16.8221 96.6164 17.2993 95.722C17.4071 95.5209 17.5625 95.3494 17.7491 95.2252C24.373 90.813 28.3906 83.355 28.3906 75.3445V50.625C28.3906 33.9537 41.9537 20.3906 58.625 20.3906C63.0552 20.3906 67.4035 21.3598 71.3769 23.2087L56.5674 49.4102C55.767 50.8266 55.3438 52.4351 55.3438 54.0621C55.3438 59.2748 59.5845 63.5156 64.7973 63.5156H88.8594V75.3445C88.8594 83.3529 92.8374 90.7847 99.5019 95.2256ZM109.171 56.4844H64.7973C62.9438 56.4844 61.7802 54.4779 62.6886 52.8701L84.4496 14.3695C85.5624 12.4017 88.4056 12.3998 89.5191 14.3693L111.28 52.8701C112.188 54.4777 111.025 56.4844 109.171 56.4844Z" fill="#00D2B4"/>
<path d="M86.9844 39.1406C88.9259 39.1406 90.5 37.5666 90.5 35.625V26.25C90.5 24.3084 88.9259 22.7344 86.9844 22.7344C85.0428 22.7344 83.4688 24.3084 83.4688 26.25V35.625C83.4688 37.5666 85.0428 39.1406 86.9844 39.1406Z" fill="#00D2B4"/>
<path d="M86.9846 50.391C88.9268 50.391 90.5014 48.8165 90.5014 46.8742C90.5014 44.9319 88.9268 43.3574 86.9846 43.3574C85.0423 43.3574 83.4678 44.9319 83.4678 46.8742C83.4678 48.8165 85.0423 50.391 86.9846 50.391Z" fill="#00D2B4"/>
<path d="M24.6406 15.2344C19.6004 15.2344 15.5 19.3348 15.5 24.375C15.5 26.3166 17.0741 27.8906 19.0156 27.8906C20.9572 27.8906 22.5312 26.3166 22.5312 24.375C22.5312 23.2118 23.4774 22.2656 24.6406 22.2656C26.5822 22.2656 28.1562 20.6916 28.1562 18.75C28.1562 16.8084 26.5822 15.2344 24.6406 15.2344Z" fill="#00D2B4"/>
<path d="M24.6406 9.14062C26.5822 9.14062 28.1562 7.56656 28.1562 5.625C28.1562 3.68344 26.5822 2.10938 24.6406 2.10938C12.3634 2.10938 2.375 12.0977 2.375 24.375C2.375 26.3166 3.94906 27.8906 5.89062 27.8906C7.83219 27.8906 9.40625 26.3166 9.40625 24.375C9.40625 15.9748 16.2404 9.14062 24.6406 9.14062Z" fill="#00D2B4"/>
</svg>
