<svg width="24" height="24" viewBox="0 0 24 24" fill="none" xmlns="http://www.w3.org/2000/svg">
<path d="M20.2677 12.0382C20.264 12.0373 20.2603 12.0364 20.2566 12.0356L19.5542 11.879L20.1843 11.5188C20.193 11.5138 20.2016 11.5085 20.2099 11.503C20.7623 11.1382 21.1253 10.4853 21.1811 9.75622C21.182 9.74431 21.1824 9.73241 21.1824 9.72045V8.39188C21.3784 8.03225 21.912 6.90594 21.912 5.30253C21.912 3.30181 20.2984 1.23242 17.5981 1.23242C16.6996 1.23242 15.9497 1.45831 15.3149 1.92177C14.5559 1.71659 13.7191 2.09787 13.0229 2.98503C12.3207 3.87955 12.163 4.8897 12.2198 5.76748C11.5401 3.60809 9.51928 2.03764 7.13836 2.03764H6.89564C6.07069 2.03764 5.27972 2.22125 4.54467 2.58341C4.3125 2.69792 4.21697 2.97889 4.33139 3.21116C4.44581 3.44342 4.72683 3.53891 4.95905 3.42448C5.56411 3.12641 6.21567 2.97523 6.89569 2.97523H7.13841C9.55819 2.97523 11.5268 4.94384 11.5268 7.36358V9.21444C11.5268 9.6575 11.4339 10.0829 11.253 10.4812C10.9445 10.5602 10.6554 10.6875 10.3932 10.8536C10.526 10.601 10.61 10.3144 10.633 10.0127C10.634 10.0008 10.6344 9.98891 10.6344 9.97695V6.95717C10.6344 6.78064 10.5352 6.61906 10.3778 6.53919C10.2204 6.45927 10.0315 6.47459 9.88894 6.5788C9.48684 6.87284 9.00886 7.02828 8.50664 7.02828C7.54416 7.02828 6.66675 6.42397 6.32339 5.52453C6.26077 5.36047 6.1117 5.2452 5.93723 5.22584C5.76253 5.20625 5.592 5.28617 5.49492 5.43252C5.1278 5.98569 4.51134 6.3178 3.84581 6.32084C3.58777 6.32202 3.37922 6.53155 3.37922 6.78959V9.97695C3.37922 9.98886 3.37969 10.0008 3.38058 10.0127C3.42923 10.649 3.75047 11.2219 4.23998 11.5452C4.24819 11.5505 4.25658 11.5557 4.26516 11.5606L4.95028 11.9535V12.2164L4.78875 12.1831C3.44489 11.8268 2.5073 10.6078 2.5073 9.21439V7.36353C2.5073 6.71441 2.64553 6.08975 2.91816 5.50686C3.02784 5.27234 2.92664 4.99334 2.69212 4.88366C2.45766 4.77402 2.17861 4.87517 2.06897 5.10969C1.73775 5.81783 1.56984 6.57612 1.56984 7.36353V9.21439C1.56984 10.4279 2.11538 11.5397 2.99944 12.2837C1.20131 13.0433 0 14.8111 0 16.8161V22.2993C0 22.5575 0.208781 22.7668 0.466734 22.7679L0.466781 22.768H9.69689C9.95578 22.768 10.1656 22.5581 10.1656 22.2993C10.1656 22.0404 9.95578 21.8305 9.69689 21.8305H8.13113V19.3504C8.13113 18.2104 8.90091 17.222 10.0042 16.9441L10.9466 16.7435C11.2747 16.8662 11.6296 16.9338 12 16.9338C12.3654 16.9338 12.7157 16.8683 13.04 16.7488L13.9977 16.9446C15.1 17.223 15.869 18.211 15.869 19.3504V21.8305H14.2007C13.9418 21.8305 13.732 22.0404 13.732 22.2993C13.732 22.5581 13.9418 22.768 14.2007 22.768H23.5312C23.7901 22.768 24 22.5581 24 22.2993V16.8166C24 14.5496 22.4652 12.5847 20.2677 12.0382ZM4.74586 10.7556C4.5097 10.5939 4.34662 10.2906 4.31672 9.95769V7.21906C4.86661 7.12822 5.37638 6.88311 5.78841 6.51458C6.38873 7.40408 7.40812 7.96583 8.50669 7.96583C8.9198 7.96583 9.32147 7.8905 9.69694 7.74453V9.95769C9.66694 10.2928 9.50611 10.596 9.27366 10.7555L7.38783 11.8336C7.37906 11.8385 7.37053 11.8438 7.36214 11.8494C7.13644 11.9985 6.87741 11.9986 6.65152 11.8494C6.64331 11.844 6.63492 11.8388 6.62634 11.8339L4.74586 10.7556ZM9.51783 11.6958C9.30511 12.0047 9.14897 12.3551 9.06333 12.7322V11.9556L9.51783 11.6958ZM8.12583 12.4915V13.6033C7.47609 14.1308 6.53756 14.1308 5.88783 13.6033V12.4911L6.14822 12.6404C6.41377 12.8121 6.7103 12.8981 7.00678 12.8981C7.30322 12.8981 7.59966 12.8122 7.86511 12.6405L8.12583 12.4915ZM9.80081 16.0288C9.79561 16.03 9.79045 16.0312 9.7853 16.0325C8.25938 16.4119 7.19363 17.7763 7.19363 19.3504V21.8305H3.64917V18.8002C3.64917 18.5413 3.43931 18.3314 3.18042 18.3314C2.92153 18.3314 2.71167 18.5413 2.71167 18.8002V21.8305H0.9375V16.8161C0.9375 14.9812 2.17936 13.391 3.95752 12.9488C3.9877 12.9413 4.01639 12.9309 4.04353 12.9182C4.21092 12.9874 4.38422 13.0465 4.56333 13.0932C4.57116 13.0953 4.57908 13.0971 4.587 13.0987L4.94395 13.1724C4.94606 13.1728 4.94817 13.1729 4.95033 13.1734V13.8109C4.95033 13.9352 4.99973 14.0545 5.08763 14.1424C5.61675 14.6714 6.31177 14.936 7.00683 14.936C7.70189 14.936 8.39691 14.6714 8.92603 14.1424C8.95116 14.1172 8.97277 14.0893 8.99133 14.0597C9.02494 14.8203 9.3428 15.5081 9.84113 16.0202L9.80081 16.0288ZM13.7603 3.56389C14.2539 2.93502 14.7899 2.67702 15.1943 2.87375C15.362 2.95541 15.5622 2.92977 15.704 2.80864C16.0248 2.53442 16.5702 2.16997 17.5982 2.16997C19.7116 2.16997 20.9746 3.76273 20.9746 5.30258C20.9746 5.99314 20.859 6.58184 20.7249 7.0325C20.3826 6.50534 19.7364 5.89255 18.5826 5.89255C17.6589 5.89255 16.9714 5.59442 16.4188 4.95425C16.329 4.85009 16.199 4.79178 16.064 4.79178C16.0373 4.79178 16.0103 4.79408 15.9833 4.79877C15.821 4.82708 15.6854 4.93864 15.6263 5.09258C15.5533 5.28303 15.1212 5.4935 14.8057 5.64711C14.513 5.7897 14.2365 5.92437 14.0305 6.10648C13.7514 6.35314 13.5297 6.58381 13.356 6.78613C13.1155 5.9562 12.9329 4.61825 13.7603 3.56389ZM12.4555 7.06137C12.5778 7.47584 12.7128 7.78241 12.7771 7.91825V9.7205C12.7771 9.73245 12.7776 9.74436 12.7785 9.75627C12.7998 10.0358 12.8676 10.3042 12.974 10.5499C12.7547 10.4747 12.5243 10.4239 12.2857 10.4013C12.4041 10.0198 12.4642 9.62263 12.4642 9.21444V7.36358C12.4642 7.26214 12.4611 7.16141 12.4555 7.06137ZM12 11.3249C12.9663 11.3249 13.7804 11.989 14.0099 12.8847C13.9845 12.8961 13.9595 12.9096 13.9357 12.9259C13.681 13.1004 13.3783 13.1926 13.0603 13.1926C12.452 13.1926 11.9002 12.8412 11.6871 12.318C11.6225 12.1595 11.4766 12.0488 11.3066 12.0292C11.1364 12.0096 10.9694 12.0843 10.8704 12.224C10.68 12.4928 10.3783 12.6705 10.0401 12.7205C10.3219 11.9091 11.0938 11.3249 12 11.3249ZM14.0746 13.9257C14.0746 15.0674 13.144 15.9963 12 15.9963C10.8561 15.9963 9.92541 15.0674 9.92541 13.9257V13.6713C10.3795 13.655 10.8106 13.5039 11.1623 13.2459C11.6112 13.7915 12.3113 14.1301 13.0603 14.1301C13.4152 14.1301 13.7592 14.0572 14.0746 13.9173V13.9257ZM13.7146 9.70142V7.87255C13.8285 7.68842 14.1106 7.28684 14.6514 6.809C14.7618 6.71141 14.9928 6.59891 15.2162 6.49002C15.519 6.34255 15.8459 6.18336 16.1037 5.96459C16.7718 6.54612 17.5878 6.83009 18.5826 6.83009C19.182 6.83009 19.6247 7.06203 19.9361 7.53917C20.1437 7.85731 20.2233 8.18698 20.245 8.29362V9.70147C20.2077 10.1315 20.0069 10.5076 19.7047 10.7131L17.4725 11.9892C17.4637 11.9942 17.4552 11.9995 17.4468 12.005C17.1543 12.1982 16.8052 12.1982 16.5127 12.005C16.5045 11.9996 16.4961 11.9944 16.4875 11.9895L14.2618 10.7133C13.9597 10.5078 13.7514 10.1226 13.7146 9.70142ZM15.8942 12.7299L16.0094 12.7959C16.3094 12.9905 16.6446 13.0878 16.9798 13.0878C17.3149 13.0878 17.65 12.9906 17.95 12.7961L18.1322 12.692V13.6033C17.4825 14.1308 16.5439 14.1308 15.8942 13.6033V12.7299ZM14.9566 12.1923V12.8257C14.9026 12.547 14.81 12.2821 14.6847 12.0364L14.9566 12.1923ZM23.0625 21.8305H20.8485V18.8002C20.8485 18.5413 20.6386 18.3314 20.3797 18.3314C20.1208 18.3314 19.911 18.5413 19.911 18.8002V21.8305H16.8064V19.3504C16.8064 17.7763 15.7407 16.4119 14.2147 16.0325C14.2083 16.0309 14.2019 16.0295 14.1954 16.0281L14.1586 16.0205C14.6642 15.501 14.9837 14.8006 15.0095 14.0268C15.0315 14.069 15.0596 14.1081 15.0939 14.1424C15.6231 14.6716 16.3179 14.9361 17.013 14.9361C17.708 14.9361 18.4032 14.6714 18.9323 14.1424C19.0201 14.0545 19.0695 13.9353 19.0695 13.811V12.7315L20.0468 12.9493C21.8226 13.3936 23.0625 14.983 23.0625 16.8166V21.8305Z" fill="#434342"/>
<path d="M12.3582 21.9674C12.2706 21.8802 12.1501 21.8301 12.0264 21.8301C11.9031 21.8301 11.7821 21.8802 11.695 21.9674C11.6078 22.0546 11.5576 22.1755 11.5576 22.2988C11.5576 22.4221 11.6078 22.543 11.695 22.6302C11.7826 22.7178 11.9031 22.7676 12.0264 22.7676C12.1496 22.7676 12.2706 22.7178 12.3582 22.6302C12.4454 22.543 12.4951 22.4221 12.4951 22.2988C12.4951 22.1755 12.4454 22.0546 12.3582 21.9674Z" fill="#434342"/>
<path d="M18.5533 8.40968C18.4176 8.18918 18.1288 8.12042 17.9084 8.25617L17.8835 8.27154C17.6637 8.40818 17.5962 8.69717 17.7327 8.91706C17.8215 9.05998 17.9747 9.1385 18.1313 9.1385C18.2158 9.1385 18.3012 9.11571 18.3783 9.06786L18.3997 9.05459C18.6202 8.91889 18.6889 8.63018 18.5533 8.40968Z" fill="#434342"/>
<path d="M16.0845 8.40968C15.9489 8.18918 15.6601 8.12042 15.4397 8.25617L15.4148 8.27154C15.1949 8.40818 15.1274 8.69717 15.264 8.91706C15.3528 9.05998 15.5059 9.1385 15.6626 9.1385C15.747 9.1385 15.8325 9.11571 15.9095 9.06786L15.931 9.05459C16.1515 8.91889 16.2202 8.63018 16.0845 8.40968Z" fill="#434342"/>
<path d="M8.68029 8.64406C8.54454 8.42356 8.25584 8.35479 8.03539 8.49054L8.01049 8.50592C7.7906 8.64256 7.7231 8.93154 7.8597 9.15143C7.94853 9.29436 8.10162 9.37287 8.25832 9.37287C8.34279 9.37287 8.42825 9.35009 8.50526 9.30223L8.52673 9.28896C8.74723 9.15326 8.81595 8.86456 8.68029 8.64406Z" fill="#434342"/>
<path d="M6.21182 8.64455C6.07654 8.42391 5.78789 8.35481 5.5672 8.49014L5.54175 8.50584C5.32185 8.64248 5.25435 8.93147 5.39095 9.15136C5.47973 9.29428 5.63287 9.3728 5.78953 9.3728C5.874 9.3728 5.95945 9.35002 6.03646 9.30216L6.05746 9.28922C6.2781 9.1538 6.34725 8.86519 6.21182 8.64455Z" fill="#434342"/>
<path d="M7.6059 10.1148C7.49143 9.90219 7.23638 9.8136 7.01752 9.90238C6.79871 9.8136 6.54362 9.90219 6.42915 10.1148C6.30643 10.3428 6.39174 10.6271 6.61969 10.7498C6.74138 10.8153 6.87896 10.8499 7.01752 10.8499C7.15609 10.8499 7.29366 10.8153 7.41535 10.7498C7.6433 10.6271 7.72862 10.3428 7.6059 10.1148Z" fill="#434342"/>
<path d="M3.78895 3.59629C3.60464 3.41446 3.30646 3.41789 3.12459 3.60215C2.94154 3.7852 2.94154 4.08201 3.12459 4.2651C3.21614 4.35656 3.33614 4.40235 3.45609 4.40235C3.57604 4.40235 3.69604 4.35656 3.78754 4.26506L3.79481 4.25774C3.97664 4.07343 3.97321 3.77817 3.78895 3.59629Z" fill="#434342"/>
<path d="M17.5698 10.1148C17.4553 9.90219 17.2002 9.8136 16.9814 9.90238C16.7626 9.8136 16.5075 9.90219 16.393 10.1148C16.2703 10.3428 16.3556 10.6271 16.5836 10.7498C16.7052 10.8153 16.8428 10.8499 16.9814 10.8499C17.12 10.8499 17.2575 10.8153 17.3792 10.7498C17.6072 10.6271 17.6925 10.3428 17.5698 10.1148Z" fill="#434342"/>
</svg>
