<svg width="30" height="30" viewBox="0 0 30 30" fill="none" xmlns="http://www.w3.org/2000/svg">
<g clip-path="url(#clip0_528_6405)">
<path fill-rule="evenodd" clip-rule="evenodd" d="M15.3234 28.125H7.5C5.76094 28.125 4.09223 27.4336 2.85942 26.2027C1.62661 24.9722 0.9375 23.303 0.9375 21.5625V6.5625C0.9375 4.82203 1.62661 3.15281 2.85942 1.92234C4.09223 0.691405 5.76094 0 7.5 0H16.875C20.4984 0 23.4375 2.93813 23.4375 6.5625V13.6059C26.7141 14.7652 29.0625 17.8917 29.0625 21.5625C29.0625 26.2191 25.2797 30 20.625 30C18.6187 30 16.7718 29.2973 15.3234 28.125ZM20.625 15C24.2484 15 27.1875 17.9405 27.1875 21.5625C27.1875 25.1845 24.2484 28.125 20.625 28.125C17.0016 28.125 14.0625 25.1845 14.0625 21.5625C14.0625 17.9405 17.0016 15 20.625 15ZM23.9062 20.625H21.5625V16.875C21.5625 16.3575 21.1406 15.9375 20.625 15.9375C20.1094 15.9375 19.6875 16.3575 19.6875 16.875V21.5625C19.6875 22.0805 20.1047 22.5 20.625 22.5H23.9062C24.4219 22.5 24.8438 22.08 24.8438 21.5625C24.8438 21.045 24.4219 20.625 23.9062 20.625ZM7.03125 18.75H12.0328C12.5484 18.75 12.9703 18.33 12.9703 17.8125C12.9703 17.295 12.5484 16.875 12.0328 16.875H7.03125C6.51562 16.875 6.09375 17.295 6.09375 17.8125C6.09375 18.33 6.51562 18.75 7.03125 18.75ZM7.03125 15H15C15.5203 15 15.9375 14.58 15.9375 14.0625C15.9375 13.545 15.5203 13.125 15 13.125H7.03125C6.51562 13.125 6.09375 13.545 6.09375 14.0625C6.09375 14.58 6.51562 15 7.03125 15ZM7.03125 11.25H17.3438C17.8594 11.25 18.2812 10.83 18.2812 10.3125C18.2812 9.795 17.8594 9.375 17.3438 9.375H7.03125C6.51562 9.375 6.09375 9.795 6.09375 10.3125C6.09375 10.83 6.51562 11.25 7.03125 11.25Z" fill="#00D2B4"/>
</g>
<defs>
<clipPath id="clip0_528_6405">
<rect width="30" height="30" fill="white"/>
</clipPath>
</defs>
</svg>
