<svg width="14" height="16" viewBox="0 0 14 16" fill="none" xmlns="http://www.w3.org/2000/svg">
<path d="M5.3266 0.5C5.27529 0.5 5.19643 0.525567 5.15104 0.569568C4.09604 1.59113 2.15006 3.42934 1.07068 4.4743C1.02668 4.5169 1 4.59057 1 4.64034V14.2152C1 14.9237 1.60224 15.5 2.34262 15.5H11.6574C12.3978 15.5 13 14.9237 13 14.2152V1.78483C13 1.07631 12.3978 0.5 11.6574 0.5H5.3266ZM5.04149 1.34059L4.90553 3.48991C4.87934 3.90385 4.53327 4.23296 4.1007 4.25553L1.87195 4.37176C5.49262 0.909643 4.65637 1.71056 5.04149 1.34059ZM12.5102 1.78483V14.2152C12.5102 14.6652 12.1276 15.0313 11.6574 15.0313H2.34262C1.8724 15.0313 1.48983 14.6652 1.48983 14.2152V4.86107L4.12735 4.72357C4.80842 4.68797 5.35314 4.16979 5.39439 3.51827L5.55577 0.968745H11.6573C12.1276 0.968745 12.5102 1.33485 12.5102 1.78483Z" fill="black" stroke="black" stroke-width="0.1"/>
<path d="M5.72455 11.5H3.27545C3.12333 11.5 3 11.5822 3 11.6836V13.3164C3 13.4178 3.12333 13.5 3.27545 13.5H5.72455C5.87667 13.5 6 13.4178 6 13.3164V11.6836C6 11.5822 5.87667 11.5 5.72455 11.5ZM5.4491 13.1327H3.5509V11.8673H5.4491V13.1327Z" fill="black" stroke="black" stroke-width="0.1"/>
<path d="M5.59989 6.58851L3.98276 8.67377L3.4374 7.50132C3.36737 7.35081 3.22096 7.30546 3.11032 7.40121C2.99967 7.49646 2.9668 7.69562 3.03672 7.84613L3.73626 9.34995C3.77422 9.43149 3.83696 9.48565 3.90732 9.49748C3.91703 9.49922 3.92687 9.5 3.93661 9.5C3.99692 9.5 4.05535 9.46868 4.09968 9.41154L5.92606 7.05645C6.0211 6.93396 6.02501 6.72994 5.93496 6.60067C5.84502 6.47121 5.69479 6.46603 5.59989 6.58851Z" fill="black" stroke="black" stroke-width="0.1"/>
<path d="M11.7286 12H7.27135C7.12149 12 7 12.2239 7 12.5C7 12.7761 7.12149 13 7.27135 13H11.7286C11.8785 13 12 12.7761 12 12.5C12 12.2239 11.8785 12 11.7286 12Z" fill="black" stroke="black" stroke-width="0.1"/>
<path d="M11.7286 9H7.27135C7.12149 9 7 9.22387 7 9.5C7 9.77613 7.12149 10 7.27135 10H11.7286C11.8785 10 12 9.77613 12 9.5C12 9.22394 11.8785 9 11.7286 9Z" fill="black" stroke="black" stroke-width="0.1"/>
<path d="M11.7286 6H7.27135C7.12149 6 7 6.22387 7 6.5C7 6.77613 7.12149 7 7.27135 7H11.7286C11.8785 7 12 6.77613 12 6.5C12 6.22387 11.8785 6 11.7286 6Z" fill="black" stroke="black" stroke-width="0.1"/>
</svg>
