<svg width="30" height="30" viewBox="0 0 30 30" fill="none" xmlns="http://www.w3.org/2000/svg">
<g clip-path="url(#clip0_682_9650)">
<path d="M25.0342 16.627V26.1918C25.0342 27.3227 24.1143 28.2426 22.9834 28.2426H12.5537C11.4229 28.2426 10.5029 27.3227 10.5029 26.1918V24.9027H8.74512V26.1918C8.74512 28.2918 10.4537 30.0004 12.5537 30.0004H22.9834C25.0834 30.0004 26.792 28.2918 26.792 26.1918V16.6363C26.201 16.725 25.6023 16.7192 25.0342 16.627Z" fill="#00D2B4"/>
<path d="M25.9424 14.9414C28.1267 14.9414 29.8975 13.1707 29.8975 10.9863C29.8975 8.802 28.1267 7.03125 25.9424 7.03125C23.7581 7.03125 21.9873 8.802 21.9873 10.9863C21.9873 13.1707 23.7581 14.9414 25.9424 14.9414Z" fill="#00D2B4"/>
<path d="M11.5574 22.2656V20.288C14.8637 19.5479 17.4262 17.0306 18.308 13.8913C18.4435 13.4088 18.1482 12.9104 17.66 12.7975L17.4644 12.7522L18.9195 6.63844C19.4611 4.36271 17.8929 2.1535 15.6136 1.87359C15.2983 0.79248 14.299 0 13.1174 0C11.6827 0 10.4839 1.14984 10.4452 2.56324C10.4057 4.00002 11.5307 5.27344 13.1174 5.27344C14.21 5.27344 15.1466 4.59574 15.5309 3.63891C16.7111 3.86092 17.495 5.03145 17.2094 6.23145L15.7519 12.3557L15.3732 12.268C14.9214 12.1635 14.4664 12.4277 14.3331 12.8716C13.7086 14.9528 11.748 16.4062 9.56524 16.4062C7.3825 16.4062 5.42184 14.9528 4.79734 12.8717C4.6641 12.4277 4.20877 12.1637 3.75731 12.2681L3.37861 12.3557L1.9211 6.23145C1.63568 5.0325 2.41844 3.86109 3.59957 3.63891C3.98383 4.59574 4.92051 5.27344 6.01305 5.27344C7.44777 5.27344 8.64654 4.12359 8.68528 2.7102C8.72623 1.2215 7.53397 0 6.04961 0C4.86151 0 3.85481 0.790078 3.52633 1.8723C1.24586 2.14676 -0.332186 4.35592 0.211036 6.63844L1.66604 12.7522L1.47051 12.7975C0.98213 12.9105 0.687052 13.4089 0.822521 13.8913C1.70248 17.0244 4.26045 19.5465 7.57305 20.288V22.2656C7.57305 22.751 7.96656 23.1445 8.45195 23.1445H10.6785C11.1639 23.1445 11.5574 22.751 11.5574 22.2656Z" fill="#00D2B4"/>
</g>
<defs>
<clipPath id="clip0_682_9650">
<rect width="30" height="30" fill="white"/>
</clipPath>
</defs>
</svg>
