<svg width="18" height="15" viewBox="0 0 18 15" fill="none" xmlns="http://www.w3.org/2000/svg">
<path d="M1.54793 3.5626C4.4645 2.27731 7.14651 2.90056 8.52008 3.5618C8.82824 3.71015 9 4.03162 9 4.37363V13.21C9 13.9501 8.21415 14.4449 7.49924 14.2535C5.7467 13.7845 3.95024 13.9 2.46627 14.2941C1.76219 14.481 1 13.9857 1 13.2572V4.43213C1 4.05916 1.20663 3.71301 1.54793 3.5626Z" stroke="black"/>
<path d="M15.5 3.16992C15.89 3.2874 16.2329 3.42345 16.5191 3.56116C16.8273 3.70945 17 4.03144 17 4.37345C17 6.20979 17 9.69976 17 13.2099C17 13.9499 16.2142 14.4447 15.4992 14.2534C13.7246 13.7784 11.9049 13.9029 10.4102 14.309C9.73326 14.4929 9 14.0158 9 13.3143V13.3143" stroke="black"/>
<path d="M9 3.82521C10.7503 2.06501 12.8835 1.07918 14.7294 1.19583C15.1873 1.22477 15.5 1.63483 15.5 2.09363C15.5 4.02574 15.5 7.49063 15.5 10.9359C15.5 11.6156 14.8133 12.1527 14.1355 12.2037C12.463 12.3293 10.2598 13.1741 9.5 14.3139" stroke="black"/>
</svg>
