<svg width="24" height="24" viewBox="0 0 24 24" fill="none" xmlns="http://www.w3.org/2000/svg">
<path d="M22.6281 22.7711L21.5664 16.5553C21.4519 15.8856 20.9769 15.3476 20.3264 15.1514L17.4627 14.2874C17.4034 13.5873 17.1164 12.9269 16.6387 12.4042C16.2566 11.986 15.7761 11.6816 15.2463 11.5136C15.337 11.413 15.421 11.3127 15.4982 11.2147C16.1792 10.3485 16.5437 9.39436 16.6366 8.74322H16.8575C17.4321 8.74322 17.8996 8.27578 17.8996 7.70114V7.16695C17.8996 6.78347 17.6838 6.43598 17.3594 6.25566V4.97109C17.3594 4.77698 17.2021 4.61963 17.0079 4.61963C16.8138 4.61963 16.6565 4.77694 16.6565 4.97109V6.41316C16.5197 6.43692 16.3563 6.47798 16.1893 6.54834C16.1722 6.55458 16.1555 6.5618 16.1398 6.57047C16.102 6.58767 16.0643 6.60581 16.0266 6.62625V3.79397C16.0266 3.01148 15.3901 2.37492 14.6076 2.37492H13.6375C13.3029 2.37492 12.976 2.4915 12.717 2.70328L12.6218 2.78109C12.447 2.92406 12.2263 3.00281 12.0004 3.00281C11.7745 3.00281 11.5538 2.92406 11.3789 2.78109L11.2838 2.70328C11.0247 2.49155 10.6979 2.37492 10.3633 2.37492H9.39311C8.61062 2.37492 7.97406 3.01148 7.97406 3.79397V6.62625C7.93642 6.60581 7.89864 6.58767 7.8609 6.57047C7.84515 6.5618 7.82856 6.55458 7.81145 6.54834C7.64439 6.47798 7.48103 6.43692 7.3442 6.41316V2.7668C7.3442 1.62877 8.27008 0.702891 9.40811 0.702891H14.5925C15.7306 0.702891 16.6564 1.62877 16.6564 2.7668V3.31927C16.6564 3.51337 16.8138 3.67073 17.0079 3.67073C17.2019 3.67073 17.3593 3.51342 17.3593 3.31927V2.7668C17.3593 1.2412 16.1181 0 14.5925 0H9.40811C7.88247 0 6.64131 1.2412 6.64131 2.7668V6.2557C6.31689 6.43603 6.10117 6.78347 6.10117 7.167V7.70119C6.10117 8.27583 6.56865 8.74327 7.14325 8.74327H7.36417C7.45694 9.39441 7.82158 10.3486 8.50258 11.2147C8.57959 11.3127 8.66359 11.4128 8.75415 11.5133C7.53634 11.9002 6.64825 12.9951 6.53804 14.2874L3.67426 15.1514C3.02378 15.3476 2.54865 15.8856 2.43428 16.5553L2.00312 19.0795C1.97045 19.2708 2.09908 19.4524 2.29037 19.485C2.48162 19.5178 2.66326 19.3891 2.69598 19.1978L3.12714 16.6736C3.19633 16.2684 3.48376 15.943 3.87728 15.8243L6.52595 15.0252V15.7204C5.91883 15.8321 5.40222 16.2492 5.18945 16.827C5.13297 16.9804 5.09786 17.141 5.08511 17.3043L4.82912 20.59C4.80981 20.8375 4.89545 21.084 5.06397 21.2661C5.23248 21.4482 5.4715 21.5527 5.7197 21.5527H6.15789C6.352 21.5527 6.50936 21.3954 6.50936 21.2013C6.50936 21.0071 6.352 20.8499 6.15789 20.8499H5.7197C5.66678 20.8499 5.61587 20.8276 5.57992 20.7887C5.54401 20.7499 5.52578 20.6974 5.5299 20.6447L5.78589 17.3589C5.79362 17.26 5.81486 17.1627 5.84908 17.0699C5.99711 16.6679 6.39686 16.3957 6.8439 16.3926L6.90179 16.3921C6.90451 16.3921 6.90719 16.3921 6.90986 16.3921C7.34434 16.3921 7.72895 16.6385 7.89119 17.0215C7.9367 17.1289 7.96436 17.2424 7.97345 17.3589L8.22953 20.6447C8.23361 20.6974 8.21537 20.7499 8.17947 20.7888C8.14356 20.8276 8.09261 20.8499 8.03969 20.8499H7.6015C7.40739 20.8499 7.25003 21.0072 7.25003 21.2013C7.25003 21.3954 7.40739 21.5527 7.6015 21.5527H8.03969C8.28789 21.5527 8.52695 21.4483 8.69542 21.2661C8.86398 21.0839 8.94962 20.8374 8.93031 20.59L8.67423 17.3043C8.65923 17.112 8.61353 16.9245 8.53839 16.7472C8.30687 16.2008 7.81183 15.8209 7.22879 15.7181V14.8131L8.43695 14.4486C8.54687 14.6801 8.7647 15.1804 9.19619 16.2588C9.63105 17.347 10.1716 18.7418 10.69 20.0977C10.6937 20.109 10.6979 20.1202 10.7027 20.131C11.0486 21.0362 11.3842 21.9228 11.6712 22.6876C11.7227 22.8248 11.8538 22.9156 12.0003 22.9156C12.1468 22.9156 12.2779 22.8248 12.3294 22.6876C12.6163 21.9228 12.9519 21.0362 13.2979 20.131C13.3027 20.1202 13.3069 20.109 13.3106 20.0977C13.8287 18.7425 14.3689 17.3487 14.8036 16.2608C15.2356 15.181 15.4536 14.6803 15.5636 14.4486L16.7717 14.8131V16.889C15.9347 17.0516 15.3006 17.7899 15.3006 18.6738C15.3006 19.6765 16.1163 20.4923 17.1191 20.4923C18.1218 20.4923 18.9376 19.6766 18.9376 18.6738C18.9376 17.7928 18.3077 17.0563 17.4746 16.8905V15.0252L20.1234 15.8244C20.5169 15.9431 20.8043 16.2685 20.8735 16.6737L21.9352 22.8894C21.9528 22.9925 21.9254 23.0933 21.858 23.1732C21.7906 23.2531 21.6958 23.2972 21.5912 23.2972H2.40934C2.30476 23.2972 2.21008 23.2531 2.14262 23.1732C2.07522 23.0933 2.04775 22.9926 2.06537 22.8894L2.41576 20.8381C2.44844 20.6467 2.31981 20.4652 2.12851 20.4325C1.93726 20.3997 1.75562 20.5285 1.7229 20.7198L1.37251 22.7711C1.32025 23.0773 1.40514 23.3891 1.60539 23.6265C1.80573 23.8639 2.09875 24 2.40934 24H21.5912C21.9018 24 22.1949 23.8639 22.3952 23.6265C22.5954 23.389 22.6803 23.0773 22.6281 22.7711ZM16.6607 7.12917C16.8479 7.08248 16.9982 7.08333 16.9999 7.08337C17.0605 7.08417 17.1194 7.07002 17.1717 7.04259C17.1873 7.08155 17.1966 7.12341 17.1966 7.167V7.70119C17.1966 7.88822 17.0444 8.04037 16.8574 8.04037H16.6607V7.12917ZM7.33994 8.04037H7.1432C6.95617 8.04037 6.80401 7.88822 6.80401 7.70119V7.167C6.80401 7.12341 6.81329 7.08155 6.8289 7.04264C6.88117 7.07006 6.94004 7.08422 7.00065 7.08337C7.00333 7.08384 7.15323 7.083 7.33994 7.12936V8.04037ZM8.04283 8.43445V7.51111C8.14933 7.54303 8.26581 7.53867 8.37334 7.49381C8.5578 7.41684 8.67695 7.23811 8.67695 7.03837V3.79397C8.67695 3.39909 8.99823 3.07781 9.39311 3.07781H10.3632C10.5361 3.07781 10.705 3.13805 10.8388 3.24745L10.9339 3.32527C11.234 3.57061 11.6127 3.70566 12.0003 3.70566C12.3879 3.70566 12.7666 3.57056 13.0667 3.32527L13.1618 3.24745C13.2956 3.13805 13.4645 3.07781 13.6374 3.07781H14.6075C15.0024 3.07781 15.3236 3.39909 15.3236 3.79397V7.03842C15.3236 7.23811 15.4428 7.41689 15.6272 7.49386C15.6888 7.51955 15.7533 7.53202 15.8173 7.53202C15.865 7.53202 15.9122 7.52503 15.9578 7.51144V8.43445C15.9578 8.94759 15.603 9.94406 14.9455 10.7802C14.7278 11.0572 14.4478 11.3548 14.1032 11.6148C14.0922 11.6221 14.0818 11.6301 14.0718 11.6385C13.5378 12.0333 12.8513 12.3357 12.0003 12.3357C11.1493 12.3357 10.4627 12.0333 9.92875 11.6385C9.91876 11.6301 9.90836 11.6221 9.89748 11.6149C9.55281 11.3548 9.27287 11.0572 9.05505 10.7802C8.39762 9.94411 8.04283 8.94759 8.04283 8.43445ZM14.3028 14.1127L12.0003 15.8336L9.69779 14.1127C9.92612 13.8225 10.054 13.4499 10.054 13.1175V12.551C10.5955 12.8422 11.2416 13.0387 12.0003 13.0387C12.759 13.0387 13.4051 12.8422 13.9465 12.551V13.1175C13.9465 13.4499 14.0745 13.8225 14.3028 14.1127ZM9.11125 13.7204C8.92356 13.6489 8.71548 13.6372 8.51865 13.6905C8.51003 13.6926 8.50159 13.6949 8.49339 13.6973L7.27919 14.0637C7.48455 13.0539 8.30448 12.2502 9.35115 12.0945V13.1175C9.35115 13.338 9.25272 13.566 9.11125 13.7204ZM10.0651 16.5417C10.0645 16.54 10.0638 16.5384 10.0632 16.5368C10.0454 16.4918 10.0278 16.4473 10.0104 16.4034C10.0072 16.3954 10.0041 16.3875 10.0009 16.3796C9.98387 16.3366 9.96695 16.294 9.95026 16.252C9.94909 16.2491 9.94792 16.2462 9.94675 16.2432C9.89467 16.1122 9.84447 15.9867 9.79619 15.8663C9.79267 15.8576 9.78915 15.8488 9.78564 15.8401C9.77176 15.8056 9.75812 15.7716 9.74458 15.738C9.73961 15.7257 9.73468 15.7135 9.72976 15.7013C9.71664 15.6688 9.70361 15.6365 9.69076 15.6048C9.68692 15.5954 9.68317 15.5862 9.67937 15.5767C9.65608 15.5193 9.6333 15.4633 9.61108 15.4087C9.60508 15.3939 9.59894 15.3788 9.59298 15.3643C9.58426 15.343 9.57578 15.3223 9.56725 15.3014C9.55806 15.2789 9.54887 15.2566 9.53987 15.2347C9.5365 15.2265 9.53298 15.2178 9.52961 15.2096C9.52689 15.2031 9.5244 15.197 9.52173 15.1905C9.48114 15.0919 9.44256 14.9989 9.40595 14.9115C9.40567 14.9108 9.40534 14.9101 9.40506 14.9094C9.38556 14.8628 9.36648 14.8174 9.34815 14.7741C9.33864 14.7516 9.32926 14.7295 9.32008 14.7079L11.3003 16.1879L10.4729 16.5394C10.4714 16.54 10.4699 16.5406 10.4685 16.5413L10.123 16.6881C10.1034 16.6385 10.0842 16.59 10.0651 16.5417ZM10.9037 18.6936C10.8343 18.5135 10.7643 18.3323 10.6943 18.1513C10.5847 17.8682 10.48 17.5991 10.3798 17.3427L10.511 17.2869L11.0469 17.9099L10.9037 18.6936ZM12.0071 21.5501C11.997 21.5292 11.985 21.5094 11.9711 21.4911C11.8123 21.0713 11.6108 20.5402 11.3877 19.9558L11.7158 18.1593H12.2848L12.6129 19.9558C12.3791 20.568 12.1692 21.1216 12.0071 21.5501ZM12.4166 17.4564H11.584L11.19 16.9985L12.0003 16.6543L12.8106 16.9985L12.4166 17.4564ZM13.3063 18.1513C13.2362 18.3323 13.1663 18.5135 13.0969 18.6936L12.9537 17.9098L13.4896 17.2869L13.6208 17.3426C13.5206 17.599 13.4159 17.8682 13.3063 18.1513ZM14.6525 14.7741C14.6351 14.8151 14.617 14.8582 14.5986 14.9022C14.5962 14.9079 14.5937 14.9137 14.5914 14.9194C14.5731 14.963 14.5546 15.0075 14.5353 15.0539C14.5341 15.057 14.5328 15.0602 14.5315 15.0633C14.5149 15.1033 14.4979 15.1445 14.4806 15.1866C14.4774 15.1944 14.4743 15.2017 14.4711 15.2096C14.4672 15.219 14.4631 15.229 14.4592 15.2385C14.4515 15.2573 14.4437 15.2764 14.4358 15.2955C14.4262 15.3191 14.4166 15.3426 14.4067 15.3668C14.4035 15.3744 14.4003 15.3825 14.3971 15.3902C14.3726 15.4501 14.3475 15.5119 14.3218 15.5754C14.3178 15.5853 14.3138 15.5951 14.3098 15.6052C14.2971 15.6365 14.2841 15.6685 14.2712 15.7007C14.2661 15.7133 14.261 15.7259 14.2559 15.7387C14.2425 15.7719 14.2289 15.8055 14.2152 15.8397C14.2114 15.8492 14.2075 15.8589 14.2037 15.8685C14.156 15.9872 14.1065 16.111 14.0552 16.24C14.0535 16.2442 14.0518 16.2484 14.0501 16.2527C14.0335 16.2944 14.0168 16.3368 13.9998 16.3795C13.9967 16.3875 13.9935 16.3954 13.9903 16.4034C13.9727 16.4476 13.9551 16.4922 13.9372 16.5375C13.9368 16.5384 13.9365 16.5392 13.9362 16.54C13.9169 16.5889 13.8975 16.638 13.8777 16.6882L13.5319 16.5413C13.5307 16.5407 13.5294 16.5402 13.5283 16.5397L12.7004 16.188L14.6806 14.708C14.6713 14.7295 14.662 14.7516 14.6525 14.7741ZM15.5072 13.6973L15.507 13.6973C15.5067 13.6972 15.5064 13.6972 15.5061 13.697C15.3022 13.6358 15.0847 13.646 14.8894 13.7204C14.7479 13.566 14.6495 13.338 14.6495 13.1175V12.094C15.7027 12.2492 16.5202 13.0454 16.7229 14.0641L15.5072 13.6973ZM18.2347 18.6738C18.2347 19.289 17.7342 19.7895 17.1191 19.7895C16.504 19.7895 16.0035 19.289 16.0035 18.6738C16.0035 18.0586 16.504 17.5582 17.1191 17.5582C17.7342 17.5582 18.2347 18.0586 18.2347 18.6738Z" fill="#434342"/>
</svg>
