<svg width="30" height="30" viewBox="0 0 30 30" fill="none" xmlns="http://www.w3.org/2000/svg">
<g clip-path="url(#clip0_1923_15887)">
<path d="M22.4445 9.22301C21.5481 8.86365 21.2891 8.64634 21.2891 8.25392C21.2891 7.93988 21.5269 7.57299 22.1975 7.57299C22.7907 7.57299 23.2456 7.80687 23.2497 7.8089C23.2975 7.83444 23.3512 7.84805 23.4044 7.84805C23.5342 7.84805 23.649 7.7695 23.6966 7.64791L23.8596 7.23139C23.9163 7.07961 23.8302 6.94737 23.7205 6.89993C23.3553 6.74096 22.6415 6.61794 22.6343 6.61667C22.6228 6.61464 22.5828 6.6061 22.5828 6.55934L22.5805 5.95511C22.5805 5.77314 22.4285 5.625 22.242 5.625H21.9497C21.7633 5.625 21.6115 5.77306 21.6115 5.95519L21.6122 6.59046C21.6122 6.63916 21.5595 6.6603 21.5402 6.66478C20.6393 6.87938 20.0762 7.53934 20.0762 8.37179C20.0762 9.40954 20.934 9.87849 21.8602 10.2305C22.6007 10.5212 22.9027 10.816 22.9027 11.2483C22.9027 11.7188 22.475 12.0473 21.8621 12.0473C21.3388 12.0473 20.6305 11.7156 20.6235 11.7122C20.5782 11.6908 20.5302 11.6799 20.4808 11.6799C20.346 11.6799 20.2287 11.7615 20.1817 11.8877L20.0261 12.309C19.9708 12.4662 20.056 12.5939 20.165 12.6507C20.5999 12.8773 21.4416 13.01 21.4791 13.0158C21.4891 13.0173 21.5404 13.0353 21.5404 13.0821V13.7146C21.5404 13.8966 21.6923 14.0447 21.8789 14.0447H22.181C22.3677 14.0447 22.5196 13.8967 22.5196 13.7146V13.049C22.5196 12.9868 22.5655 12.9813 22.575 12.979C23.5348 12.7634 24.126 12.0611 24.126 11.1794C24.1257 10.2737 23.6228 9.68849 22.4445 9.22301Z" fill="#00D2B4"/>
<path d="M22.0676 1.90234C17.6863 1.90234 14.1348 5.4541 14.1348 9.83518C14.1348 14.2163 17.6863 17.7682 22.0676 17.7682C26.4488 17.7682 30.0004 14.2163 30.0004 9.83518C30.0004 5.4541 26.4488 1.90234 22.0676 1.90234ZM22.0676 15.9297C18.7016 15.9297 15.9732 13.201 15.9732 9.83527C15.9732 6.46953 18.7016 3.74092 22.0676 3.74092C25.4334 3.74092 28.1618 6.46953 28.1618 9.83527C28.1618 13.201 25.4334 15.9297 22.0676 15.9297Z" fill="#00D2B4"/>
<path d="M28.388 21.6126C26.7012 22.5437 24.381 23.4046 22.0673 23.7675C20.0087 24.0903 16.1359 23.3117 16.1359 22.3922C16.1359 22.0437 19.5325 23.2507 21.5871 22.7026C23.1626 22.2822 22.9389 20.8084 22.082 20.614C21.23 20.4207 16.2385 18.5921 14.1064 18.529C13.1021 18.4993 10.6225 18.8783 9.42264 19.0737C9.01162 19.1406 8.75389 19.1332 8.72819 19.5266C8.60879 21.3547 8.37348 25.093 8.24521 27.0458C8.2425 27.087 8.29983 27.6419 8.7577 27.2514C9.25886 26.8241 9.96177 26.3504 10.6119 26.4979C11.6319 26.7293 20.4562 28.3459 21.6734 28.063C23.4147 27.6582 28.3438 24.7371 29.2889 23.8291C30.7537 22.4215 29.615 20.9354 28.388 21.6126Z" fill="#00D2B4"/>
<path d="M6.29316 19.002L1.67034 18.7743C1.31343 18.7567 0.94891 19.0256 0.860211 19.3717L0.0196436 27.0033C-0.0689707 27.3495 0.150705 27.6441 0.507783 27.6578L5.63101 27.6573C5.98817 27.6711 6.30255 27.3909 6.32995 27.0346L6.89258 19.6818C6.91981 19.3256 6.65007 19.0196 6.29316 19.002ZM3.57166 26.6463C2.8657 26.6463 2.29351 26.074 2.29351 25.3682C2.29351 24.6622 2.86579 24.09 3.57166 24.09C4.27753 24.09 4.8498 24.6623 4.8498 25.3682C4.8498 26.0741 4.27761 26.6463 3.57166 26.6463Z" fill="#00D2B4"/>
</g>
<defs>
<clipPath id="clip0_1923_15887">
<rect width="30" height="30" fill="white"/>
</clipPath>
</defs>
</svg>
