<svg width="20" height="21" viewBox="0 0 20 21" fill="none" xmlns="http://www.w3.org/2000/svg">
<path d="M14.6874 11.908L16.8891 13.2214C17.1107 13.3541 17.2857 13.5521 17.3902 13.7883C17.4946 14.0246 17.5234 14.2873 17.4724 14.5405C17.3734 15.0472 17.1716 15.5282 16.8793 15.9537C16.5869 16.3792 16.2104 16.7401 15.7729 17.0142C15.3355 17.2884 14.8464 17.4698 14.3361 17.5473C13.8257 17.6247 13.3048 17.5966 12.8057 17.4647C10.3731 16.7977 8.15585 15.5091 6.37213 13.7255C4.58841 11.9419 3.29959 9.72483 2.63239 7.29221C2.50032 6.79323 2.47207 6.27246 2.5494 5.76212C2.62672 5.25178 2.80798 4.76275 3.08193 4.32529C3.35589 3.88784 3.71672 3.51127 4.14209 3.21889C4.56747 2.92652 5.04832 2.72457 5.55489 2.62554H5.56823C5.82264 2.57445 6.08664 2.6038 6.32362 2.70952C6.56059 2.81524 6.7588 2.9921 6.89073 3.21554L8.19406 5.40971C8.41663 5.78679 8.48599 6.2349 8.38783 6.66161C8.28968 7.08833 8.03151 7.46111 7.66656 7.70304L6.28573 8.62388C7.26315 10.9656 9.12217 12.8291 11.4616 13.8122L12.3907 12.4247C12.6345 12.0608 13.0087 11.8044 13.436 11.7083C13.8633 11.6121 14.3112 11.6836 14.6874 11.908ZM16.6666 4.88804H15.2082V3.42971C15.2082 3.26395 15.1424 3.10498 15.0252 2.98777C14.908 2.87056 14.749 2.80471 14.5832 2.80471C14.4175 2.80471 14.2585 2.87056 14.1413 2.98777C14.0241 3.10498 13.9582 3.26395 13.9582 3.42971V4.88804H12.4999C12.3341 4.88804 12.1752 4.95389 12.058 5.0711C11.9407 5.18831 11.8749 5.34728 11.8749 5.51304C11.8749 5.6788 11.9407 5.83778 12.058 5.95499C12.1752 6.0722 12.3341 6.13804 12.4999 6.13804H13.9582V7.59638C13.9582 7.76214 14.0241 7.92111 14.1413 8.03832C14.2585 8.15553 14.4175 8.22138 14.5832 8.22138C14.749 8.22138 14.908 8.15553 15.0252 8.03832C15.1424 7.92111 15.2082 7.76214 15.2082 7.59638V6.13804H16.6666C16.8323 6.13804 16.9913 6.0722 17.1085 5.95499C17.2257 5.83778 17.2916 5.6788 17.2916 5.51304C17.2916 5.34728 17.2257 5.18831 17.1085 5.0711C16.9913 4.95389 16.8323 4.88804 16.6666 4.88804Z" fill="#434342"/>
</svg>
