<svg width="30" height="30" viewBox="0 0 30 30" fill="none" xmlns="http://www.w3.org/2000/svg">
<g clip-path="url(#clip0_563_21153)">
<path d="M22.3652 7.81641C24.5237 7.81641 26.2734 6.06664 26.2734 3.9082C26.2734 1.74976 24.5237 0 22.3652 0C20.2068 0 18.457 1.74976 18.457 3.9082C18.457 6.06664 20.2068 7.81641 22.3652 7.81641Z" fill="#00D2B4"/>
<path d="M20.5961 22.6934L18.9496 16.2363C18.6566 15.0879 17.6195 14.2793 16.4301 14.2793H13.5707C12.3813 14.2793 11.3441 15.0879 11.0512 16.2363L9.40469 22.6934C9.15859 23.6543 9.88516 24.5859 10.8754 24.5859H12.1117V28.6992C12.1117 29.4141 12.6918 30 13.4125 30H16.5941C17.309 30 17.8949 29.4199 17.8949 28.6992V24.5859H19.1313C20.1156 24.5859 20.8422 23.6543 20.5961 22.6934Z" fill="#00D2B4"/>
<path d="M15 13.5996C16.5954 13.5996 17.8887 12.3063 17.8887 10.7109C17.8887 9.11557 16.5954 7.82227 15 7.82227C13.4046 7.82227 12.1113 9.11557 12.1113 10.7109C12.1113 12.3063 13.4046 13.5996 15 13.5996Z" fill="#00D2B4"/>
<path d="M29.9355 20.1211L27.709 11.3848C27.3105 9.82617 25.9102 8.73633 24.3047 8.73633H20.4375C19.834 8.73633 19.2656 8.88867 18.7617 9.16406C18.9609 9.63867 19.0664 10.1602 19.0664 10.7109C19.0664 11.7656 18.6621 12.7266 18 13.4531C19.0137 13.916 19.7988 14.8184 20.0859 15.9492L21.3633 20.959L21.7324 22.4062C21.7559 22.4941 21.7734 22.5879 21.7852 22.6758C21.8965 23.4023 21.7031 24.1289 21.2461 24.7148C20.7363 25.377 19.957 25.752 19.125 25.752H19.0605V28.6934C19.0605 28.957 19.0195 29.209 18.9434 29.4492C19.2598 29.7832 19.7168 29.9941 20.2148 29.9941H24.5215C25.4941 29.9941 26.2793 29.209 26.2793 28.2363V22.6699H27.9492C29.2852 22.6758 30.2637 21.416 29.9355 20.1211Z" fill="#00D2B4"/>
<path d="M8.26792 22.4062L8.63706 20.959L9.9144 15.9492C10.2015 14.8125 10.9867 13.916 12.0003 13.4531C11.3382 12.7324 10.9339 11.7656 10.9339 10.7109C10.9339 10.166 11.0394 9.64453 11.2386 9.16406C10.7347 8.88867 10.1664 8.73633 9.56284 8.73633H5.69566C4.09019 8.73633 2.68394 9.82617 2.29136 11.3848L0.0647966 20.1211C-0.263328 21.416 0.715187 22.6758 2.05112 22.6758H3.72105V28.2422C3.72105 29.2148 4.5062 30 5.47886 30H9.7855C10.2835 30 10.7347 29.7891 11.057 29.4551C10.9808 29.2148 10.9398 28.9629 10.9398 28.6992V25.7578H10.8753C10.0375 25.7578 9.26401 25.377 8.75425 24.7207C8.29722 24.1348 8.10972 23.4023 8.21519 22.6816C8.22691 22.5879 8.24448 22.4941 8.26792 22.4062Z" fill="#00D2B4"/>
<path d="M11.54 3.91602C11.5444 1.75758 9.7981 0.00432127 7.63966 4.38298e-06C5.48121 -0.0043125 3.72795 1.74195 3.72364 3.90039C3.71932 6.05883 5.46558 7.81209 7.62402 7.81641C9.78246 7.82073 11.5357 6.07446 11.54 3.91602Z" fill="#00D2B4"/>
</g>
<defs>
<clipPath id="clip0_563_21153">
<rect width="30" height="30" fill="white"/>
</clipPath>
</defs>
</svg>
