<svg width="120" height="120" viewBox="0 0 120 120" fill="none" xmlns="http://www.w3.org/2000/svg">
<g clip-path="url(#clip0_1466_46144)">
<path d="M110.625 18.75V33.75H1.875V18.75H16.875V20.625C16.875 24.7688 20.2313 28.125 24.375 28.125C28.5187 28.125 31.875 24.7688 31.875 20.625V18.75H48.75V20.625C48.75 24.7688 52.1063 28.125 56.25 28.125C60.3937 28.125 63.75 24.7688 63.75 20.625V18.75H80.625V20.625C80.625 24.7688 83.9812 28.125 88.125 28.125C92.2688 28.125 95.625 24.7688 95.625 20.625V18.75H110.625Z" fill="#00D2B4"/>
<path d="M48.75 16.875H31.875V20.625H48.75V16.875ZM110.625 16.875H95.625V20.625H108.75V31.875H3.75V20.625H16.875V16.875H1.875C0.84375 16.875 0 17.7188 0 18.75V33.75C0 34.7812 0.84375 35.625 1.875 35.625H110.625C111.656 35.625 112.5 34.7812 112.5 33.75V18.75C112.5 17.7188 111.656 16.875 110.625 16.875ZM80.625 16.875H63.75V20.625H80.625V16.875Z" fill="#00D2B4"/>
<path d="M110.625 31.875H1.875C0.84375 31.875 0 32.7188 0 33.75V97.5C0 104.738 5.8875 110.625 13.125 110.625H99.375C106.613 110.625 112.5 104.738 112.5 97.5V92.625C111.319 93.6938 110.062 94.6688 108.75 95.5312V97.5C108.75 102.675 104.55 106.875 99.375 106.875H13.125C7.95 106.875 3.75 102.675 3.75 97.5V35.625H108.75V39.4687C110.062 40.3312 111.319 41.3063 112.5 42.375V33.75C112.5 32.7188 111.656 31.875 110.625 31.875Z" fill="#00D2B4"/>
<path d="M61.875 15C61.875 11.8934 59.3566 9.375 56.25 9.375C53.1434 9.375 50.625 11.8934 50.625 15V20.625C50.625 23.7316 53.1434 26.25 56.25 26.25C59.3566 26.25 61.875 23.7316 61.875 20.625V15Z" fill="#00D2B4"/>
<path d="M30 15C30 11.8934 27.4816 9.375 24.375 9.375C21.2684 9.375 18.75 11.8934 18.75 15V20.625C18.75 23.7316 21.2684 26.25 24.375 26.25C27.4816 26.25 30 23.7316 30 20.625V15Z" fill="#00D2B4"/>
<path d="M93.75 15C93.75 11.8934 91.2316 9.375 88.125 9.375C85.0184 9.375 82.5 11.8934 82.5 15V20.625C82.5 23.7316 85.0184 26.25 88.125 26.25C91.2316 26.25 93.75 23.7316 93.75 20.625V15Z" fill="#00D2B4"/>
<path d="M39.375 46.875H50.625V58.125H39.375V46.875Z" fill="#00D2B4"/>
<path d="M16.875 65.625H28.125V76.875H16.875V65.625Z" fill="#00D2B4"/>
<path d="M39.375 65.625H50.625V76.875H39.375V65.625Z" fill="#00D2B4"/>
<path d="M16.875 84.375H28.125V95.625H16.875V84.375Z" fill="#00D2B4"/>
<path d="M39.375 84.375H50.625V95.625H39.375V84.375Z" fill="#00D2B4"/>
<path d="M63.7498 99.375C63.3186 99.375 62.9061 99.225 62.5686 98.9625C62.0061 98.5125 61.7623 97.7625 61.9311 97.0688L65.0623 84.15C61.7623 79.2 60.0186 73.4625 60.0186 67.5C60.0186 50.9625 73.4811 37.5 90.0186 37.5C106.556 37.5 120.019 50.9625 120.019 67.5C120.019 84.0375 106.556 97.5 90.0186 97.5C85.0311 97.5 80.1186 96.2625 75.7498 93.9L64.5748 99.2062C64.3123 99.3187 64.0498 99.3937 63.7686 99.3937L63.7498 99.375ZM89.9998 41.25C75.5248 41.25 63.7498 53.025 63.7498 67.5C63.7498 72.975 65.4186 78.225 68.6061 82.6875C68.9248 83.1375 69.0186 83.6813 68.9061 84.2062L66.5061 94.1062L75.0186 90.075C75.5811 89.8125 76.2373 89.8313 76.7623 90.15C80.7748 92.4938 85.3498 93.7313 89.9998 93.7313C104.475 93.7313 116.25 81.9563 116.25 67.4813C116.25 53.0063 104.475 41.2312 89.9998 41.2312V41.25Z" fill="#00D2B4"/>
<rect x="96.6152" y="54.5273" width="8" height="29.1537" transform="rotate(45 96.6152 54.5273)" fill="#00D2B4"/>
<rect x="76" y="60.1846" width="8" height="29.1537" transform="rotate(-45 76 60.1846)" fill="#00D2B4"/>
</g>
<defs>
<clipPath id="clip0_1466_46144">
<rect width="120" height="120" fill="white"/>
</clipPath>
</defs>
</svg>
