<svg width="47" height="37" viewBox="0 0 47 37" fill="none" xmlns="http://www.w3.org/2000/svg">
<path fill-rule="evenodd" clip-rule="evenodd" d="M35.755 6.40658H40.5287C43.5622 6.40658 46.0214 8.86574 46.0214 11.8993V31.2888C46.0214 34.3224 43.5622 36.7815 40.5287 36.7815H5.57478C2.54119 36.7815 0.0820312 34.3224 0.0820312 31.2888V11.8993C0.0820312 8.86574 2.54119 6.40658 5.57478 6.40658H10.3534L13.015 2.41186C14.0363 0.904373 15.7382 0.0010728 17.559 0H28.5445C30.3653 0.00117033 32.0672 0.90447 33.0885 2.41186L35.755 6.40658ZM10.6831 19.9188C10.6831 26.7499 16.2207 32.2875 23.0517 32.2875C29.8793 32.2792 35.4122 26.7463 35.4204 19.9188C35.4204 13.0878 29.8827 7.55019 23.0517 7.55019C16.2207 7.55019 10.6831 13.0878 10.6831 19.9188ZM39.6547 14.1414C39.7147 14.1447 39.7748 14.1447 39.8347 14.1414C40.7297 14.0917 41.4149 13.326 41.365 12.4311C41.3154 11.5361 40.5496 10.8509 39.6547 10.9007H37.6573C36.8319 10.9465 36.1728 11.6056 36.1269 12.4311C36.0773 13.326 36.7624 14.0917 37.6573 14.1414H39.6547ZM16.1657 19.9187C16.1657 16.1157 19.2486 13.0328 23.0516 13.0328C26.8534 13.0356 29.9348 16.1169 29.9375 19.9187C29.9375 23.7217 26.8546 26.8046 23.0516 26.8046C19.2486 26.8046 16.1657 23.7217 16.1657 19.9187Z" fill="#00D2B4"/>
</svg>
