<svg width="24" height="29" viewBox="0 0 24 29" fill="none" xmlns="http://www.w3.org/2000/svg">
<path fill-rule="evenodd" clip-rule="evenodd" d="M21.6704 22.6353L18.7021 18.4994C18.6038 18.3624 18.5507 18.1974 18.5503 18.028V12.0922C18.5503 10.3232 17.8568 8.62665 16.6224 7.37579C15.3879 6.12493 13.7137 5.42221 11.9679 5.42221C10.2222 5.42221 8.54789 6.12493 7.31345 7.37579C6.07901 8.62665 5.38551 10.3232 5.38551 12.0922V18.0285C5.38571 18.1979 5.3328 18.363 5.2344 18.4999L2.26701 22.6353C2.21862 22.7026 2.18956 22.7822 2.18304 22.8652C2.17653 22.9482 2.19281 23.0314 2.2301 23.1057C2.26738 23.1799 2.3242 23.2422 2.39428 23.2857C2.46436 23.3292 2.54495 23.3522 2.62714 23.3522H21.3096C21.3918 23.3524 21.4725 23.3294 21.5427 23.286C21.6129 23.2425 21.6698 23.1802 21.7072 23.106C21.7445 23.0317 21.7609 22.9485 21.7544 22.8654C21.7479 22.7823 21.7188 22.7027 21.6704 22.6353ZM14.5532 24.9548H9.38397C9.42908 25.6182 9.721 26.2396 10.2007 26.6934C10.6805 27.1472 11.3123 27.3995 11.9686 27.3995C12.6249 27.3995 13.2567 27.1472 13.7365 26.6934C14.2162 26.2396 14.5081 25.6182 14.5532 24.9548ZM11.265 2.5179C11.265 2.6588 11.3062 2.79653 11.3835 2.91369C11.4607 3.03085 11.5705 3.12217 11.699 3.17611C11.8274 3.23006 11.9688 3.2442 12.1052 3.21676C12.2416 3.18932 12.3669 3.12152 12.4652 3.02193C12.5636 2.92235 12.6307 2.79545 12.6579 2.65727C12.6851 2.5191 12.6713 2.37585 12.6182 2.24562C12.565 2.1154 12.475 2.00406 12.3595 1.92567C12.2439 1.84727 12.1081 1.80535 11.969 1.80519C11.7824 1.80511 11.6034 1.88015 11.4713 2.0138C11.3393 2.14746 11.2651 2.32878 11.265 2.5179ZM22.9491 21.6931L20.1319 17.7675V12.0922C20.129 10.206 19.4912 8.37726 18.3238 6.90816C17.1563 5.43907 15.5292 4.41755 13.7112 4.01241C13.9932 3.67557 14.1741 3.26401 14.2328 2.82633C14.2914 2.38865 14.2252 1.94312 14.042 1.54232C13.8588 1.14152 13.5663 0.802185 13.199 0.564372C12.8317 0.326559 12.4049 0.200195 11.969 0.200195C11.5331 0.200195 11.1063 0.326559 10.739 0.564372C10.3717 0.802185 10.0792 1.14152 9.896 1.54232C9.71283 1.94312 9.64664 2.38865 9.70525 2.82633C9.76386 3.26401 9.94483 3.67557 10.2268 4.01241C8.40866 4.41743 6.78133 5.43889 5.61371 6.90798C4.44608 8.37707 3.80806 10.2059 3.80506 12.0922V17.7673L0.988478 21.6929C0.768464 21.9992 0.636401 22.3613 0.606902 22.7391C0.577404 23.1168 0.651619 23.4954 0.821338 23.8331C0.991057 24.1707 1.24966 24.4542 1.56853 24.6521C1.88739 24.8501 2.25409 24.9547 2.62803 24.9546H7.80066C7.84687 26.0433 8.3062 27.0718 9.08278 27.8256C9.85936 28.5794 10.8932 29.0002 11.9686 29.0002C13.044 29.0002 14.0779 28.5794 14.8544 27.8256C15.631 27.0718 16.0903 26.0433 16.1366 24.9546H21.31C21.6839 24.9547 22.0506 24.8501 22.3695 24.6521C22.6884 24.4542 22.947 24.1707 23.1167 23.8331C23.2864 23.4954 23.3606 23.1168 23.3311 22.7391C23.3016 22.3613 23.1692 21.9994 22.9491 21.6931Z" fill="black"/>
</svg>
