<svg width="18" height="15" viewBox="0 0 18 15" fill="none" xmlns="http://www.w3.org/2000/svg">
<path d="M1.54793 3.46543C4.4645 2.18014 7.14651 2.80339 8.52008 3.46463C8.82824 3.61298 9 3.93445 9 4.27647V13.1129C9 13.8529 8.21415 14.3477 7.49924 14.1564C5.7467 13.6874 3.95024 13.8029 2.46627 14.1969C1.76219 14.3839 1 13.8885 1 13.1601V4.33497C1 3.96199 1.20663 3.61584 1.54793 3.46543Z" stroke="white"/>
<path d="M15.5 3.07275C15.89 3.19023 16.2329 3.32628 16.5191 3.46399C16.8273 3.61228 17 3.93427 17 4.27628C17 6.11262 17 9.60259 17 13.1127C17 13.8528 16.2142 14.3475 15.4992 14.1562C13.7246 13.6813 11.9049 13.8057 10.4102 14.2118C9.73326 14.3957 9 13.9186 9 13.2171V13.2171" stroke="white"/>
<path d="M9 3.72853C10.7503 1.96833 12.8835 0.982496 14.7294 1.09915C15.1873 1.12809 15.5 1.53815 15.5 1.99695C15.5 3.92906 15.5 7.39395 15.5 10.8392C15.5 11.5189 14.8133 12.0561 14.1355 12.107C12.463 12.2326 10.2598 13.0774 9.5 14.2172" stroke="white"/>
</svg>
