<svg width="121" height="120" viewBox="0 0 121 120" fill="none" xmlns="http://www.w3.org/2000/svg">
<path d="M60.5 3.75C49.3748 3.75 38.4995 7.049 29.2492 13.2298C19.9989 19.4107 12.7892 28.1957 8.5318 38.4741C4.27437 48.7524 3.16043 60.0624 5.33085 70.9738C7.50127 81.8853 12.8586 91.9081 20.7253 99.7748C28.592 107.641 38.6148 112.999 49.5262 115.169C60.4376 117.34 71.7476 116.226 82.026 111.968C92.3043 107.711 101.089 100.501 107.27 91.2508C113.451 82.0006 116.75 71.1252 116.75 60C116.745 45.0831 110.817 30.7786 100.269 20.2307C89.7215 9.68289 75.4169 3.75497 60.5 3.75ZM60.5 93.75C59.0167 93.75 57.5666 93.3101 56.3332 92.486C55.0999 91.6619 54.1386 90.4906 53.5709 89.1201C53.0033 87.7497 52.8547 86.2417 53.1441 84.7868C53.4335 83.332 54.1478 81.9956 55.1967 80.9467C56.2456 79.8978 57.582 79.1835 59.0368 78.8941C60.4917 78.6047 61.9997 78.7532 63.3702 79.3209C64.7406 79.8886 65.9119 80.8499 66.736 82.0832C67.5602 83.3166 68 84.7666 68 86.25C67.9941 88.2373 67.202 90.1415 65.7968 91.5467C64.3915 92.952 62.4873 93.7441 60.5 93.75ZM69.0875 35.5875L66.575 65.6625C66.444 67.1834 65.7472 68.5999 64.6224 69.632C63.4976 70.664 62.0266 71.2367 60.5 71.2367C58.9735 71.2367 57.5024 70.664 56.3776 69.632C55.2528 68.5999 54.556 67.1834 54.425 65.6625L51.9125 35.5875C51.8042 34.4226 51.934 33.2478 52.294 32.1346C52.654 31.0214 53.2367 29.9931 54.0067 29.1123C54.7767 28.2314 55.7178 27.5165 56.7729 27.0108C57.8279 26.5052 58.9748 26.2195 60.1437 26.1711C61.3127 26.1227 62.4792 26.3126 63.5725 26.7294C64.6657 27.1461 65.6627 27.7808 66.5029 28.595C67.343 29.4092 68.0087 30.3858 68.4595 31.4655C68.9103 32.5451 69.1367 33.7051 69.125 34.875C69.1312 35.1131 69.1187 35.3514 69.0875 35.5875Z" fill="#00D2B4"/>
</svg>
