<svg width="30" height="30" viewBox="0 0 30 30" fill="none" xmlns="http://www.w3.org/2000/svg">
<path d="M15 3.36365C16.0208 3.36365 16.9469 3.77449 17.623 4.43871H19.8379C18.8942 2.73697 17.0798 1.58203 15 1.58203C12.9201 1.58203 11.1058 2.73697 10.1621 4.43871H12.377C13.0533 3.77449 13.9792 3.36365 15 3.36365Z" fill="#00D2B4"/>
<path d="M29.1092 6.2207H0.890808C0.398712 6.2207 0 6.61942 0 7.11151V27.4792C0 27.9713 0.398712 28.3701 0.890808 28.3701H29.1092C29.6013 28.3701 30 27.9713 30 27.4792V7.11151C30 6.61942 29.6013 6.2207 29.1092 6.2207ZM21.8092 18.8573C21.8092 19.3491 21.4105 19.7481 20.9187 19.7481H17.5431V23.1236C17.5431 23.6155 17.1442 24.0144 16.6523 24.0144H13.3477C12.8558 24.0144 12.4569 23.6155 12.4569 23.1236V19.7481H9.08134C8.58948 19.7481 8.19077 19.3491 8.19077 18.8573V15.5529C8.19077 15.0608 8.58948 14.6621 9.08134 14.6621H12.4569V11.2865C12.4569 10.7944 12.8558 10.3957 13.3477 10.3957H16.6523C17.1442 10.3957 17.5431 10.7944 17.5431 11.2865V14.6621H20.9187C21.4105 14.6621 21.8092 15.0608 21.8092 15.5529V18.8573Z" fill="#00D2B4"/>
<path d="M15.761 15.5523V12.1768H14.238V15.5523C14.238 16.0442 13.8391 16.4429 13.3472 16.4429H9.97168V17.9659H13.3472C13.8391 17.9659 14.238 18.3648 14.238 18.8567V22.2322H15.761V18.8567C15.761 18.3648 16.16 17.9659 16.6518 17.9659H20.0274V16.4429H16.6518C16.16 16.4429 15.761 16.0442 15.761 15.5523Z" fill="#00D2B4"/>
</svg>
