<svg width="445" height="476" viewBox="0 0 445 476" fill="none" xmlns="http://www.w3.org/2000/svg">
<path d="M184.673 349.013C184.673 349.013 186.079 378.368 183.505 401.849C180.173 432.183 169.262 478.386 229.835 474.17C290.329 469.954 236.641 237.262 236.641 237.262" stroke="#AAAAAA" stroke-width="2.24" stroke-linecap="round" stroke-linejoin="round"/>
<mask id="mask0_1923_16199" style="mask-type:luminance" maskUnits="userSpaceOnUse" x="0" y="0" width="445" height="444">
<path d="M222.659 443.995C345.184 443.995 444.511 344.669 444.511 222.143C444.511 99.6176 345.184 0.291016 222.659 0.291016C100.133 0.291016 0.806641 99.6176 0.806641 222.143C0.806641 344.669 100.133 443.995 222.659 443.995Z" fill="white"/>
</mask>
<g mask="url(#mask0_1923_16199)">
<path d="M233.5 497.21C376.934 497.21 493.21 380.934 493.21 237.5C493.21 94.0654 376.934 -22.2109 233.5 -22.2109C90.0654 -22.2109 -26.2109 94.0654 -26.2109 237.5C-26.2109 380.934 90.0654 497.21 233.5 497.21Z" fill="#06EAC9" stroke="#222221" stroke-miterlimit="10"/>
<path d="M323.324 245.318C323.324 245.318 368.044 267.804 379.16 312.271C391.84 362.991 389.014 446.098 389.014 446.098L343.315 446.808L323.324 245.318Z" fill="#F9FBFB"/>
<path d="M232.353 221.711C232.353 221.711 137.498 230.159 123.492 269.289C114.412 294.664 101.653 393.956 99.5371 445.387L370.727 446.792C370.727 446.792 360.4 277.737 334.803 253.087C321.002 239.791 265.466 221 232.353 221.711Z" fill="#F9FBFB"/>
<path d="M145.142 246.06C145.142 246.06 87.7896 281.036 61.3243 326.04C55.7028 335.593 18.2945 378.718 22.8738 396.783C30.4534 426.722 35.9486 423.69 61.3243 416.774C86.7 409.857 110.576 406.415 110.576 406.415C110.576 406.415 118.234 389.093 119.766 369.101C121.298 349.11 123.603 342.952 129.761 335.262C135.92 327.572 152.058 296.811 163.601 285.284C175.128 273.741 170.517 244.528 145.142 246.06Z" fill="#F9FBFB"/>
<path d="M113.853 350.182C113.853 350.182 101.173 344.782 100.936 360.509C100.746 373.726 94.3667 409.35 109.384 409.113C116.948 409.003 120.185 400.428 122.537 394.791C124.89 389.154 130.749 373.9 127.464 363.099C124.18 352.298 113.853 350.182 113.853 350.182Z" fill="#E2E2F2"/>
<path d="M194.101 344.404C194.101 344.404 194.101 351.4 181.469 355.6C181.2 355.679 180.932 355.774 180.664 355.868C167.226 360.037 155.43 367.727 155.161 368.154C154.893 368.564 139.671 379.381 129.912 377.091C128.238 376.696 126.264 376.965 124.117 377.691C117.548 379.902 109.447 386.313 104.363 390.766C101.362 393.387 99.4043 395.314 99.4043 395.314C99.1517 386.029 99.9096 373.696 100.968 360.416L103.178 359.137L104.442 358.411C104.442 358.411 110.711 352 112.874 345.115C115.037 338.246 121.748 332.593 125.064 329.908C128.38 327.24 135.328 320.671 138.186 322.092C138.186 322.092 146.871 311.465 151.372 315.255C151.372 315.255 159.109 306.964 164.478 312.286C164.478 312.286 170.289 301.532 175.879 307.249C181.485 312.965 192.759 339.178 186.159 340.157C179.574 341.151 172.058 332.324 171.11 321.366L168.536 318.886C168.536 318.886 156.898 337.488 159.22 347.515C159.22 347.515 172.073 352.742 183.269 344.246C194.465 335.751 194.086 344.404 194.086 344.404H194.101Z" fill="#F4B799"/>
<path opacity="0.5" d="M58.2852 361.694C58.2852 361.694 87.4033 345.888 110.253 349.33C110.253 349.33 104.426 346.551 90.8457 347.135C72.6863 347.925 58.2852 361.694 58.2852 361.694Z" fill="#E2E2F2"/>
<g style="mix-blend-mode:soft-light" opacity="0.2">
<path d="M181.453 355.614C181.185 355.693 180.916 355.788 180.648 355.882C167.21 360.051 155.414 367.741 155.146 368.168C154.877 368.578 139.655 379.395 129.896 377.105C128.222 376.71 126.249 376.979 124.101 377.705C120.485 377.405 116.427 375.794 115.448 372.305C114.121 367.536 119.443 363.004 118.716 358.109C118.401 355.977 116.932 353.94 117.469 351.84C117.958 349.898 119.932 348.824 121.543 347.64C125.585 344.639 125.743 341.102 127.843 337.076C130.212 332.544 131.538 333.996 136.37 332.97C140.555 332.101 143.271 326.748 147.519 327.064C151.34 327.348 152.872 332.275 152.351 336.081C151.83 339.886 150.298 343.834 151.751 347.387C154.025 352.929 161.557 353.419 167.526 352.945C172.326 352.582 178.09 352.74 181.453 355.63V355.614Z" fill="black"/>
</g>
<path d="M171.788 343.14C171.788 343.14 171.741 343.204 171.725 343.235C170.335 345.225 167.335 345.146 165.993 343.14C164.793 341.34 163.893 338.403 164.808 333.682C164.808 333.682 157.403 327.602 159.171 323.592C159.171 323.592 152.05 320.418 151.607 315.365C151.607 315.365 152.207 314.354 153.25 313.154C155.318 310.785 159.076 307.69 163.277 310.185C168.914 313.549 177.631 334.535 171.804 343.125L171.788 343.14Z" fill="#F4B799"/>
<g style="mix-blend-mode:soft-light" opacity="0.2">
<path d="M171.788 343.141C171.788 343.141 171.741 343.204 171.725 343.236C170.335 345.225 167.335 345.146 165.993 343.141C164.793 341.341 163.893 338.404 164.808 333.682C164.808 333.682 157.403 327.603 159.171 323.592C159.171 323.592 152.05 320.418 151.607 315.365C151.607 315.365 152.207 314.354 153.25 313.154C156.471 314.118 160.071 317.623 160.719 320.181C161.145 321.887 161.113 323.734 161.935 325.297C163.229 327.777 166.388 328.898 167.509 331.456C168.646 334.061 167.303 337.314 168.646 339.825C169.372 341.183 170.73 342.036 171.82 343.125L171.788 343.141Z" fill="black"/>
</g>
<path d="M158.461 349.187C158.461 349.187 158.414 349.25 158.398 349.282C156.866 351.161 153.882 350.845 152.682 348.745C151.624 346.866 150.945 343.866 152.208 339.223C152.208 339.223 145.276 332.607 147.344 328.738C147.344 328.738 140.475 325.027 140.412 319.974C140.412 319.974 141.091 319.011 142.212 317.89C144.439 315.679 148.434 312.884 152.429 315.695C157.798 319.485 164.919 341.055 158.445 349.187H158.461Z" fill="#F4B799"/>
<g style="mix-blend-mode:soft-light" opacity="0.2">
<path d="M158.461 349.188C158.461 349.188 158.414 349.251 158.398 349.283C156.866 351.162 153.882 350.846 152.682 348.746C151.624 346.867 150.945 343.866 152.208 339.224C152.208 339.224 145.276 332.608 147.344 328.739C147.344 328.739 140.475 325.028 140.412 319.975C140.412 319.975 141.091 319.012 142.212 317.891C145.355 319.091 148.671 322.849 149.129 325.454C149.429 327.191 149.255 329.039 149.95 330.65C151.055 333.208 154.118 334.581 155.034 337.218C155.966 339.903 154.387 343.045 155.524 345.651C156.14 347.056 157.435 348.004 158.429 349.188H158.461Z" fill="black"/>
</g>
<path d="M144.675 353.056C144.675 353.056 144.627 353.119 144.612 353.135C144.075 353.704 143.412 354.004 142.717 354.083C141.453 354.225 140.111 353.577 139.511 352.314C138.674 350.561 138.232 347.814 139.653 343.708C139.653 343.708 133.795 337.344 135.895 333.981C135.895 333.981 135.453 333.713 134.821 333.207C133.116 331.881 130.005 328.991 130.179 325.659C130.179 325.659 130.842 324.838 131.932 323.891C134.063 322.043 137.822 319.754 141.264 322.517C145.875 326.244 151.007 346.108 144.691 353.04L144.675 353.056Z" fill="#F4B799"/>
<g style="mix-blend-mode:soft-light" opacity="0.3">
<path d="M142.702 354.083C141.439 354.225 140.097 353.577 139.496 352.314C138.66 350.561 138.217 347.814 139.639 343.708C139.639 343.708 133.78 337.344 135.88 333.981C135.88 333.981 135.438 333.713 134.807 333.207C136.038 333.049 137.775 333.539 138.517 334.344C139.765 335.702 139.575 337.771 139.954 339.571C140.349 341.371 141.36 343.045 141.312 344.892C141.265 346.408 140.476 347.829 140.539 349.345C140.602 351.098 141.786 352.567 142.734 354.083H142.702Z" fill="black"/>
</g>
<g style="mix-blend-mode:soft-light" opacity="0.2">
<path d="M104.347 390.75C101.347 393.371 99.3887 395.298 99.3887 395.298C99.1361 386.013 99.894 373.68 100.952 360.4L103.163 359.121C103.368 360.179 103.052 362.074 103.068 362.911C103.1 364.395 103.131 365.88 103.178 367.364C103.352 373.238 103.652 379.112 104.079 384.971C104.221 386.897 104.363 388.823 104.347 390.75Z" fill="black"/>
</g>
<path d="M101.014 357.146C101.014 357.146 97.8873 396.276 101.172 401.913C101.172 401.913 90.3709 375.148 101.014 357.146Z" fill="#FEFFFF"/>
<path d="M324.927 309.332C324.927 309.332 317.173 403.019 336.438 450.438C336.438 450.438 328.922 429.784 324.927 309.332Z" fill="#E2E2F2"/>
<path d="M311.932 220.904L269.771 222.135L202.739 224.093L154.404 225.499C133.118 43.1471 214.298 37.573 214.298 37.573C367.926 18.5135 311.948 220.904 311.948 220.904H311.932Z" fill="#4E2F20"/>
<g style="mix-blend-mode:soft-light" opacity="0.3">
<path d="M292.652 147.066C292.715 155.262 290.726 163.473 286.92 170.721C281.441 181.19 272.219 190.001 270.056 201.592C269.187 206.281 269.55 211.098 269.692 215.866C269.756 217.951 269.771 220.051 269.756 222.135L202.724 224.093C203.261 214.319 204.224 204.26 200.261 195.402C197.987 190.349 194.26 186.117 191.102 181.569C183.349 170.484 174.537 150.587 177.948 136.597C180.648 125.528 205.724 128.986 214.583 125.149C219.02 123.238 222.857 120.08 227.389 118.406C232.553 116.495 238.237 116.637 243.732 117.111C254.296 118.027 264.766 120.08 274.872 123.238C278.898 124.485 282.972 125.985 286.083 128.828C290.994 133.312 292.621 140.402 292.652 147.05V147.066Z" fill="black"/>
</g>
<path d="M197.118 132.761C196.408 139.52 190.344 144.431 183.586 143.72C176.827 143.009 171.916 136.946 172.627 130.187C173.338 123.429 179.401 118.518 186.16 119.229C192.918 119.939 197.829 126.003 197.118 132.761Z" fill="#F4B799"/>
<g style="mix-blend-mode:soft-light" opacity="0.6">
<path d="M189.603 132.129C189.603 135.397 186.95 138.05 183.681 138.05C180.413 138.05 177.76 135.397 177.76 132.129C177.76 128.86 180.413 126.207 183.681 126.207C186.95 126.207 189.603 128.86 189.603 132.129Z" fill="black"/>
</g>
<path d="M297.517 133.41C296.806 140.168 290.743 145.079 283.984 144.368C277.226 143.658 272.315 137.594 273.025 130.836C273.736 124.077 279.8 119.166 286.558 119.877C293.317 120.588 298.227 126.651 297.517 133.41Z" fill="#F4B799"/>
<g style="mix-blend-mode:soft-light" opacity="0.6">
<path d="M291.958 132.129C291.958 135.397 289.305 138.05 286.037 138.05C282.768 138.05 280.115 135.397 280.115 132.129C280.115 128.86 282.768 126.207 286.037 126.207C289.305 126.207 291.958 128.86 291.958 132.129Z" fill="black"/>
</g>
<path d="M237.558 252.281C223.852 252.186 212.83 241.022 212.909 227.316L213.161 187.76L262.776 188.076L262.523 227.631C262.428 241.338 251.264 252.36 237.558 252.281Z" fill="#F4B799"/>
<g style="mix-blend-mode:soft-light" opacity="0.6">
<path d="M213.1 197.804C213.1 197.804 236.58 211.858 262.73 195.277L262.683 202.036C262.683 202.036 234.607 217.732 213.1 197.804Z" fill="black"/>
</g>
<path d="M269.724 66.3606C243.859 37.6057 195.981 50.9015 187.77 88.7045C184.091 105.664 181.848 126.76 185.638 147.825C194.181 195.276 224.752 214.636 258.023 198.103C291.31 181.57 292.81 113.828 280.983 84.4884C278.267 77.7616 274.445 71.6347 269.708 66.3606H269.724Z" fill="#F4B799"/>
<path d="M255.765 164.817C255.765 164.817 235.063 169.522 215.641 165.685C215.641 165.685 219.446 183.402 236.09 182.992C251.77 182.613 255.654 168.243 255.765 164.801V164.817Z" fill="#B22828"/>
<path d="M235.442 173.754C222.652 174.038 218.783 168.811 217.109 165.953C232.174 168.59 244.238 166.553 254.755 165.021C253.681 168.259 247.507 173.485 235.442 173.754Z" fill="white"/>
<g style="mix-blend-mode:soft-light">
<path d="M233.295 126.809C233.784 131.388 234.416 136.299 237.495 139.741C239.469 141.936 242.39 143.452 243.401 146.215C244.396 148.916 243.133 152.058 240.985 153.953C238.822 155.848 235.948 156.7 233.105 157.158" stroke="black" stroke-width="1.16" stroke-linecap="round" stroke-linejoin="round"/>
</g>
<path d="M220.126 129.223C220.126 132.539 218.12 135.24 215.641 135.24C213.162 135.24 211.141 132.539 211.141 129.223C211.141 125.907 213.146 123.207 215.641 123.207C218.12 123.207 220.141 125.907 220.141 129.223H220.126Z" fill="#32324C"/>
<path d="M196.312 117.287C196.312 117.287 200.26 108.223 208.471 105.665C216.067 103.281 221.641 105.049 224.452 106.423C225.683 107.023 226.252 108.46 225.841 109.755C225.336 111.286 223.63 112.076 222.146 111.46C217.409 109.486 207.05 107.133 196.328 117.287H196.312Z" fill="#4E2F20"/>
<path d="M251.438 129.223C251.438 132.539 253.443 135.24 255.922 135.24C258.401 135.24 260.423 132.539 260.423 129.223C260.423 125.907 258.417 123.207 255.922 123.207C253.443 123.207 251.422 125.907 251.422 129.223H251.438Z" fill="#32324C"/>
<path d="M273.593 118.058C273.593 118.058 270.356 108.726 262.382 105.521C254.992 102.552 249.307 103.878 246.386 105.031C245.123 105.536 244.428 106.91 244.744 108.252C245.123 109.831 246.765 110.731 248.297 110.242C253.176 108.647 263.677 107.1 273.593 118.074V118.058Z" fill="#4E2F20"/>
<g style="mix-blend-mode:soft-light" opacity="0.6">
<path d="M249.559 88.8611L255.07 98.1303C265.776 98.9356 272.251 101.194 286.068 103.294C286.068 103.294 278.551 47.5367 230.768 50.9002C188.054 53.9162 185.102 103.531 185.102 103.531C185.102 103.531 197.608 95.5406 245.675 97.7829L249.544 88.8611H249.559Z" fill="black"/>
</g>
<path d="M248.928 84.7872L255.607 96.3618C266.313 97.1671 278.488 98.5251 292.289 100.625C292.289 100.625 289.936 47.3789 230.768 47.3789C171.6 47.3789 183.333 103.262 183.333 103.262C183.333 103.262 196.992 93.4879 245.059 95.7144L248.912 84.7872H248.928Z" fill="#4E2F20"/>
<path d="M206.213 227.93C206.213 227.93 204.792 290.461 236.105 296.714C267.418 302.983 271.476 229.335 271.476 229.335C271.476 229.335 246.195 221.898 206.213 227.93Z" fill="#F4B799"/>
<path d="M215.75 273.883C215.75 273.883 232.188 368.896 239.626 371.786C239.626 371.786 261.78 294.853 264.591 277.941C264.591 277.941 237.983 298.295 215.75 273.867V273.883Z" fill="#529F90"/>
<path d="M206.212 227.932C206.212 227.932 189.806 231.737 176.668 235.748C176.668 235.748 181.389 280.61 190.816 296.906L208.818 295.184L192.522 308.038C192.522 308.038 217.25 365.769 239.547 371.77L206.212 227.932Z" fill="#E2E2F2"/>
<path d="M212.876 227.031C212.876 227.031 204.175 227.3 176.541 235.527C176.541 235.527 183.947 280.041 193.374 296.337L211.375 294.616L195.079 307.469C195.079 307.469 217.376 365.769 239.657 371.769L212.86 227.031H212.876Z" fill="#F9FBFB"/>
<path d="M271.159 230.363C271.159 230.363 287.913 234.343 301.05 238.353C301.05 238.353 296.676 281.194 287.249 297.49L269.248 295.769L285.544 308.622C285.544 308.622 262.158 365.548 239.861 371.548L271.174 230.363H271.159Z" fill="#E2E2F2"/>
<path d="M262.585 227.535C262.585 227.535 287.597 232.067 301.209 238.257C301.209 238.257 294.103 280.608 284.676 296.888L266.675 295.167L282.971 308.021C282.971 308.021 261.922 365.752 239.625 371.752L262.601 227.52L262.585 227.535Z" fill="#F9FBFB"/>
<path d="M240.163 411.467L228.193 448.796L253.553 449.033L240.163 411.467Z" fill="#529F90"/>
<path d="M239.956 412.778C243.419 412.778 246.225 409.971 246.225 406.509C246.225 403.047 243.419 400.24 239.956 400.24C236.494 400.24 233.688 403.047 233.688 406.509C233.688 409.971 236.494 412.778 239.956 412.778Z" fill="#D4D2EA"/>
<path d="M245.563 405.941C245.563 409.399 242.768 412.21 239.31 412.21C238.394 412.21 237.526 412.02 236.736 411.641C234.557 410.678 233.041 408.483 233.041 405.941C233.041 402.483 235.836 399.672 239.31 399.672H239.405C242.816 399.735 245.563 402.514 245.563 405.941Z" fill="#FBFBFD"/>
<path d="M243.542 405.941C243.542 408.278 241.647 410.173 239.31 410.173C236.973 410.173 235.078 408.278 235.078 405.941C235.078 403.604 236.973 401.709 239.31 401.709C241.647 401.709 243.542 403.604 243.542 405.941Z" fill="#D4D2EA"/>
<g style="mix-blend-mode:soft-light">
<path d="M245.563 405.941C245.563 409.399 242.768 412.21 239.31 412.21C238.394 412.21 237.526 412.02 236.736 411.641C236.878 411.168 237.21 410.773 237.621 410.473C238.142 410.094 238.773 409.873 239.389 409.636C240.637 409.162 241.884 408.594 242.753 407.583C243.621 406.572 243.984 405.041 243.289 403.904C243.084 403.572 242.816 403.304 242.532 403.02C241.9 402.388 241.252 401.756 240.621 401.125C240.194 400.698 239.642 400.256 239.421 399.672C242.832 399.735 245.579 402.514 245.579 405.941H245.563Z" fill="black"/>
</g>
<path d="M239.956 384.606C243.419 384.606 246.225 381.8 246.225 378.337C246.225 374.875 243.419 372.068 239.956 372.068C236.494 372.068 233.688 374.875 233.688 378.337C233.688 381.8 236.494 384.606 239.956 384.606Z" fill="#D4D2EA"/>
<path d="M245.563 377.769C245.563 381.227 242.768 384.038 239.31 384.038C238.394 384.038 237.526 383.848 236.736 383.469C234.557 382.506 233.041 380.311 233.041 377.769C233.041 374.311 235.836 371.5 239.31 371.5H239.405C242.816 371.563 245.563 374.342 245.563 377.769Z" fill="#FBFBFD"/>
<path d="M243.542 377.769C243.542 380.106 241.647 382.001 239.31 382.001C236.973 382.001 235.078 380.106 235.078 377.769C235.078 375.432 236.973 373.537 239.31 373.537C241.647 373.537 243.542 375.432 243.542 377.769Z" fill="#D4D2EA"/>
<g style="mix-blend-mode:soft-light">
<path d="M245.563 377.769C245.563 381.227 242.768 384.038 239.31 384.038C238.394 384.038 237.526 383.848 236.736 383.469C236.878 382.996 237.21 382.601 237.621 382.301C238.142 381.922 238.773 381.701 239.389 381.464C240.637 380.99 241.884 380.422 242.753 379.411C243.621 378.401 243.984 376.869 243.289 375.732C243.084 375.4 242.816 375.132 242.532 374.848C241.9 374.216 241.252 373.584 240.621 372.953C240.194 372.526 239.642 372.084 239.421 371.5C242.832 371.563 245.579 374.342 245.579 377.769H245.563Z" fill="black"/>
</g>
<path d="M236.72 237.72C236.405 237.72 236.089 237.72 235.773 237.72C218.972 237.499 205.518 231.577 195.791 220.145C188.511 211.586 179.495 195.085 177.837 165.003C176.842 147.113 178.974 132.617 178.989 132.475C179.1 131.701 179.826 131.18 180.6 131.29C181.374 131.401 181.911 132.127 181.784 132.901C181.705 133.469 173.636 189.732 197.954 218.329C207.129 229.114 219.872 234.688 235.82 234.909C251.485 235.13 263.912 229.967 272.865 219.608C297.404 191.216 288.34 132.585 288.246 131.985C288.119 131.211 288.64 130.485 289.414 130.374C290.188 130.248 290.914 130.769 291.025 131.543C291.056 131.701 293.425 146.781 292.651 165.256C291.356 196.301 282.324 212.96 274.981 221.455C265.633 232.272 252.764 237.751 236.705 237.751L236.72 237.72Z" fill="#B9B9B9"/>
<path d="M241.899 264.392C236.215 264.139 231.162 258.202 228.382 248.506C226.077 240.437 219.729 236.979 219.666 236.947L220.661 235.068C220.961 235.226 227.861 238.953 230.42 247.922C232.93 256.686 237.257 262.055 241.994 262.276L241.899 264.392Z" fill="#828282"/>
<path d="M242.247 264.453L241.758 262.401C246.369 261.295 249.606 255.216 250.427 246.136C251.264 236.851 257.343 231.893 257.612 231.688L258.938 233.346C258.938 233.346 253.301 237.988 252.543 246.341C251.643 256.368 247.79 263.158 242.247 264.469V264.453Z" fill="#828282"/>
<path d="M184.673 349.015C184.673 349.015 186.079 378.37 183.505 401.851C180.173 432.185 169.262 478.388 229.835 474.172C290.329 469.956 236.641 237.264 236.641 237.264" stroke="#AAAAAA" stroke-width="2.24" stroke-linecap="round" stroke-linejoin="round"/>
<path d="M200.693 349.707C205.907 340.373 202.568 328.579 193.234 323.364C183.9 318.15 172.106 321.49 166.891 330.824C161.676 340.158 165.016 351.952 174.35 357.166C183.684 362.381 195.478 359.041 200.693 349.707Z" fill="#B9B9B9"/>
<path d="M195.537 341.86C194.669 347.924 189.063 352.14 182.984 351.272C176.92 350.403 172.704 344.797 173.572 338.718C174.441 332.654 180.047 328.438 186.126 329.307C192.205 330.175 196.406 335.781 195.537 341.86Z" fill="#AAAAAA"/>
<path d="M286.508 183.401C284.298 196.349 279.924 209.234 271.776 218.677C263.107 228.704 251.042 233.694 235.82 233.489C220.298 233.284 207.918 227.883 199.012 217.414C191.085 208.097 186.679 195.765 184.311 183.401H178.531C181.389 199.128 186.806 211.761 194.717 221.061C204.712 232.826 218.529 238.905 235.757 239.126C236.089 239.126 236.404 239.126 236.72 239.126C253.206 239.126 266.438 233.489 276.055 222.341C284.171 212.945 289.603 199.87 292.288 183.385H286.508V183.401Z" fill="#939393"/>
<path d="M183.774 130.722C183.205 130.533 182.558 130.406 181.863 130.406C179.621 130.406 177.805 131.591 177.805 133.059C177.805 134.528 179.621 135.712 181.863 135.712C182.621 135.712 183.331 135.57 183.932 135.333C183.853 133.817 183.789 132.001 183.758 130.722H183.774Z" fill="#828282"/>
<path d="M287.662 130.722C288.23 130.533 288.878 130.406 289.572 130.406C291.815 130.406 293.631 131.591 293.631 133.059C293.631 134.528 291.815 135.712 289.572 135.712C288.815 135.712 288.104 135.57 287.504 135.333C287.583 133.817 287.646 132.001 287.678 130.722H287.662Z" fill="#828282"/>
</g>
</svg>
