<svg width="216" height="54" viewBox="0 0 216 54" fill="none" xmlns="http://www.w3.org/2000/svg">
<g clip-path="url(#clip0_1066_7376)">
<g clip-path="url(#clip1_1066_7376)">
<path d="M196.445 28.7077C196.445 29.9966 195.954 31.0946 194.986 31.9674C194.052 32.8433 192.855 33.2875 191.428 33.2875C190.154 33.2875 189.078 32.8558 188.239 32.0018C187.397 31.1102 186.969 30.0216 186.969 28.764V19.9924H184.931V29.1895C184.931 30.9257 185.51 32.3928 186.651 33.5503C187.792 34.7077 189.251 35.2959 190.977 35.2959C193.41 35.2959 195.248 34.3793 196.441 32.568V35.0393H198.48V19.9893H196.441V28.7046L196.445 28.7077Z" fill="#434342"/>
<path d="M214.338 14.3988C214.101 14.5489 213.962 14.8054 213.962 15.087V22.4228C212.596 20.6396 210.703 19.7356 208.332 19.7356C206.25 19.7356 204.483 20.4864 203.08 21.966C201.699 23.4238 200.999 25.2914 200.999 27.5156C200.999 29.7398 201.699 31.6073 203.08 33.0651C204.483 34.5448 206.247 35.2956 208.332 35.2956C209.543 35.2956 210.675 35.0234 211.699 34.4853C212.584 34.0192 213.345 33.3873 213.962 32.6021V35.0422H216V13.3477L214.341 14.3988H214.338ZM213.907 27.5156C213.907 29.1298 213.385 30.5062 212.356 31.6042C211.329 32.6835 210.031 33.2309 208.498 33.2309C206.966 33.2309 205.667 32.6835 204.641 31.6073C203.611 30.5093 203.09 29.1329 203.09 27.5187C203.09 25.9045 203.611 24.5406 204.641 23.4582C205.667 22.3602 206.966 21.8065 208.498 21.8065C210.031 21.8065 211.329 22.3633 212.356 23.4582C213.385 24.5406 213.907 25.9045 213.907 27.5187V27.5156Z" fill="#434342"/>
<path d="M28.8891 1.03809H27.5231C22.6172 1.03809 18.6426 5.07355 18.6426 10.0475V16.8765C18.6426 19.8046 19.361 22.5606 20.6284 24.9787C22.0776 22.4323 24.2392 20.3551 26.8355 19.0256C28.5838 18.1309 30.5295 17.5741 32.6016 17.4396C33.0333 17.4114 33.5144 17.4083 33.5452 17.4083V1.03809H28.8891Z" fill="#06EEC9"/>
<path d="M23.3172 54H24.6832C29.5891 54 33.5637 49.9645 33.5637 44.9906V44.9656V38.1647C33.5637 35.2367 32.8453 32.4806 31.578 30.0625C30.1287 32.6089 27.9672 34.6861 25.3709 36.0156C23.6225 36.9103 21.6768 37.4671 19.6047 37.6016C19.173 37.6298 18.692 37.6329 18.6611 37.6329V38.3743V51.6131V54.0031H23.3172V54Z" fill="#06EEC9"/>
<path d="M52.2036 30.3464V28.9606C52.2036 23.9835 48.2259 19.9512 43.3231 19.9512H36.5918C33.7056 19.9512 30.989 20.6801 28.6055 21.9658C31.1154 23.4361 33.1629 25.629 34.4734 28.263C35.3553 30.0367 35.9041 32.0106 36.0367 34.1128C36.0645 34.5508 36.0676 35.0388 36.0676 35.0701H36.7984H52.2067V30.3464H52.2036Z" fill="#06EEC9"/>
<path d="M0 24.6944V26.0802C0 31.0573 3.97773 35.0896 8.88051 35.0896H8.90518H15.6087C18.4949 35.0896 21.2115 34.3607 23.595 33.075C21.0851 31.6047 19.0376 29.4118 17.7271 26.7778C16.8452 25.0041 16.2964 23.0301 16.1638 20.928C16.136 20.49 16.1329 20.002 16.1329 19.9707H15.4021H2.3558H0V24.6944Z" fill="#06EEC9"/>
<path d="M63.2952 14.083C62.7155 14.083 62.2191 14.2895 61.8182 14.6961C61.4174 15.1028 61.2139 15.6065 61.2139 16.1946C61.2139 16.7827 61.4174 17.2864 61.8182 17.693C62.2191 18.0997 62.7155 18.3062 63.2952 18.3062C63.8749 18.3062 64.3714 18.0997 64.7722 17.693C65.1731 17.2864 65.3766 16.7827 65.3766 16.1946C65.3766 15.6065 65.1731 15.1028 64.7722 14.6961C64.3714 14.2895 63.8749 14.083 63.2952 14.083Z" fill="#434342"/>
<path d="M61.6918 21.3188V35.9779C61.6918 36.5285 61.5222 36.9758 61.1737 37.345C60.8284 37.7141 60.4059 37.8924 59.8879 37.8924H58.7285V41.0363H60.1099C61.4667 41.0363 62.6107 40.5827 63.511 39.6912C64.433 38.8152 64.9017 37.6984 64.9017 36.3752V19.542L62.2129 20.5587C61.9014 20.6776 61.6918 20.9841 61.6918 21.322V21.3188Z" fill="#434342"/>
<path d="M75.1977 19.2412C72.9868 19.2412 71.1182 20.0014 69.6412 21.4967C68.1642 22.9951 67.418 24.8909 67.418 27.1338C67.418 29.3768 68.1673 31.2725 69.6412 32.771C71.1182 34.2694 72.9868 35.0264 75.1977 35.0264C77.4085 35.0264 79.2772 34.2663 80.7542 32.771C82.2497 31.2725 83.0082 29.3768 83.0082 27.1338C83.0082 24.8909 82.2497 22.9951 80.7572 21.4967C79.2802 19.9983 77.4116 19.2412 75.2008 19.2412H75.1977ZM79.6842 27.1338C79.6842 28.4477 79.2463 29.5645 78.386 30.456C77.5627 31.3257 76.4897 31.7699 75.1977 31.7699C73.9057 31.7699 72.8696 31.3288 72.0124 30.4592C71.1675 29.5488 70.742 28.4289 70.742 27.1338C70.742 25.8387 71.1706 24.7313 72.0124 23.8398C72.8727 22.9482 73.9458 22.4977 75.2008 22.4977C76.4557 22.4977 77.5627 22.9482 78.3891 23.8429C79.2494 24.7157 79.6873 25.8231 79.6873 27.1338H79.6842Z" fill="#434342"/>
<path d="M93.3041 22.4977C94.2014 22.4977 95.0124 22.723 95.7093 23.1672C96.4061 23.6114 96.9427 24.2245 97.3003 24.9878L97.3559 25.1067L100.578 24.1432L100.513 23.9837C99.9275 22.5447 98.9809 21.3809 97.7043 20.5269C96.4277 19.6729 94.9476 19.2412 93.3041 19.2412C91.0932 19.2412 89.2246 20.0014 87.7476 21.4967C86.2706 22.9951 85.5244 24.8909 85.5244 27.1338C85.5244 29.3768 86.2737 31.2725 87.7476 32.771C89.2246 34.2694 91.0932 35.0264 93.3041 35.0264C94.9476 35.0264 96.4277 34.5947 97.7043 33.7407C98.9809 32.8867 99.9275 31.723 100.513 30.284L100.578 30.1244L97.3559 29.1609L97.3003 29.2798C96.9427 30.0431 96.4061 30.6563 95.7093 31.1005C95.0124 31.5447 94.2014 31.7699 93.3041 31.7699C92.0491 31.7699 90.9761 31.3288 90.1189 30.4592C89.274 29.5488 88.8484 28.4321 88.8484 27.1338C88.8484 25.8356 89.2771 24.7313 90.1189 23.8398C90.9792 22.9482 92.0522 22.4977 93.3072 22.4977H93.3041Z" fill="#434342"/>
<path d="M115.5 19.9924H111.559L106.308 26.518V13.4043L103.619 14.421C103.307 14.5399 103.098 14.8464 103.098 15.1843V35.0456H106.308V28.0008L112.148 35.0456H116.122L109.678 27.2625L115.5 19.9924Z" fill="#434342"/>
<path d="M124.065 19.6416C121.873 19.6416 120.013 20.4018 118.536 21.9002C117.081 23.4174 116.341 25.3131 116.341 27.5373C116.341 29.7615 117.109 31.6792 118.623 33.1745C120.118 34.6698 122.024 35.43 124.29 35.43C125.742 35.43 127.087 35.089 128.289 34.4195C129.492 33.747 130.445 32.8116 131.126 31.6416L131.225 31.4727L128.089 30.5061L128.024 30.5905C127.127 31.773 125.872 32.3736 124.29 32.3736C123.121 32.3736 122.095 32.017 121.244 31.3163C120.439 30.6562 119.912 29.7991 119.674 28.7699H131.7L131.709 28.6229C131.758 27.7532 131.765 27.5843 131.765 27.5373C131.765 25.2944 131.015 23.3986 129.541 21.9002C128.101 20.4018 126.26 19.6416 124.068 19.6416H124.065ZM119.708 26.1046C119.976 25.1317 120.491 24.3246 121.244 23.699C122.039 23.0358 122.961 22.6979 123.982 22.6979C125.058 22.6979 126.023 23.0358 126.849 23.699C127.623 24.3246 128.154 25.1317 128.425 26.1015H119.711L119.708 26.1046Z" fill="#434342"/>
<path d="M139.936 30.4437L135.903 19.9922H132.585L138.317 34.5199L137.697 36.0777C137.392 36.8567 136.988 37.426 136.495 37.7639C136.001 38.1048 135.332 38.2769 134.512 38.2769H133.744V41.4208H134.512C135.989 41.4208 137.223 41.0767 138.175 40.401C139.125 39.7253 139.905 38.6429 140.491 37.1851L147.423 19.9922H144.102L139.933 30.4437H139.936Z" fill="#434342"/>
<path d="M156.59 27.0588L152.763 25.6699C151.684 25.2757 151.16 24.6469 151.16 23.746C151.16 23.1141 151.441 22.6136 152.014 22.2163C152.6 21.8096 153.343 21.6063 154.219 21.6063C155.095 21.6063 155.822 21.7846 156.42 22.1381C157.012 22.4884 157.367 22.942 157.509 23.5301L157.543 23.674L159.458 23.2705L159.427 23.1172C159.214 22.0974 158.644 21.2684 157.728 20.6521C156.821 20.0421 155.69 19.7324 154.361 19.7324C152.844 19.7324 151.592 20.1016 150.636 20.8273C149.668 21.5625 149.177 22.5823 149.177 23.8555C149.177 25.5447 150.161 26.7773 152.1 27.5155L155.819 28.8763C157.142 29.3487 157.786 30.0526 157.786 31.0255C157.786 31.7137 157.475 32.2674 156.834 32.7116C156.183 33.1652 155.35 33.3936 154.364 33.3936C153.377 33.3936 152.563 33.1871 151.9 32.7773C151.24 32.3706 150.852 31.8513 150.713 31.1913L150.682 31.0442L148.736 31.4134L148.764 31.5667C148.977 32.6991 149.59 33.6157 150.59 34.2882C151.579 34.9546 152.828 35.2924 154.305 35.2924C155.896 35.2924 157.207 34.9108 158.197 34.1569C159.239 33.3748 159.766 32.3018 159.766 30.9723C159.766 29.1704 158.699 27.8534 156.59 27.0557V27.0588Z" fill="#434342"/>
<path d="M174.567 22.4225C173.201 20.6394 171.307 19.7354 168.936 19.7354C166.855 19.7354 165.088 20.4861 163.685 21.9658C162.303 23.4236 161.604 25.2912 161.604 27.5153C161.604 29.7395 162.303 31.6071 163.685 33.0649C165.088 34.5446 166.852 35.2953 168.936 35.2953C170.148 35.2953 171.28 35.0232 172.303 34.4851C173.188 34.019 173.95 33.3871 174.567 32.6019V35.042H176.605V19.9919H174.567V22.4225ZM172.96 23.4549C173.99 24.5341 174.511 25.9012 174.511 27.5153C174.511 29.1295 173.99 30.506 172.96 31.604C171.933 32.6832 170.635 33.2307 169.103 33.2307C167.57 33.2307 166.272 32.6832 165.245 31.6071C164.215 30.5091 163.694 29.1327 163.694 27.5185C163.694 25.9043 164.215 24.5404 165.245 23.458C166.272 22.36 167.57 21.8063 169.103 21.8063C170.635 21.8063 171.933 22.3631 172.96 23.458V23.4549Z" fill="#434342"/>
<path d="M179.75 15.087V35.0391H181.788V13.3477L180.129 14.3988C179.892 14.5489 179.753 14.8054 179.753 15.087H179.75Z" fill="#434342"/>
</g>
</g>
<defs>
<clipPath id="clip0_1066_7376">
<rect width="216" height="54" fill="white"/>
</clipPath>
<clipPath id="clip1_1066_7376">
<rect width="216" height="52.9615" fill="white" transform="translate(0 1.03809)"/>
</clipPath>
</defs>
</svg>
