<svg width="248" height="61" viewBox="0 0 248 61" fill="none" xmlns="http://www.w3.org/2000/svg">
<g clip-path="url(#clip0_1064_19148)">
<path d="M225.548 31.8651C225.548 33.3449 224.985 34.6056 223.873 35.6076C222.8 36.6133 221.427 37.1233 219.788 37.1233C218.325 37.1233 217.09 36.6277 216.127 35.6472C215.16 34.6235 214.668 33.3736 214.668 31.9297V21.8586H212.328V32.4182C212.328 34.4116 212.994 36.0961 214.304 37.4251C215.614 38.754 217.288 39.4292 219.271 39.4292C222.064 39.4292 224.174 38.3769 225.544 36.2973V39.1347H227.884V21.855H225.544V31.8615L225.548 31.8651Z" fill="white"/>
<path d="M246.092 15.4363C245.819 15.6087 245.66 15.9032 245.66 16.2265V24.6491C244.092 22.6018 241.918 21.5638 239.195 21.5638C236.806 21.5638 234.777 22.4258 233.166 24.1247C231.58 25.7984 230.776 27.9427 230.776 30.4964C230.776 33.0501 231.58 35.1943 233.166 36.8681C234.777 38.5669 236.802 39.4289 239.195 39.4289C240.587 39.4289 241.886 39.1165 243.061 38.4987C244.077 37.9635 244.952 37.238 245.66 36.3365V39.138H248V14.2295L246.095 15.4363H246.092ZM245.596 30.4964C245.596 32.3497 244.998 33.93 243.815 35.1907C242.636 36.4299 241.146 37.0584 239.386 37.0584C237.627 37.0584 236.136 36.4299 234.957 35.1943C233.775 33.9336 233.177 32.3533 233.177 30.5C233.177 28.6466 233.775 27.0806 234.957 25.8379C236.136 24.5772 237.627 23.9415 239.386 23.9415C241.146 23.9415 242.636 24.5808 243.815 25.8379C244.998 27.0806 245.596 28.6466 245.596 30.5V30.4964Z" fill="white"/>
<path d="M33.1698 0.0961914H31.6014C25.9688 0.0961914 21.4053 4.7295 21.4053 10.4403V18.281C21.4053 21.6429 22.2302 24.8072 23.6852 27.5836C25.3492 24.6599 27.831 22.275 30.8119 20.7485C32.8193 19.7213 35.0532 19.082 37.4323 18.9275C37.928 18.8952 38.4803 18.8916 38.5157 18.8916V0.0961914H33.1698Z" fill="#06EAC9"/>
<path d="M26.7717 60.9037H28.34C33.9727 60.9037 38.5362 56.2704 38.5362 50.5596V50.5308V42.7225C38.5362 39.3606 37.7113 36.1963 36.2562 33.4199C34.5923 36.3436 32.1105 38.7285 29.1295 40.2549C27.1222 41.2822 24.8882 41.9215 22.5091 42.0759C22.0135 42.1083 21.4612 42.1119 21.4258 42.1119V42.9631V58.1632V60.9073H26.7717V60.9037Z" fill="#06EAC9"/>
<path d="M59.9379 33.7468V32.1557C59.9379 26.4412 55.3709 21.8115 49.7417 21.8115H42.0132C38.6995 21.8115 35.5804 22.6484 32.8438 24.1246C35.7256 25.8127 38.0764 28.3305 39.581 31.3547C40.5935 33.3912 41.2237 35.6576 41.3759 38.0712C41.4078 38.574 41.4113 39.1344 41.4113 39.1703H42.2504H59.9414V33.7468H59.9379Z" fill="#06EAC9"/>
<path d="M0 27.2565V28.8476C0 34.562 4.56702 39.1918 10.1961 39.1918H10.2245H17.9211C21.2349 39.1918 24.3539 38.3549 27.0906 36.8787C24.2088 35.1906 21.858 32.6728 20.3533 29.6486C19.3408 27.6121 18.7106 25.3457 18.5584 22.9321C18.5265 22.4292 18.523 21.8689 18.523 21.833H17.6839H2.70481H0V27.2565Z" fill="#06EAC9"/>
<path d="M72.6719 15.0737C72.0064 15.0737 71.4364 15.3108 70.9761 15.7777C70.5159 16.2446 70.2822 16.8229 70.2822 17.4981C70.2822 18.1734 70.5159 18.7516 70.9761 19.2186C71.4364 19.6855 72.0064 19.9225 72.6719 19.9225C73.3375 19.9225 73.9075 19.6855 74.3678 19.2186C74.828 18.7516 75.0617 18.1734 75.0617 17.4981C75.0617 16.8229 74.828 16.2446 74.3678 15.7777C73.9075 15.3108 73.3375 15.0737 72.6719 15.0737Z" fill="white"/>
<path d="M70.831 23.3814V40.2122C70.831 40.8443 70.6362 41.3579 70.2362 41.7817C69.8397 42.2056 69.3546 42.4103 68.7599 42.4103H67.4287V46.02H69.0148C70.5725 46.02 71.886 45.4992 72.9198 44.4755C73.9783 43.4698 74.5164 42.1876 74.5164 40.6683V21.3413L71.4293 22.5086C71.0717 22.6451 70.831 22.9971 70.831 23.385V23.3814Z" fill="white"/>
<path d="M86.3375 20.9966C83.7991 20.9966 81.6537 21.8694 79.9579 23.5862C78.262 25.3066 77.4053 27.4832 77.4053 30.0585C77.4053 32.6337 78.2656 34.8103 79.9579 36.5307C81.6537 38.2512 83.7991 39.1204 86.3375 39.1204C88.8759 39.1204 91.0214 38.2476 92.7172 36.5307C94.4343 34.8103 95.3052 32.6337 95.3052 30.0585C95.3052 27.4832 94.4343 25.3066 92.7207 23.5862C91.0249 21.8658 88.8795 20.9966 86.3411 20.9966H86.3375ZM91.4887 30.0585C91.4887 31.567 90.986 32.8492 89.9982 33.8729C89.053 34.8714 87.8209 35.3814 86.3375 35.3814C84.8541 35.3814 83.6646 34.875 82.6804 33.8765C81.7103 32.8313 81.2217 31.5454 81.2217 30.0585C81.2217 28.5715 81.7139 27.3 82.6804 26.2764C83.6681 25.2528 84.9002 24.7356 86.3411 24.7356C87.782 24.7356 89.053 25.2528 90.0018 26.28C90.9895 27.2821 91.4922 28.5535 91.4922 30.0585H91.4887Z" fill="white"/>
<path d="M107.127 24.7356C108.157 24.7356 109.088 24.9942 109.888 25.5042C110.688 26.0142 111.304 26.7182 111.715 27.5946L111.779 27.731L115.478 26.6248L115.404 26.4416C114.731 24.7894 113.644 23.4533 112.179 22.4728C110.713 21.4922 109.014 20.9966 107.127 20.9966C104.588 20.9966 102.443 21.8694 100.747 23.5862C99.0511 25.3066 98.1943 27.4832 98.1943 30.0585C98.1943 32.6337 99.0546 34.8103 100.747 36.5307C102.443 38.2512 104.588 39.1204 107.127 39.1204C109.014 39.1204 110.713 38.6247 112.179 37.6442C113.644 36.6636 114.731 35.3275 115.404 33.6753L115.478 33.4922L111.779 32.3859L111.715 32.5224C111.304 33.3988 110.688 34.1027 109.888 34.6128C109.088 35.1228 108.157 35.3814 107.127 35.3814C105.686 35.3814 104.454 34.875 103.469 33.8765C102.499 32.8313 102.011 31.549 102.011 30.0585C102.011 28.5679 102.503 27.3 103.469 26.2764C104.457 25.2528 105.689 24.7356 107.13 24.7356H107.127Z" fill="white"/>
<path d="M132.61 21.8586H128.086L122.057 29.3509V14.2944L118.969 15.4617C118.612 15.5982 118.371 15.9502 118.371 16.3381V39.1419H122.057V31.0534L128.762 39.1419H133.325L125.926 30.2057L132.61 21.8586Z" fill="white"/>
<path d="M142.445 21.4561C139.928 21.4561 137.793 22.3288 136.097 24.0493C134.426 25.7913 133.576 27.9678 133.576 30.5215C133.576 33.0752 134.458 35.277 136.196 36.9938C137.913 38.7106 140.101 39.5834 142.703 39.5834C144.371 39.5834 145.914 39.1919 147.295 38.4233C148.676 37.6511 149.77 36.5772 150.552 35.2339L150.665 35.0399L147.065 33.9301L146.99 34.027C145.96 35.3847 144.519 36.0743 142.703 36.0743C141.361 36.0743 140.182 35.6649 139.205 34.8603C138.281 34.1025 137.676 33.1183 137.403 31.9367H151.211L151.221 31.7679C151.278 30.7694 151.285 30.5754 151.285 30.5215C151.285 27.9463 150.425 25.7697 148.732 24.0493C147.079 22.3288 144.965 21.4561 142.448 21.4561H142.445ZM137.442 28.8765C137.75 27.7595 138.341 26.8328 139.205 26.1145C140.119 25.3531 141.177 24.9652 142.349 24.9652C143.585 24.9652 144.693 25.3531 145.642 26.1145C146.53 26.8328 147.139 27.7595 147.451 28.8729H137.446L137.442 28.8765Z" fill="white"/>
<path d="M160.667 33.8583L156.036 21.8584H152.227L158.808 38.5383L158.096 40.327C157.746 41.2213 157.282 41.875 156.716 42.2629C156.149 42.6544 155.381 42.852 154.439 42.852H153.558V46.4616H154.439C156.135 46.4616 157.551 46.0665 158.645 45.2907C159.736 44.5149 160.631 43.2722 161.304 41.5985L169.263 21.8584H165.45L160.663 33.8583H160.667Z" fill="white"/>
<path d="M179.789 29.9718L175.395 28.3771C174.156 27.9246 173.554 27.2026 173.554 26.1682C173.554 25.4427 173.876 24.868 174.535 24.4119C175.208 23.945 176.061 23.7115 177.066 23.7115C178.072 23.7115 178.907 23.9162 179.594 24.3221C180.274 24.7244 180.681 25.2452 180.844 25.9204L180.883 26.0856L183.081 25.6223L183.046 25.4463C182.802 24.2754 182.147 23.3236 181.095 22.616C180.054 21.9156 178.755 21.5601 177.229 21.5601C175.487 21.5601 174.05 21.9839 172.952 22.8172C171.841 23.6612 171.278 24.8321 171.278 26.2939C171.278 28.2335 172.407 29.6486 174.634 30.4962L178.904 32.0586C180.422 32.601 181.162 33.4091 181.162 34.5261C181.162 35.3163 180.805 35.952 180.068 36.4621C179.321 36.9829 178.365 37.2451 177.233 37.2451C176.1 37.2451 175.165 37.008 174.404 36.5375C173.646 36.0706 173.2 35.4744 173.041 34.7165L173.005 34.5477L170.771 34.9715L170.803 35.1475C171.048 36.4477 171.752 37.5001 172.899 38.2723C174.036 39.0373 175.47 39.4252 177.165 39.4252C178.992 39.4252 180.497 38.987 181.633 38.1214C182.83 37.2235 183.435 35.9916 183.435 34.4651C183.435 32.3963 182.21 30.8841 179.789 29.9683V29.9718Z" fill="white"/>
<path d="M200.428 24.6492C198.86 22.602 196.686 21.564 193.964 21.564C191.574 21.564 189.545 22.426 187.935 24.1249C186.349 25.7986 185.545 27.9428 185.545 30.4966C185.545 33.0503 186.349 35.1945 187.935 36.8683C189.545 38.5671 191.571 39.4291 193.964 39.4291C195.355 39.4291 196.654 39.1167 197.83 38.4989C198.846 37.9637 199.72 37.2382 200.428 36.3367V39.1382H202.769V21.8585H200.428V24.6492ZM198.584 25.8345C199.766 27.0737 200.365 28.6432 200.365 30.4966C200.365 32.3499 199.766 33.9302 198.584 35.1909C197.405 36.4301 195.915 37.0586 194.155 37.0586C192.395 37.0586 190.905 36.4301 189.726 35.1945C188.544 33.9338 187.945 32.3535 187.945 30.5001C187.945 28.6468 188.544 27.0808 189.726 25.8381C190.905 24.5774 192.395 23.9417 194.155 23.9417C195.915 23.9417 197.405 24.581 198.584 25.8381V25.8345Z" fill="white"/>
<path d="M206.38 16.2265V39.1344H208.72V14.2295L206.815 15.4363C206.543 15.6087 206.383 15.9032 206.383 16.2265H206.38Z" fill="white"/>
</g>
<defs>
<clipPath id="clip0_1064_19148">
<rect width="248" height="60.8077" fill="white" transform="translate(0 0.0961914)"/>
</clipPath>
</defs>
</svg>
