<svg width="46" height="28" viewBox="0 0 46 28" fill="none" xmlns="http://www.w3.org/2000/svg">
<rect x="0.947266" width="44.2105" height="28" rx="3" fill="#0F3560"/>
<path d="M26.9109 20.8814H19.1748V7.12305H26.9109V20.8814Z" fill="#FF5F00"/>
<path d="M19.6704 14.002C19.6704 11.211 20.9909 8.72491 23.0473 7.12278C21.5435 5.95121 19.6457 5.25195 17.5832 5.25195C12.7003 5.25195 8.74219 9.16939 8.74219 14.002C8.74219 18.8345 12.7003 22.752 17.5832 22.752C19.6457 22.752 21.5435 22.0527 23.0473 20.8811C20.9909 19.279 19.6704 16.7929 19.6704 14.002Z" fill="#EB001B"/>
<path d="M37.3447 14.002C37.3447 18.8345 33.3866 22.752 28.5038 22.752C26.4412 22.752 24.5434 22.0527 23.0391 20.8811C25.096 19.279 26.4165 16.7929 26.4165 14.002C26.4165 11.211 25.096 8.72491 23.0391 7.12278C24.5434 5.95121 26.4412 5.25195 28.5038 5.25195C33.3866 5.25195 37.3447 9.16939 37.3447 14.002Z" fill="#F79E1B"/>
<path d="M15.3946 14.0573C15.3946 13.6751 15.6477 13.3611 16.0612 13.3611C16.4564 13.3611 16.7232 13.6616 16.7232 14.0573C16.7232 14.453 16.4564 14.7535 16.0612 14.7535C15.6477 14.7535 15.3946 14.4395 15.3946 14.0573ZM17.1736 14.0573V12.9701H16.6958V13.2341C16.5443 13.0383 16.3143 12.9154 16.0018 12.9154C15.3856 12.9154 14.9026 13.3934 14.9026 14.0573C14.9026 14.7217 15.3856 15.1992 16.0018 15.1992C16.3143 15.1992 16.5443 15.0763 16.6958 14.8805V15.1445H17.1736V14.0573ZM33.3191 14.0573C33.3191 13.6751 33.5722 13.3611 33.9858 13.3611C34.3815 13.3611 34.6477 13.6616 34.6477 14.0573C34.6477 14.453 34.3815 14.7535 33.9858 14.7535C33.5722 14.7535 33.3191 14.4395 33.3191 14.0573ZM35.0987 14.0573V12.0969H34.6204V13.2341C34.4688 13.0383 34.2389 12.9154 33.9263 12.9154C33.3101 12.9154 32.8271 13.3934 32.8271 14.0573C32.8271 14.7217 33.3101 15.1992 33.9263 15.1992C34.2389 15.1992 34.4688 15.0763 34.6204 14.8805V15.1445H35.0987V14.0573ZM23.1042 13.3387C23.4121 13.3387 23.6099 13.5298 23.6604 13.8662H22.5202C22.5712 13.5522 22.7638 13.3387 23.1042 13.3387ZM23.1137 12.9154C22.4697 12.9154 22.0192 13.3794 22.0192 14.0573C22.0192 14.7488 22.4881 15.1992 23.1458 15.1992C23.4768 15.1992 23.7799 15.1175 24.0466 14.8946L23.8125 14.5442C23.6283 14.6894 23.3936 14.7717 23.1732 14.7717C22.8654 14.7717 22.5849 14.6306 22.516 14.239H24.1477C24.1524 14.1802 24.1571 14.1208 24.1571 14.0573C24.1524 13.3794 23.7294 12.9154 23.1137 12.9154ZM28.8828 14.0573C28.8828 13.6751 29.1359 13.3611 29.5495 13.3611C29.9447 13.3611 30.2114 13.6616 30.2114 14.0573C30.2114 14.453 29.9447 14.7535 29.5495 14.7535C29.1359 14.7535 28.8828 14.4395 28.8828 14.0573ZM30.6619 14.0573V12.9701H30.1841V13.2341C30.032 13.0383 29.8026 12.9154 29.49 12.9154C28.8739 12.9154 28.3908 13.3934 28.3908 14.0573C28.3908 14.7217 28.8739 15.1992 29.49 15.1992C29.8026 15.1992 30.032 15.0763 30.1841 14.8805V15.1445H30.6619V14.0573ZM26.1845 14.0573C26.1845 14.717 26.6486 15.1992 27.3569 15.1992C27.6878 15.1992 27.9083 15.1263 28.1472 14.9399L27.9178 14.5577C27.7384 14.6853 27.55 14.7535 27.3427 14.7535C26.9612 14.7488 26.6807 14.476 26.6807 14.0573C26.6807 13.6387 26.9612 13.3658 27.3427 13.3611C27.55 13.3611 27.7384 13.4293 27.9178 13.5569L28.1472 13.1747C27.9083 12.9883 27.6878 12.9154 27.3569 12.9154C26.6486 12.9154 26.1845 13.3976 26.1845 14.0573ZM32.3446 12.9154C32.0689 12.9154 31.8894 13.043 31.7653 13.2341V12.9701H31.2917V15.1445H31.77V13.9256C31.77 13.5658 31.9263 13.3658 32.2388 13.3658C32.3357 13.3658 32.4367 13.3794 32.5377 13.4205L32.685 12.9748C32.5793 12.9336 32.4414 12.9154 32.3446 12.9154ZM19.5367 13.143C19.3068 12.993 18.99 12.9154 18.6406 12.9154C18.0839 12.9154 17.7256 13.1794 17.7256 13.6116C17.7256 13.9662 17.9923 14.1849 18.4838 14.2531L18.7095 14.2849C18.9716 14.3213 19.0952 14.3895 19.0952 14.5124C19.0952 14.6806 18.9205 14.7764 18.5943 14.7764C18.2633 14.7764 18.0244 14.6717 17.8634 14.5489L17.6382 14.917C17.9003 15.1081 18.2312 15.1992 18.5896 15.1992C19.2241 15.1992 19.5919 14.9035 19.5919 14.4895C19.5919 14.1073 19.3025 13.9073 18.8242 13.8391L18.599 13.8069C18.3922 13.7798 18.2265 13.7392 18.2265 13.5934C18.2265 13.434 18.3828 13.3387 18.6448 13.3387C18.9253 13.3387 19.1968 13.4434 19.3299 13.5252L19.5367 13.143ZM25.7015 12.9154C25.4258 12.9154 25.2463 13.043 25.1227 13.2341V12.9701H24.6491V15.1445H25.1269V13.9256C25.1269 13.5658 25.2832 13.3658 25.5957 13.3658C25.6926 13.3658 25.7936 13.3794 25.8946 13.4205L26.0419 12.9748C25.9362 12.9336 25.7983 12.9154 25.7015 12.9154ZM21.6241 12.9701H20.8427V12.3103H20.3597V12.9701H19.914V13.4023H20.3597V14.3942C20.3597 14.8988 20.5575 15.1992 21.1226 15.1992C21.3299 15.1992 21.5688 15.1357 21.7204 15.031L21.5825 14.6259C21.4399 14.7077 21.2836 14.7488 21.1595 14.7488C20.9206 14.7488 20.8427 14.603 20.8427 14.3848V13.4023H21.6241V12.9701ZM14.48 15.1445V13.7798C14.48 13.2658 14.1491 12.9201 13.6155 12.9154C13.3351 12.9107 13.0457 12.9972 12.8431 13.3023C12.6915 13.0612 12.4527 12.9154 12.1169 12.9154C11.8823 12.9154 11.6529 12.9836 11.4734 13.2382V12.9701H10.9951V15.1445H11.4776V13.9391C11.4776 13.5616 11.6892 13.3611 12.0159 13.3611C12.3332 13.3611 12.4937 13.5658 12.4937 13.9344V15.1445H12.9767V13.9391C12.9767 13.5616 13.1972 13.3611 13.5145 13.3611C13.8407 13.3611 13.997 13.5658 13.997 13.9344V15.1445H14.48Z" fill="white"/>
</svg>
