<svg width="121" height="120" viewBox="0 0 121 120" fill="none" xmlns="http://www.w3.org/2000/svg">
<path d="M54.875 85.3125H15.5C10.8473 85.3125 7.0625 81.5277 7.0625 76.875V20.625C7.0625 15.9723 10.8473 12.1875 15.5 12.1875H96.125C100.778 12.1875 104.562 15.9723 104.562 20.625V64.2188C104.562 65.7724 103.303 67.0312 101.75 67.0312C100.197 67.0312 98.9375 65.7724 98.9375 64.2188V20.625C98.9375 19.0741 97.6759 17.8125 96.125 17.8125H15.5C13.9491 17.8125 12.6875 19.0741 12.6875 20.625V76.875C12.6875 78.4259 13.9491 79.6875 15.5 79.6875H54.875C56.4277 79.6875 57.6875 80.9464 57.6875 82.5C57.6875 84.0536 56.4277 85.3125 54.875 85.3125Z" fill="#00D2B4"/>
<path d="M101.75 45.9375H9.875C8.32228 45.9375 7.0625 44.6786 7.0625 43.125C7.0625 41.5714 8.32228 40.3125 9.875 40.3125H101.75C103.303 40.3125 104.562 41.5714 104.562 43.125C104.562 44.6786 103.303 45.9375 101.75 45.9375Z" fill="#00D2B4"/>
<path d="M101.75 32.8125H9.875C8.32228 32.8125 7.0625 31.5536 7.0625 30C7.0625 28.4464 8.32228 27.1875 9.875 27.1875H101.75C103.303 27.1875 104.562 28.4464 104.562 30C104.562 31.5536 103.303 32.8125 101.75 32.8125Z" fill="#00D2B4"/>
<path d="M39.875 59.0625H21.125C19.5723 59.0625 18.3125 57.8036 18.3125 56.25C18.3125 54.6964 19.5723 53.4375 21.125 53.4375H39.875C41.4277 53.4375 42.6875 54.6964 42.6875 56.25C42.6875 57.8036 41.4277 59.0625 39.875 59.0625Z" fill="#00D2B4"/>
<path d="M28.625 68.4375H21.125C19.5723 68.4375 18.3125 67.1786 18.3125 65.625C18.3125 64.0714 19.5723 62.8125 21.125 62.8125H28.625C30.1777 62.8125 31.4375 64.0714 31.4375 65.625C31.4375 67.1786 30.1777 68.4375 28.625 68.4375Z" fill="#00D2B4"/>
<path d="M88.625 57.1875C74.6669 57.1875 63.3125 68.5428 63.3125 82.5C63.3125 96.4572 74.6669 107.812 88.625 107.812C102.583 107.812 113.938 96.4572 113.938 82.5C113.938 68.5428 102.583 57.1875 88.625 57.1875ZM102.332 76.9876L87.3323 91.9894C86.8049 92.5168 86.089 92.8134 85.3438 92.8134C84.5985 92.8134 83.8826 92.5168 83.3552 91.9894L74.9177 83.5519C73.8191 82.4542 73.8191 80.6726 74.9177 79.5749C76.0164 78.4763 77.7961 78.4763 78.8948 79.5749L85.3437 86.023L98.3552 73.0106C99.4538 71.9119 101.234 71.9119 102.332 73.0106C103.431 74.1083 103.431 75.889 102.332 76.9876Z" fill="#00D2B4"/>
</svg>
