<svg width="45" height="28" viewBox="0 0 45 28" fill="none" xmlns="http://www.w3.org/2000/svg">
<rect width="44.2105" height="28" rx="3" fill="#00579F"/>
<path d="M19.8654 18.8436H17.1436L18.846 9.1875H21.5677L19.8654 18.8436Z" fill="white"/>
<path d="M29.7321 9.42282C29.1953 9.22744 28.3438 9.01172 27.2909 9.01172C24.603 9.01172 22.7102 10.3265 22.6986 12.2063C22.6762 13.5932 24.0538 14.3635 25.084 14.8259C26.1371 15.2985 26.495 15.6069 26.495 16.0281C26.4843 16.675 25.6441 16.9732 24.8605 16.9732C23.7738 16.9732 23.1915 16.8194 22.3067 16.4595L21.9483 16.3052L21.5674 18.4728C22.2058 18.7396 23.3819 18.9763 24.603 18.9867C27.4589 18.9867 29.3182 17.6923 29.3403 15.6891C29.3511 14.5899 28.6237 13.7476 27.0556 13.0593C26.1036 12.6175 25.5206 12.3196 25.5206 11.8676C25.5317 11.4566 26.0137 11.0357 27.0883 11.0357C27.9732 11.015 28.6233 11.2102 29.1158 11.4054L29.362 11.5079L29.7321 9.42282Z" fill="white"/>
<path d="M33.3498 15.4228C33.574 14.868 34.4365 12.7211 34.4365 12.7211C34.4252 12.7417 34.6602 12.1561 34.7946 11.7966L34.9848 12.6286C34.9848 12.6286 35.5002 14.94 35.6122 15.4228C35.1868 15.4228 33.8874 15.4228 33.3498 15.4228ZM36.7096 9.1875H34.6042C33.955 9.1875 33.4617 9.36199 33.1816 9.98867L29.1387 18.8434H31.9946C31.9946 18.8434 32.4648 17.6516 32.5659 17.395C32.8792 17.395 35.6574 17.395 36.0605 17.395C36.1386 17.734 36.3852 18.8434 36.3852 18.8434H38.9054L36.7096 9.1875Z" fill="white"/>
<path d="M14.8704 9.1875L12.2048 15.772L11.9135 14.4366C11.4207 12.8957 9.87515 11.2215 8.15039 10.3891L10.592 18.8333H13.4702L17.7485 9.1875H14.8704Z" fill="white"/>
<path d="M9.72963 9.1875H5.35046L5.30566 9.3826C8.72169 10.1839 10.9841 12.1154 11.9136 14.437L10.9616 9.99918C10.8049 9.38247 10.3232 9.20784 9.72963 9.1875Z" fill="#FAA61A"/>
</svg>
